<svg width="93" height="35" viewBox="0 0 93 35" fill="none" xmlns="http://www.w3.org/2000/svg">
<rect x="0.945852" y="0.72756" width="91.434" height="33.8034" rx="5.59443" stroke="#2BE777" stroke-width="0.811138"/>
<path d="M44.3556 21.0674L43.5939 19.2775L39.736 19.2561L38.9656 21.0375L37.4886 21.0293L41.0034 13.3329L42.4142 13.3407L45.8546 21.0757L44.3556 21.0674ZM40.2272 18.1345L43.1261 18.1505L41.6899 14.7696L40.2272 18.1345ZM49.3499 21.1722C47.4871 21.1619 46.1713 19.898 46.1811 18.1344C46.1909 16.3708 47.5204 15.1326 49.3832 15.1429C50.5296 15.1493 51.4418 15.6283 51.8888 16.5236L50.8272 17.135C50.4776 16.5709 49.9499 16.3145 49.3658 16.3112C48.3517 16.3056 47.5762 17.0068 47.5699 18.1421C47.5636 19.2884 48.3313 19.9871 49.3454 19.9927C49.9296 19.996 50.46 19.7454 50.8159 19.1852L51.8706 19.8083C51.4138 20.6876 50.4962 21.1785 49.3499 21.1722ZM56.2894 19.8328L56.6698 20.8159C56.3376 21.0786 55.8409 21.2082 55.3449 21.2054C54.0552 21.1983 53.3205 20.5108 53.3277 19.2101L53.3434 16.3774L52.3734 16.372L52.3795 15.2697L53.3495 15.2751L53.357 13.9304L54.7348 13.938L54.7273 15.2827L56.3035 15.2915L56.2974 16.3937L54.7212 16.385L54.7057 19.1847C54.7025 19.7579 54.9874 20.0681 55.5165 20.071C55.8031 20.0726 56.0791 19.997 56.2894 19.8328ZM58.5338 14.2897C58.0268 14.2869 57.654 13.9211 57.6566 13.4582C57.6591 12.9952 58.0359 12.6335 58.543 12.6364C59.05 12.6392 59.4229 12.9829 59.4204 13.4349C59.4177 13.9198 59.0518 14.2926 58.5338 14.2897ZM57.8014 21.1419L57.834 15.2559L59.2118 15.2635L59.1792 21.1495L57.8014 21.1419ZM65.2087 15.2967L66.5314 15.304L63.9747 21.176L62.5528 21.1682L60.0612 15.2682L61.4942 15.2761L63.2997 19.6512L65.2087 15.2967ZM72.7479 18.3146C72.7473 18.4248 72.7353 18.5901 72.7236 18.7223L68.1052 18.6967C68.2657 19.5574 68.9791 20.1125 70.0042 20.1182C70.6656 20.1218 71.1848 19.9153 71.606 19.4877L72.3398 20.3406C71.8073 20.9659 70.9788 21.292 69.9647 21.2864C67.9917 21.2755 66.7201 20.0008 66.7298 18.2482C66.7395 16.4956 68.0361 15.2462 69.7887 15.2559C71.5082 15.2655 72.7581 16.4739 72.7479 18.3146ZM69.7826 16.3582C68.8897 16.3532 68.2362 16.9228 68.0992 17.7818L71.439 17.8003C71.3335 16.951 70.6864 16.3632 69.7826 16.3582Z" fill="#2BE777"/>
<circle cx="26.2535" cy="17.4896" r="6.45976" fill="#2BE777"/>
<path d="M23.4965 18.0916L24.9936 19.5887L29.0102 15.5721" stroke="#2F2B1F" stroke-width="0.918552"/>
</svg>
