<svg width="86" height="26" viewBox="0 0 86 26" fill="none" xmlns="http://www.w3.org/2000/svg">
<path d="M1.32903 1.26409H76.972L80.7373 5.38306L80.7421 5.38833L84.7042 9.85782V25.446H1.32903V1.26409Z" fill="#17FF74" fill-opacity="0.2" stroke="#17FF74" stroke-width="0.931493"/>
<circle cx="13.9899" cy="13.3551" r="2.57389" fill="#2BE777"/>
<path d="M22.885 8.65322H24.9418L26.9203 12.6996V16.8354H25.4001V15.4717H22.4267V16.8354H20.9177V12.6996L22.885 8.65322ZM22.4267 14.0521H25.4001V12.789L24.0475 10.1063H23.7793L22.4267 12.789V14.0521ZM35.3897 14.1751V14.6558C35.3897 16.0306 34.4731 16.9472 33.0871 16.9472H31.6787C30.3038 16.9472 29.3872 16.0306 29.3872 14.6558V10.7882C29.3872 9.41331 30.3038 8.49673 31.6787 8.49673H33.0871C34.4731 8.49673 35.3897 9.41331 35.3897 10.7882V11.2577H33.8695V10.7323C33.8695 10.2628 33.5565 9.94985 33.0871 9.94985H31.6898C31.2092 9.94985 30.8962 10.2628 30.8962 10.7323V14.7005C30.8962 15.1811 31.2092 15.4941 31.6898 15.4941H33.0871C33.5565 15.4941 33.8695 15.1811 33.8695 14.7005V14.1751H35.3897ZM37.4431 10.1063V8.65322H43.4679V10.1063H41.2212V16.8354H39.701V10.1063H37.4431ZM45.1266 15.3823H47.3845V10.1063H45.1266V8.65322H51.1515V10.1063H48.9047V15.3823H51.1515V16.8354H45.1266V15.3823ZM52.821 8.65322H54.3747L55.8502 14.2645L57.3145 8.65322H58.8682L56.5991 16.8354H55.1013L52.821 8.65322ZM61.0181 8.65322H67.043V10.1063H62.5272V12.0289H66.8195V13.4597H62.5272V15.3823H67.043V16.8354H61.0181V8.65322Z" fill="white"/>
</svg>
