<?xml version="1.0" encoding="UTF-8"?>
<svg version="1.1" xmlns="http://www.w3.org/2000/svg" width="276" height="276">
<path d="M0 0 C0.71808838 -0.00067474 1.43617676 -0.00134949 2.17602539 -0.00204468 C12.95258124 0.01405815 23.15438844 0.47276827 33.625 3.25 C34.58768799 3.49943359 34.58768799 3.49943359 35.56982422 3.75390625 C59.37524334 10.06617059 80.13760325 21.94209266 97.625 39.25 C98.91277344 40.44689453 98.91277344 40.44689453 100.2265625 41.66796875 C122.45759767 62.7633628 137.36157037 95.10157735 138.78613281 125.71240234 C138.83215268 129.68348908 138.87166149 133.65364178 138.875 137.625 C138.87567474 138.34308838 138.87634949 139.06117676 138.87704468 139.80102539 C138.86094185 150.57758124 138.40223173 160.77938844 135.625 171.25 C135.45871094 171.89179199 135.29242188 172.53358398 135.12109375 173.19482422 C128.80882941 197.00024334 116.93290734 217.76260325 99.625 235.25 C98.82707031 236.10851562 98.02914062 236.96703125 97.20703125 237.8515625 C76.1116372 260.08259767 43.77342265 274.98657037 13.16259766 276.41113281 C9.19151092 276.45715268 5.22135822 276.49666149 1.25 276.5 C0.53191162 276.50067474 -0.18617676 276.50134949 -0.92602539 276.50204468 C-11.70258124 276.48594185 -21.90438844 276.02723173 -32.375 273.25 C-33.01679199 273.08371094 -33.65858398 272.91742188 -34.31982422 272.74609375 C-58.12524334 266.43382941 -78.88760325 254.55790734 -96.375 237.25 C-97.23351562 236.45207031 -98.09203125 235.65414062 -98.9765625 234.83203125 C-121.20759767 213.7366372 -136.11157037 181.39842265 -137.53613281 150.78759766 C-137.58215268 146.81651092 -137.62166149 142.84635822 -137.625 138.875 C-137.62567474 138.15691162 -137.62634949 137.43882324 -137.62704468 136.69897461 C-137.61094185 125.92241876 -137.15223173 115.72061156 -134.375 105.25 C-134.20871094 104.60820801 -134.04242188 103.96641602 -133.87109375 103.30517578 C-127.55882941 79.49975666 -115.68290734 58.73739675 -98.375 41.25 C-97.57707031 40.39148437 -96.77914062 39.53296875 -95.95703125 38.6484375 C-71.23557664 12.59613786 -35.32205979 0.0296934 0 0 Z " fill="#201035" transform="translate(137.375,-0.24999999999999997)"/>
<path d="M0 0 C4.13337203 1.82937424 7.9836116 4.08259496 11.875 6.375 C12.98327148 7.01260254 14.09154297 7.65020508 15.23339844 8.30712891 C18.4977174 10.19009863 21.74978193 12.09282177 25 14 C26.65317275 14.9591492 28.30676563 15.91757495 29.9609375 16.875 C33.99320978 19.21830634 38.00075404 21.60086858 42 24 C42.64517578 24.38446289 43.29035156 24.76892578 43.95507812 25.16503906 C45.80719145 26.27051336 47.65447694 27.38356614 49.5 28.5 C51.06234375 29.44359375 51.06234375 29.44359375 52.65625 30.40625 C55 32 55 32 56 34 C56.12236441 36.0663161 56.18023929 38.13655899 56.20874023 40.20629883 C56.22803085 41.51137894 56.24732147 42.81645905 56.26719666 44.16108704 C56.28200272 45.59305838 56.29577632 47.02504072 56.30859375 48.45703125 C56.31516558 49.17710546 56.3217374 49.89717968 56.32850838 50.63907433 C56.36110041 54.45085053 56.38555118 58.2625988 56.4050293 62.07446289 C56.42284241 65.22819708 56.45765982 68.38103704 56.50756836 71.53442383 C56.56777456 75.3429006 56.59850486 79.15054838 56.60820198 82.95947838 C56.61675767 84.40960015 56.63557929 85.8596997 56.6649456 87.30954933 C56.8809336 98.58031672 56.8809336 98.58031672 54.81298828 101.91294861 C53.30053711 103.22363281 53.30053711 103.22363281 50 105 C49.11328613 105.568396 48.22657227 106.13679199 47.31298828 106.72241211 C46.40790527 107.23553955 45.50282227 107.74866699 44.5703125 108.27734375 C43.5388208 108.86700928 42.5073291 109.4566748 41.44458008 110.06420898 C40.34911865 110.68239502 39.25365723 111.30058105 38.125 111.9375 C35.79751492 113.25927147 33.47058816 114.58197217 31.14453125 115.90625 C30.55381332 116.24180405 29.9630954 116.57735809 29.35447693 116.92308044 C25.26502187 119.25400198 21.22524165 121.6548021 17.19921875 124.09375 C15.58732666 125.06260132 15.58732666 125.06260132 13.94287109 126.05102539 C11.89826397 127.28317944 9.86045349 128.52670252 7.83056641 129.78295898 C-1.281113 135.23461431 -1.281113 135.23461431 -7 134 C-10.73775456 132.27322854 -14.19104064 130.16753931 -17.6875 128 C-19.80997201 126.71802024 -21.93372696 125.43816276 -24.05859375 124.16015625 C-25.17733887 123.48355957 -26.29608398 122.80696289 -27.44873047 122.10986328 C-31.14593126 119.89551289 -34.8970684 117.78346569 -38.66015625 115.68359375 C-39.29463181 115.32810455 -39.92910736 114.97261536 -40.58280945 114.60635376 C-44.33685093 112.50324379 -44.33685093 112.50324379 -48.10067749 110.41772461 C-49.84841802 109.45331565 -51.58843104 108.47494333 -53.328125 107.49609375 C-54.3274707 106.94107178 -55.32681641 106.3860498 -56.35644531 105.81420898 C-59.32430643 103.77743618 -60.99567704 101.99188899 -63 99 C-63.52139282 95.96472168 -63.52139282 95.96472168 -63.54931641 92.54492188 C-63.57791245 90.61767273 -63.57791245 90.61767273 -63.60708618 88.65148926 C-63.60656335 87.25724172 -63.60468934 85.86299413 -63.6015625 84.46875 C-63.60934229 83.03055326 -63.61801284 81.59236108 -63.62753296 80.1541748 C-63.64242961 77.14478636 -63.64189508 74.13586732 -63.63134766 71.12646484 C-63.61974808 67.27570999 -63.65364978 63.42687606 -63.700037 59.5764389 C-63.72954205 56.60802035 -63.7312517 53.64006326 -63.72501755 50.67152405 C-63.72604211 49.25216358 -63.73648335 47.83277665 -63.75664139 46.41355896 C-63.89435656 35.36409557 -63.89435656 35.36409557 -61.73214722 32.0662384 C-60.16210938 30.72387695 -60.16210938 30.72387695 -57 29 C-55.90429688 28.30261719 -54.80859375 27.60523437 -53.6796875 26.88671875 C-52.41496392 26.14761429 -51.14647294 25.41493225 -49.875 24.6875 C-48.82070801 24.07539673 -48.82070801 24.07539673 -47.74511719 23.45092773 C-45.16802036 21.95913739 -42.58458245 20.47878486 -40 19 C-38.86272461 18.34870117 -37.72544922 17.69740234 -36.55371094 17.02636719 C-31.54987055 14.1618595 -26.54500237 11.29918202 -21.53466797 8.44604492 C-20.94231354 8.10856232 -20.34995911 7.77107971 -19.73965454 7.42337036 C-18.11610292 6.49863596 -16.49214677 5.5746119 -14.86816406 4.65063477 C-12.99783812 3.57425804 -11.14556707 2.46568798 -9.31591797 1.3215332 C-5.83079072 -0.66718636 -4.0010769 -0.59658204 0 0 Z " fill="#FDFDFD" transform="translate(140,72)"/>
<path d="M0 0 C3.58764648 0.99609375 3.58764648 0.99609375 5.73779297 3.44311523 C6.62059937 5.04521851 6.62059937 5.04521851 7.52124023 6.6796875 C7.85038925 7.25963974 8.17953827 7.83959198 8.5186615 8.43711853 C9.21194164 9.66294962 9.89499677 10.89461354 10.56829834 12.13153076 C11.55507176 13.93650898 12.57330639 15.71852016 13.60766602 17.49658203 C15.64643519 21.0034576 17.65029649 24.52941819 19.65014648 28.05859375 C20.6609729 29.83832067 21.67246964 31.61765917 22.68515015 33.39633179 C23.67226479 35.13330778 24.65367728 36.87352027 25.63500977 38.61376953 C26.94105002 40.87607031 28.2891133 43.11460463 29.67700195 45.32763672 C30.32685059 46.37193848 30.97669922 47.41624023 31.64624023 48.4921875 C32.23590576 49.41056396 32.82557129 50.32894043 33.43310547 51.27514648 C34.89157025 54.71236154 34.74619396 56.46835454 33.58764648 59.99609375 C30.37901889 63.15921325 27.90331713 63.37455487 23.48974609 63.38427734 C22.25844467 63.39373383 21.02714325 63.40319031 19.75852966 63.41293335 C18.41901324 63.40756406 17.07949975 63.40141121 15.73999023 63.39453125 C14.36283718 63.39655286 12.98568516 63.39946503 11.60853577 63.40322876 C8.72606182 63.4076466 5.84386721 63.40123785 2.96142578 63.38720703 C-0.73321493 63.37009891 -4.42720263 63.37996933 -8.1218195 63.39792442 C-10.96399358 63.40876342 -13.80601271 63.40531577 -16.64819145 63.39754105 C-18.01055415 63.39554017 -19.37293092 63.39799441 -20.73527718 63.40497971 C-22.63813127 63.41259689 -24.54103472 63.39892859 -26.44384766 63.38427734 C-27.52654434 63.38189056 -28.60924103 63.37950378 -29.7247467 63.37704468 C-32.41235352 62.99609375 -32.41235352 62.99609375 -34.25169373 61.66152954 C-35.74781593 59.51473727 -35.98584756 57.68456743 -35.86254883 55.09326172 C-34.87322164 50.48462802 -32.18285086 46.55985278 -29.78735352 42.55859375 C-29.20920898 41.56738525 -28.63106445 40.57617676 -28.03540039 39.55493164 C-26.80611404 37.45005934 -25.57058666 35.34882146 -24.3293457 33.25097656 C-22.39651932 29.96920869 -20.49800921 26.66967752 -18.60766602 23.36328125 C-17.37641704 21.21975224 -16.14466086 19.07651448 -14.91235352 16.93359375 C-14.33791504 15.92949463 -13.76347656 14.92539551 -13.17163086 13.89086914 C-11.62647854 11.23067946 -10.0441613 8.60388107 -8.41235352 5.99609375 C-7.9934082 5.32078613 -7.57446289 4.64547852 -7.14282227 3.94970703 C-4.89422763 0.76267204 -3.97218623 -0.00454711 0 0 Z " fill="#140A25" transform="translate(137.412353515625,99.00390625)"/>
</svg>
