<svg width="30" height="29" viewBox="0 0 30 29" fill="none" xmlns="http://www.w3.org/2000/svg">
<path fill-rule="evenodd" clip-rule="evenodd" d="M18.3568 0.114989C14.773 0.686318 11.7996 3.19396 10.6553 6.61032C10.453 7.21413 10.2553 8.05555 10.2159 8.48L10.1441 9.25178L9.51743 9.32199C6.11758 9.70235 3.3096 11.6533 1.76448 14.7084C0.87707 16.4629 0.575167 18.9791 1.00721 21.0193C1.66894 24.1441 3.8884 26.7708 6.88947 27.981C8.16405 28.4948 9.00737 28.6149 10.9311 28.5564C12.9091 28.4961 13.8167 28.2445 15.3535 27.3299C17.6942 25.9371 19.3415 23.7023 19.9278 21.1243C20.0266 20.6902 20.1082 20.169 20.109 19.9663C20.1116 19.4308 20.2105 19.3414 20.8908 19.2598C24.4257 18.836 27.5671 16.368 28.8141 13.035C29.3657 11.5608 29.5388 9.24698 29.2127 7.70856C28.2923 3.36695 24.5603 0.214657 20.1632 0.0646536C19.4879 0.041662 18.6751 0.0643188 18.3568 0.114989ZM21.7521 2.30912C24.1256 2.9252 26.15 4.8229 26.9931 7.22205C27.2737 8.02062 27.3025 8.24607 27.3042 9.6644C27.3058 11.0025 27.269 11.3392 27.0476 12.0082C26.3752 14.0392 24.8598 15.7185 22.8675 16.6409C22.1937 16.9527 20.4642 17.3728 20.2068 17.287C20.1371 17.2638 19.9605 16.8307 19.8144 16.3248C19.305 14.5604 18.4399 13.1753 17.0085 11.832C15.7428 10.6442 14.1545 9.80604 12.49 9.44732C12.2456 9.39464 12.1836 9.31908 12.185 9.07633C12.1894 8.40043 12.5395 7.15676 12.9778 6.26032C13.3582 5.48206 13.6243 5.13094 14.4586 4.30592C15.7959 2.98324 16.9103 2.4003 18.6047 2.13679C19.4326 2.00811 20.9021 2.08858 21.7521 2.30912ZM12.4621 11.6817C15.0877 12.384 17.2716 14.6771 17.832 17.3201C18.0679 18.4331 17.9906 20.3296 17.6687 21.3276C17.3347 22.363 16.7034 23.381 15.8662 24.2345C14.8704 25.2495 14.0985 25.7373 12.8528 26.1386C10.9346 26.7565 8.63047 26.5737 6.93333 25.6691C5.20964 24.7504 3.76318 22.9679 3.18381 21.0486C3.03638 20.5598 2.9808 20.0019 2.97856 18.9838C2.97566 17.7422 3.01082 17.4805 3.29743 16.6058C4.35192 13.3888 7.38758 11.2835 10.7322 11.4498C11.3153 11.4788 12.0938 11.5832 12.4621 11.6817ZM9.8758 14.8989C9.70225 15.0462 9.3355 15.5929 9.06083 16.1135L8.56149 17.0604L7.58513 17.5821C6.52518 18.1485 6.1562 18.5103 6.1562 18.9838C6.1562 19.4499 6.48712 19.7714 7.56727 20.3546L8.5558 20.8884L9.0807 21.8672C9.63428 22.8995 9.84388 23.1488 10.2661 23.2777C10.7196 23.4161 11.1229 23.1456 11.527 22.4321C12.4043 20.8825 12.4321 20.8515 13.4092 20.3343C13.9196 20.0642 14.43 19.7503 14.5436 19.6367C14.7875 19.3928 14.8217 18.6778 14.6036 18.3796C14.523 18.2695 13.9896 17.9208 13.4182 17.605L12.3792 17.0306L11.8292 16.0261C11.5267 15.4737 11.1687 14.9349 11.0336 14.8288C10.6888 14.5581 10.2456 14.5849 9.8758 14.8989ZM10.8413 18.4295C10.8427 18.4624 10.9945 18.5782 11.1786 18.687C11.5869 18.9282 11.5955 19.0138 11.2306 19.209C11.075 19.2923 10.8443 19.5278 10.7179 19.7324L10.488 20.1043L10.1698 19.6652C9.99478 19.4236 9.74846 19.1932 9.62223 19.1532C9.30939 19.0539 9.33372 18.9552 9.72826 18.7222C9.91275 18.6132 10.1446 18.3677 10.2433 18.1765L10.423 17.8291L10.631 18.0995C10.7452 18.2483 10.84 18.3967 10.8413 18.4295Z" fill="#A8A7A1"/>
</svg>
