<svg width="597" height="13" viewBox="0 0 597 13" fill="none" xmlns="http://www.w3.org/2000/svg">
<path d="M295.856 12.24C294.709 12.24 293.736 11.9867 292.936 11.48C292.136 10.9733 291.525 10.2693 291.104 9.368C290.688 8.46667 290.48 7.424 290.48 6.24C290.48 5.056 290.688 4.01333 291.104 3.112C291.525 2.21067 292.136 1.50667 292.936 0.999999C293.736 0.493333 294.709 0.24 295.856 0.24C297.008 0.24 297.984 0.493333 298.784 0.999999C299.584 1.50667 300.192 2.21067 300.608 3.112C301.024 4.01333 301.232 5.056 301.232 6.24C301.232 7.424 301.024 8.46667 300.608 9.368C300.192 10.2693 299.584 10.9733 298.784 11.48C297.984 11.9867 297.008 12.24 295.856 12.24ZM295.856 10.88C296.715 10.8853 297.429 10.6933 298 10.304C298.576 9.90933 299.005 9.36267 299.288 8.664C299.576 7.96533 299.72 7.15733 299.72 6.24C299.72 5.31733 299.576 4.50933 299.288 3.816C299.005 3.12267 298.576 2.58133 298 2.192C297.429 1.80267 296.715 1.60533 295.856 1.6C294.997 1.59467 294.283 1.78667 293.712 2.176C293.147 2.56533 292.72 3.10933 292.432 3.808C292.144 4.50667 291.997 5.31733 291.992 6.24C291.987 7.15733 292.128 7.96267 292.416 8.656C292.704 9.34933 293.133 9.89333 293.704 10.288C294.28 10.6773 294.997 10.8747 295.856 10.88ZM302.839 12V3.36H304.111V5.448L303.903 5.176C304.004 4.90933 304.135 4.664 304.295 4.44C304.46 4.216 304.644 4.032 304.847 3.888C305.071 3.70667 305.324 3.568 305.607 3.472C305.889 3.376 306.177 3.32 306.471 3.304C306.764 3.28267 307.039 3.30133 307.295 3.36V4.696C306.996 4.616 306.668 4.59467 306.311 4.632C305.953 4.66933 305.623 4.8 305.319 5.024C305.041 5.22133 304.825 5.46133 304.671 5.744C304.521 6.02667 304.417 6.33333 304.359 6.664C304.3 6.98933 304.271 7.32267 304.271 7.664V12H302.839Z" fill="#2C2C2C" fill-opacity="0.7"/>
<path d="M0 7L283.5 6.5" stroke="#F0E4E4"/>
<path d="M314 6H597" stroke="#F0E4E4"/>
</svg>
