<svg width="84" height="23" viewBox="0 0 84 23" fill="none" xmlns="http://www.w3.org/2000/svg">
<rect x="0.5" y="0.5" width="83" height="22" rx="7.5" fill="#22C55E" fill-opacity="0.1"/>
<rect x="0.5" y="0.5" width="83" height="22" rx="7.5" stroke="#22C55E"/>
<path d="M14.446 16.18C13.582 16.18 12.846 15.992 12.238 15.616C11.63 15.236 11.164 14.708 10.84 14.032C10.52 13.356 10.36 12.572 10.36 11.68C10.36 10.788 10.52 10.004 10.84 9.328C11.164 8.652 11.63 8.126 12.238 7.75C12.846 7.37 13.582 7.18 14.446 7.18C15.442 7.18 16.266 7.432 16.918 7.936C17.574 8.44 18.03 9.118 18.286 9.97L17.014 10.312C16.846 9.708 16.546 9.234 16.114 8.89C15.686 8.546 15.13 8.374 14.446 8.374C13.834 8.374 13.324 8.512 12.916 8.788C12.508 9.064 12.2 9.45 11.992 9.946C11.788 10.442 11.686 11.02 11.686 11.68C11.682 12.34 11.782 12.918 11.986 13.414C12.194 13.91 12.502 14.296 12.91 14.572C13.322 14.848 13.834 14.986 14.446 14.986C15.13 14.986 15.686 14.814 16.114 14.47C16.546 14.122 16.846 13.648 17.014 13.048L18.286 13.39C18.03 14.242 17.574 14.92 16.918 15.424C16.266 15.928 15.442 16.18 14.446 16.18ZM22.4196 16.18C21.7716 16.18 21.2096 16.034 20.7336 15.742C20.2576 15.45 19.8896 15.048 19.6296 14.536C19.3736 14.02 19.2456 13.426 19.2456 12.754C19.2456 12.078 19.3776 11.484 19.6416 10.972C19.9056 10.456 20.2756 10.056 20.7516 9.772C21.2276 9.484 21.7836 9.34 22.4196 9.34C23.0676 9.34 23.6296 9.486 24.1056 9.778C24.5816 10.07 24.9496 10.472 25.2096 10.984C25.4696 11.496 25.5996 12.086 25.5996 12.754C25.5996 13.43 25.4676 14.026 25.2036 14.542C24.9436 15.054 24.5756 15.456 24.0996 15.748C23.6236 16.036 23.0636 16.18 22.4196 16.18ZM22.4196 14.998C23.0396 14.998 23.5016 14.79 23.8056 14.374C24.1136 13.954 24.2676 13.414 24.2676 12.754C24.2676 12.078 24.1116 11.538 23.7996 11.134C23.4916 10.726 23.0316 10.522 22.4196 10.522C21.9996 10.522 21.6536 10.618 21.3816 10.81C21.1096 10.998 20.9076 11.26 20.7756 11.596C20.6436 11.928 20.5776 12.314 20.5776 12.754C20.5776 13.434 20.7336 13.978 21.0456 14.386C21.3576 14.794 21.8156 14.998 22.4196 14.998ZM34.6821 16L34.6881 11.962C34.6881 11.494 34.5681 11.13 34.3281 10.87C34.0881 10.606 33.7721 10.474 33.3801 10.474C33.1401 10.474 32.9201 10.53 32.7201 10.642C32.5241 10.75 32.3641 10.914 32.2401 11.134C32.1201 11.35 32.0601 11.622 32.0601 11.95L31.4541 11.644C31.4461 11.188 31.5421 10.788 31.7421 10.444C31.9461 10.1 32.2221 9.834 32.5701 9.646C32.9181 9.454 33.3081 9.358 33.7401 9.358C34.4401 9.358 34.9821 9.568 35.3661 9.988C35.7501 10.408 35.9421 10.966 35.9421 11.662L35.9361 16H34.6821ZM26.9121 16V9.52H28.0281V11.392H28.1721V16H26.9121ZM30.8001 16L30.8061 11.986C30.8061 11.514 30.6861 11.144 30.4461 10.876C30.2101 10.608 29.8921 10.474 29.4921 10.474C29.0961 10.474 28.7761 10.61 28.5321 10.882C28.2921 11.154 28.1721 11.51 28.1721 11.95L27.5721 11.566C27.5721 11.142 27.6741 10.764 27.8781 10.432C28.0821 10.1 28.3581 9.838 28.7061 9.646C29.0541 9.454 29.4481 9.358 29.8881 9.358C30.3481 9.358 30.7401 9.456 31.0641 9.652C31.3881 9.844 31.6341 10.114 31.8021 10.462C31.9741 10.81 32.0601 11.214 32.0601 11.674L32.0541 16H30.8001ZM40.5422 16.18C39.9222 16.18 39.4022 16.03 38.9822 15.73C38.5622 15.426 38.2442 15.016 38.0282 14.5C37.8122 13.984 37.7042 13.402 37.7042 12.754C37.7042 12.106 37.8102 11.524 38.0222 11.008C38.2382 10.492 38.5542 10.086 38.9702 9.79C39.3902 9.49 39.9062 9.34 40.5182 9.34C41.1262 9.34 41.6502 9.49 42.0902 9.79C42.5342 10.086 42.8762 10.492 43.1162 11.008C43.3562 11.52 43.4762 12.102 43.4762 12.754C43.4762 13.402 43.3562 13.986 43.1162 14.506C42.8802 15.022 42.5422 15.43 42.1022 15.73C41.6662 16.03 41.1462 16.18 40.5422 16.18ZM37.4942 18.88V9.52H38.6102V14.182H38.7542V18.88H37.4942ZM40.3682 15.046C40.7682 15.046 41.0982 14.944 41.3582 14.74C41.6222 14.536 41.8182 14.262 41.9462 13.918C42.0782 13.57 42.1442 13.182 42.1442 12.754C42.1442 12.33 42.0782 11.946 41.9462 11.602C41.8182 11.258 41.6202 10.984 41.3522 10.78C41.0842 10.576 40.7422 10.474 40.3262 10.474C39.9342 10.474 39.6102 10.57 39.3542 10.762C39.1022 10.954 38.9142 11.222 38.7902 11.566C38.6702 11.91 38.6102 12.306 38.6102 12.754C38.6102 13.202 38.6702 13.598 38.7902 13.942C38.9102 14.286 39.1002 14.556 39.3602 14.752C39.6202 14.948 39.9562 15.046 40.3682 15.046ZM44.9209 16V7.18H46.1749V16H44.9209ZM50.8507 16.18C50.2067 16.18 49.6407 16.04 49.1527 15.76C48.6687 15.476 48.2907 15.082 48.0187 14.578C47.7507 14.07 47.6167 13.482 47.6167 12.814C47.6167 12.106 47.7487 11.492 48.0127 10.972C48.2807 10.452 48.6527 10.05 49.1287 9.766C49.6047 9.482 50.1587 9.34 50.7907 9.34C51.4507 9.34 52.0127 9.494 52.4767 9.802C52.9407 10.106 53.2867 10.54 53.5147 11.104C53.7467 11.668 53.8387 12.338 53.7907 13.114H52.5367V12.658C52.5287 11.906 52.3847 11.35 52.1047 10.99C51.8287 10.63 51.4067 10.45 50.8387 10.45C50.2107 10.45 49.7387 10.648 49.4227 11.044C49.1067 11.44 48.9487 12.012 48.9487 12.76C48.9487 13.472 49.1067 14.024 49.4227 14.416C49.7387 14.804 50.1947 14.998 50.7907 14.998C51.1827 14.998 51.5207 14.91 51.8047 14.734C52.0927 14.554 52.3167 14.298 52.4767 13.966L53.7067 14.356C53.4547 14.936 53.0727 15.386 52.5607 15.706C52.0487 16.022 51.4787 16.18 50.8507 16.18ZM48.5407 13.114V12.136H53.1667V13.114H48.5407ZM58.8449 16C58.4369 16.08 58.0369 16.114 57.6449 16.102C57.2529 16.09 56.9029 16.014 56.5949 15.874C56.2869 15.734 56.0549 15.514 55.8989 15.214C55.7589 14.946 55.6829 14.674 55.6709 14.398C55.6629 14.118 55.6589 13.802 55.6589 13.45V7.72H56.9189V13.39C56.9189 13.65 56.9209 13.876 56.9249 14.068C56.9329 14.26 56.9749 14.422 57.0509 14.554C57.1949 14.802 57.4229 14.944 57.7349 14.98C58.0509 15.012 58.4209 14.998 58.8449 14.938V16ZM54.4169 10.528V9.52H58.8449V10.528H54.4169ZM62.7921 16.18C62.1481 16.18 61.5821 16.04 61.0941 15.76C60.6101 15.476 60.2321 15.082 59.9601 14.578C59.6921 14.07 59.5581 13.482 59.5581 12.814C59.5581 12.106 59.6901 11.492 59.9541 10.972C60.2221 10.452 60.5941 10.05 61.0701 9.766C61.5461 9.482 62.1001 9.34 62.7321 9.34C63.3921 9.34 63.9541 9.494 64.4181 9.802C64.8821 10.106 65.2281 10.54 65.4561 11.104C65.6881 11.668 65.7801 12.338 65.7321 13.114H64.4781V12.658C64.4701 11.906 64.3261 11.35 64.0461 10.99C63.7701 10.63 63.3481 10.45 62.7801 10.45C62.1521 10.45 61.6801 10.648 61.3641 11.044C61.0481 11.44 60.8901 12.012 60.8901 12.76C60.8901 13.472 61.0481 14.024 61.3641 14.416C61.6801 14.804 62.1361 14.998 62.7321 14.998C63.1241 14.998 63.4621 14.91 63.7461 14.734C64.0341 14.554 64.2581 14.298 64.4181 13.966L65.6481 14.356C65.3961 14.936 65.0141 15.386 64.5021 15.706C63.9901 16.022 63.4201 16.18 62.7921 16.18ZM60.4821 13.114V12.136H65.1081V13.114H60.4821ZM69.6523 16.18C69.0483 16.18 68.5263 16.03 68.0863 15.73C67.6503 15.43 67.3123 15.022 67.0723 14.506C66.8363 13.986 66.7183 13.402 66.7183 12.754C66.7183 12.102 66.8383 11.52 67.0783 11.008C67.3183 10.492 67.6583 10.086 68.0983 9.79C68.5423 9.49 69.0683 9.34 69.6763 9.34C70.2883 9.34 70.8023 9.49 71.2183 9.79C71.6383 10.086 71.9543 10.492 72.1663 11.008C72.3823 11.524 72.4903 12.106 72.4903 12.754C72.4903 13.402 72.3823 13.984 72.1663 14.5C71.9503 15.016 71.6323 15.426 71.2123 15.73C70.7923 16.03 70.2723 16.18 69.6523 16.18ZM69.8263 15.046C70.2383 15.046 70.5743 14.948 70.8343 14.752C71.0943 14.556 71.2843 14.286 71.4043 13.942C71.5243 13.598 71.5843 13.202 71.5843 12.754C71.5843 12.306 71.5223 11.91 71.3983 11.566C71.2783 11.222 71.0903 10.954 70.8343 10.762C70.5823 10.57 70.2603 10.474 69.8683 10.474C69.4523 10.474 69.1103 10.576 68.8423 10.78C68.5743 10.984 68.3743 11.258 68.2423 11.602C68.1143 11.946 68.0503 12.33 68.0503 12.754C68.0503 13.182 68.1143 13.57 68.2423 13.918C68.3743 14.262 68.5703 14.536 68.8303 14.74C69.0943 14.944 69.4263 15.046 69.8263 15.046ZM71.5843 16V11.338H71.4403V7.36H72.7003V16H71.5843Z" fill="#22C55E"/>
</svg>
