<svg width="34" height="34" viewBox="0 0 34 34" fill="none" xmlns="http://www.w3.org/2000/svg">
<path d="M31.9718 16.7238C31.9718 24.8864 25.3547 31.5034 17.1922 31.5034C9.02956 31.5034 2.41248 24.8864 2.41248 16.7238C2.41248 8.56118 9.02956 1.94409 17.1922 1.94409C25.3547 1.94409 31.9718 8.56118 31.9718 16.7238Z" fill="#88E273"/>
<path d="M17.1922 32.4435C25.8739 32.4435 32.9118 25.4055 32.9118 16.7238C32.9118 8.04203 25.8739 1.00409 17.1922 1.00409C8.51041 1.00409 1.47247 8.04203 1.47247 16.7238C1.47247 25.4055 8.51041 32.4435 17.1922 32.4435Z" stroke="#88E273" stroke-opacity="0.7" stroke-width="1.88001"/>
<path fill-rule="evenodd" clip-rule="evenodd" d="M16.0822 7.86444C15.1639 9.75058 13.4158 13.3272 12.1972 15.8127C10.9788 18.2981 9.98195 20.3992 9.98195 20.4815C9.98195 20.5641 11.7455 22.559 13.901 24.9147L17.82 29.1977L19.4524 27.3765C20.3501 26.3749 22.093 24.4236 23.3255 23.0403L25.5663 20.5252L24.5822 18.4711C24.0409 17.3412 23.3329 15.8561 23.0087 15.1707C21.1841 11.3126 17.946 4.63246 17.8563 4.54135C17.7988 4.48305 17.0004 5.97845 16.0822 7.86444ZM17.2877 11.7091V15.6553H16.0549H14.8223L14.7799 16.2438C14.7377 16.8293 14.7347 16.8324 14.1517 16.8747C13.5688 16.9172 13.5659 16.92 13.5659 17.4632V18.0092H14.1862H14.8065V18.6322V19.2553H16.0547H17.3028L17.2608 19.913L17.2187 20.5707L15.3923 20.6093L13.5659 20.648V21.1978V21.7476H15.4268H17.2877V24.4477C17.2877 25.9327 17.2411 27.143 17.1843 27.1371C17.1275 27.1313 15.7007 25.6077 14.0136 23.751L10.9463 20.3755L13.9791 14.1864C15.6472 10.7823 17.012 7.94447 17.012 7.88009C17.012 7.8157 17.074 7.76295 17.1498 7.76295C17.2385 7.76295 17.2877 9.17069 17.2877 11.7091ZM20.6086 12.2025C24.176 19.6463 24.466 20.2748 24.4022 20.4249C24.3504 20.5469 19.2004 26.3742 18.5877 27.0042C18.4165 27.1802 18.3904 26.8471 18.3904 24.4773V21.7476H19.631H20.8716V21.1246V20.5015H21.4919H22.1122V19.9476V19.3938H21.4919H20.8716V18.7761V18.1584L19.6655 18.1184L18.4593 18.0784L18.4173 17.4207L18.3753 16.763H19.6234H20.8716V16.2091V15.6553H19.631H18.3904V11.686C18.3904 9.50301 18.4202 7.74661 18.4564 7.78317C18.4928 7.81972 19.4613 9.80831 20.6086 12.2025ZM17.2608 17.4207L17.2187 18.0784H16.5984H15.9781L15.9361 17.4207L15.8941 16.763H16.5984H17.3028L17.2608 17.4207ZM19.742 19.913L19.6999 20.5707H19.0796H18.4593L18.4173 19.913L18.3753 19.2553H19.0796H19.784L19.742 19.913Z" fill="#58BA42"/>
<path fill-rule="evenodd" clip-rule="evenodd" d="M15.0917 7.71947C14.1734 9.6056 12.4252 13.1822 11.2067 15.6678C9.98831 18.1532 8.99142 20.2542 8.99142 20.3366C8.99142 20.4191 10.755 22.4141 12.9105 24.7697L16.8295 29.0528L18.4618 27.2316C19.3596 26.2299 21.1025 24.2786 22.335 22.8953L24.5758 20.3802L23.5917 18.3261C23.0504 17.1962 22.3424 15.7111 22.0182 15.0257C20.1936 11.1676 16.9555 4.48748 16.8657 4.39637C16.8083 4.33808 16.0099 5.83347 15.0917 7.71947ZM16.2971 11.5641V15.5103H15.0644H13.8318L13.7893 16.0988C13.7472 16.6843 13.7441 16.6874 13.1612 16.7298C12.5783 16.7723 12.5754 16.775 12.5754 17.3182V17.8642H13.1957H13.816V18.4873V19.1103H15.0641H16.3123L16.2703 19.768L16.2282 20.4257L14.4018 20.4644L12.5754 20.503V21.0528V21.6027H14.4363H16.2971V24.3027C16.2971 25.7877 16.2505 26.998 16.1938 26.9922C16.137 26.9864 14.7101 25.4627 13.0231 23.6061L9.95578 20.2305L12.9886 14.0414C14.6567 10.6373 16.0215 7.7995 16.0215 7.73511C16.0215 7.67073 16.0835 7.61797 16.1593 7.61797C16.2479 7.61797 16.2971 9.02572 16.2971 11.5641ZM19.6181 12.0575C23.1855 19.5014 23.4755 20.1298 23.4117 20.2799C23.3598 20.4019 18.2099 26.2292 17.5971 26.8592C17.4259 27.0352 17.3999 26.7021 17.3999 24.3323V21.6027H18.6405H19.8811V20.9796V20.3565H20.5014H21.1217V19.8027V19.2488H20.5014H19.8811V18.6311V18.0134L18.6749 17.9734L17.4688 17.9334L17.4268 17.2757L17.3847 16.618H18.6329H19.8811V16.0642V15.5103H18.6405H17.3999V11.541C17.3999 9.35803 17.4297 7.60163 17.4659 7.63819C17.5023 7.67474 18.4708 9.66334 19.6181 12.0575ZM16.2703 17.2757L16.2282 17.9334H15.6079H14.9876L14.9456 17.2757L14.9035 16.618H15.6079H16.3123L16.2703 17.2757ZM18.7514 19.768L18.7094 20.4257H18.0891H17.4688L17.4268 19.768L17.3847 19.1103H18.0891H18.7935L18.7514 19.768Z" fill="#58BA42" fill-opacity="0.52"/>
</svg>
