<svg width="52" height="52" viewBox="0 0 52 52" fill="none" xmlns="http://www.w3.org/2000/svg">
<rect x="1.29441" y="1.60508" width="49.7285" height="49.7285" stroke="#88E273" stroke-width="1.31978"/>
<path fill-rule="evenodd" clip-rule="evenodd" d="M23.2087 19.634C21.4123 19.634 20.0537 19.937 18.5652 20.668C18.4799 20.7098 18.4085 20.7754 18.3596 20.8569C17.3375 22.5608 15.3384 27.3036 15.3384 32.9151C15.3382 33.0427 15.3875 33.1655 15.4761 33.2574C16.4127 34.2225 17.2637 34.9328 18.1766 35.4345C19.0945 35.9382 20.0507 36.2186 21.1821 36.3544C21.2764 36.3658 21.372 36.3497 21.4574 36.308C21.5428 36.2663 21.6142 36.2007 21.6631 36.1192L22.1649 35.2811C21.4339 35.0253 20.6872 34.6859 20.2268 34.2255C20.1564 34.1574 20.1002 34.0759 20.0616 33.9859C20.023 33.8959 20.0026 33.799 20.0018 33.7011C20.001 33.6031 20.0198 33.5059 20.0569 33.4153C20.094 33.3246 20.1489 33.2423 20.2182 33.173C20.2875 33.1038 20.3699 33.049 20.4606 33.012C20.5513 32.9749 20.6484 32.9563 20.7464 32.9572C20.8444 32.9581 20.9412 32.9785 21.0312 33.0172C21.1212 33.0559 21.2026 33.1122 21.2706 33.1827C21.5215 33.4335 22.1108 33.7188 22.943 33.9854C23.6307 34.1655 24.828 34.3907 26.16 34.3907C27.492 34.3907 28.6893 34.1655 29.377 33.9854C30.2092 33.7188 30.7985 33.4325 31.0494 33.1827C31.1169 33.1102 31.1984 33.052 31.2889 33.0117C31.3794 32.9714 31.4771 32.9497 31.5762 32.9479C31.6753 32.9462 31.7737 32.9644 31.8655 33.0015C31.9574 33.0386 32.0409 33.0939 32.1109 33.1639C32.181 33.234 32.2362 33.3175 32.2733 33.4093C32.3104 33.5012 32.3287 33.5996 32.3269 33.6987C32.3252 33.7977 32.3035 33.8954 32.2632 33.986C32.2228 34.0765 32.1647 34.1579 32.0922 34.2255C31.6328 34.6859 30.8861 35.0253 30.1541 35.2811L30.6569 36.1192C30.7056 36.2009 30.777 36.2667 30.8624 36.3086C30.9478 36.3505 31.0435 36.3667 31.1379 36.3554C32.2693 36.2186 33.2255 35.9382 34.1434 35.4345C35.0563 34.9328 35.9073 34.2225 36.8429 33.2574C36.9318 33.1657 36.9816 33.0429 36.9816 32.9151C36.9816 27.3036 34.9825 22.5608 33.9604 20.8569C33.9115 20.7754 33.8401 20.7098 33.7548 20.668C32.2663 19.937 30.9077 19.634 29.1113 19.634C29.0081 19.6341 28.9076 19.6666 28.8239 19.727C28.7402 19.7874 28.6776 19.8726 28.645 19.9705L28.3145 20.9621C27.6184 20.7368 26.8916 20.6206 26.16 20.6178C25.4284 20.6206 24.7016 20.7368 24.0055 20.9621L23.675 19.9705C23.6424 19.8726 23.5798 19.7874 23.4961 19.727C23.4124 19.6666 23.3119 19.6341 23.2087 19.634ZM24.1924 28.734C24.1924 29.6843 23.5313 30.4556 22.7168 30.4556C21.9022 30.4556 21.2411 29.6843 21.2411 28.734C21.2411 27.7837 21.9022 27.0124 22.7168 27.0124C23.5313 27.0124 24.1924 27.7837 24.1924 28.734ZM29.6032 30.4556C30.4178 30.4556 31.0789 29.6843 31.0789 28.734C31.0789 27.7837 30.4178 27.0124 29.6032 27.0124C28.7887 27.0124 28.1276 27.7837 28.1276 28.734C28.1276 29.6843 28.7887 30.4556 29.6032 30.4556Z" fill="#88E273"/>
</svg>
