<svg width="52" height="52" viewBox="0 0 52 52" fill="none" xmlns="http://www.w3.org/2000/svg">
<rect x="0.790261" y="0.785134" width="49.7285" height="49.7285" stroke="#F5D64E" stroke-width="1.31978"/>
<path fill-rule="evenodd" clip-rule="evenodd" d="M22.7047 18.814C20.9083 18.814 19.5497 19.117 18.0613 19.8479C17.9759 19.8897 17.9045 19.9553 17.8557 20.0368C16.8335 21.7407 14.8345 26.4835 14.8345 32.095C14.8342 32.2227 14.8836 32.3454 14.9722 32.4374C15.9088 33.4024 16.7597 34.1127 17.6727 34.6145C18.5905 35.1182 19.5468 35.3985 20.6781 35.5343C20.7725 35.5458 20.8681 35.5297 20.9535 35.4879C21.0388 35.4462 21.1103 35.3806 21.1592 35.2992L21.6609 34.461C20.93 34.2052 20.1833 33.8658 19.7229 33.4054C19.6524 33.3373 19.5963 33.2559 19.5576 33.1658C19.519 33.0758 19.4987 32.979 19.4979 32.881C19.4971 32.783 19.5158 32.6859 19.553 32.5952C19.5901 32.5046 19.6449 32.4222 19.7142 32.353C19.7835 32.2837 19.8659 32.229 19.9566 32.1919C20.0473 32.1548 20.1445 32.1362 20.2425 32.1371C20.3404 32.138 20.4373 32.1584 20.5273 32.1971C20.6173 32.2358 20.6986 32.2921 20.7667 32.3626C21.0175 32.6135 21.6068 32.8988 22.4391 33.1654C23.1268 33.3454 24.324 33.5707 25.6561 33.5707C26.9881 33.5707 28.1854 33.3454 28.873 33.1654C29.7053 32.8988 30.2946 32.6125 30.5455 32.3626C30.613 32.2901 30.6945 32.232 30.785 32.1916C30.8755 32.1513 30.9732 32.1296 31.0722 32.1279C31.1713 32.1261 31.2697 32.1443 31.3616 32.1815C31.4535 32.2186 31.5369 32.2738 31.607 32.3439C31.6771 32.4139 31.7323 32.4974 31.7694 32.5893C31.8065 32.6811 31.8247 32.7795 31.823 32.8786C31.8212 32.9777 31.7995 33.0754 31.7592 33.1659C31.7189 33.2564 31.6608 33.3379 31.5883 33.4054C31.1288 33.8658 30.3821 34.2052 29.6502 34.461L30.1529 35.2992C30.2017 35.3808 30.2731 35.4466 30.3585 35.4885C30.4439 35.5304 30.5396 35.5467 30.634 35.5353C31.7653 35.3985 32.7216 35.1182 33.6394 34.6145C34.5524 34.1127 35.4034 33.4024 36.3389 32.4374C36.4279 32.3456 36.4776 32.2228 36.4776 32.095C36.4776 26.4835 34.4786 21.7407 33.4565 20.0368C33.4076 19.9553 33.3362 19.8897 33.2508 19.8479C31.7624 19.117 30.4038 18.814 28.6074 18.814C28.5042 18.814 28.4037 18.8466 28.32 18.907C28.2363 18.9673 28.1737 19.0525 28.1411 19.1504L27.8105 20.1421C27.1145 19.9167 26.3877 19.8006 25.6561 19.7977C24.9244 19.8006 24.1976 19.9167 23.5016 20.1421L23.171 19.1504C23.1384 19.0525 23.0758 18.9673 22.9922 18.907C22.9085 18.8466 22.8079 18.814 22.7047 18.814ZM23.6885 27.9139C23.6885 28.8643 23.0274 29.6356 22.2128 29.6356C21.3983 29.6356 20.7372 28.8643 20.7372 27.9139C20.7372 26.9636 21.3983 26.1923 22.2128 26.1923C23.0274 26.1923 23.6885 26.9636 23.6885 27.9139ZM29.0993 29.6356C29.9139 29.6356 30.575 28.8643 30.575 27.9139C30.575 26.9636 29.9139 26.1923 29.0993 26.1923C28.2847 26.1923 27.6236 26.9636 27.6236 27.9139C27.6236 28.8643 28.2847 29.6356 29.0993 29.6356Z" fill="#F5D64E"/>
</svg>
