<svg width="79" height="63" viewBox="0 0 79 63" fill="none" xmlns="http://www.w3.org/2000/svg">
<path d="M26.9736 45.5513C21.5552 45.4858 15.654 38.8199 14.496 29.2467C13.338 19.6734 18.2313 11.9212 23.6497 11.9868C33.7952 12.1096 32.2389 19.0181 33.3969 28.5913C34.5549 38.1646 39.1458 45.6987 26.9736 45.5513Z" fill="#6E5B08"/>
<ellipse cx="17.3487" cy="10.5287" rx="17.3487" ry="10.5287" transform="matrix(0.145945 0.97686 -1.01487 0.0208306 36.0469 11.5513)" fill="#EBBD1A"/>
<ellipse cx="14.5602" cy="8.83635" rx="14.5602" ry="8.83635" transform="matrix(0.145945 0.97686 -1.01487 0.0208306 34.7363 14.3105)" fill="#6E5B08"/>
<ellipse cx="13.5641" cy="8.23181" rx="13.5641" ry="8.23181" transform="matrix(0.145945 0.97686 -1.01487 0.0208306 33.6523 15.3105)" fill="#EBBD1A"/>
<path fill-rule="evenodd" clip-rule="evenodd" d="M26.3868 22.0881C27.4315 22.7588 29.416 24.0276 30.797 24.9075C32.1779 25.7874 33.3284 26.547 33.3535 26.5954C33.3787 26.6438 33.086 28.6551 32.703 31.0648L32.0067 35.446L30.6168 35.1533C29.8524 34.9923 28.3664 34.6758 27.3145 34.4499L25.4021 34.0392L25.2784 32.3642C25.2103 31.4429 25.1191 30.2336 25.0757 29.6767C24.8313 26.542 24.4483 21.0769 24.4664 20.9806C24.478 20.919 25.3422 21.4174 26.3868 22.0881ZM26.9436 24.9202L28.1474 27.2381L28.7775 26.6513L29.4074 26.0646L29.6086 26.39C29.8088 26.7139 29.8113 26.7142 30.1221 26.4616C30.433 26.2091 30.4354 26.2094 30.6011 26.5284L30.7676 26.8491L30.4506 27.1444L30.1336 27.4396L30.3237 27.8056L30.5137 28.1716L29.8758 28.7657L29.2379 29.3599L29.46 29.7262L29.6822 30.0925L30.6274 29.2458L31.5726 28.3991L31.7404 28.722L31.9081 29.045L30.957 29.9308L30.006 30.8166L30.8297 32.4025C31.2827 33.2748 31.6757 33.9635 31.703 33.9331C31.7302 33.9026 31.9946 32.3285 32.2904 30.4349L32.8283 26.9921L29.3902 24.8004C27.4992 23.5949 25.936 22.5777 25.9164 22.5399C25.8968 22.502 25.849 22.5006 25.8102 22.5367C25.7649 22.5789 26.1692 23.4292 26.9436 24.9202ZM25.3968 26.7907C25.8445 32.8612 25.888 33.3684 25.9664 33.4262C26.0301 33.4732 30.4398 34.4446 30.9452 34.523C31.0864 34.5449 30.998 34.3368 30.2751 32.9448L29.4424 31.3415L28.8084 31.932L28.1743 32.5226L27.9842 32.1566L27.7942 31.7906L27.4771 32.0859L27.1601 32.3811L26.9912 32.0558L26.8222 31.7305L27.1392 31.4352L27.4562 31.14L27.2678 30.7771L27.0794 30.4143L27.6836 29.8167L28.2878 29.2191L28.1087 28.8127L27.9295 28.4064L27.2916 29.0006L26.6537 29.5947L26.4847 29.2694L26.3158 28.9441L26.9498 28.3535L27.5838 27.763L26.373 25.4315C25.707 24.1493 25.156 23.1318 25.1486 23.1705C25.1411 23.2093 25.2528 24.8384 25.3968 26.7907ZM28.6997 28.2622L28.9219 28.6285L29.2389 28.3333L29.5559 28.038L29.3767 27.6317L29.1976 27.2254L28.8376 27.5606L28.4776 27.8959L28.6997 28.2622ZM28.192 30.9072L28.4141 31.2735L28.7311 30.9783L29.0481 30.683L28.869 30.2767L28.6898 29.8704L28.3298 30.2056L27.9698 30.5409L28.192 30.9072Z" fill="#7C670A"/>
<path fill-rule="evenodd" clip-rule="evenodd" d="M25.9239 22.1794C26.9686 22.8502 28.9531 24.1189 30.3342 24.9988C31.7151 25.8787 32.8655 26.6383 32.8906 26.6867C32.9158 26.7351 32.6231 28.7464 32.2401 31.1561L31.5438 35.5373L30.1539 35.2446C29.3895 35.0836 27.9035 34.7671 26.8517 34.5412L24.9392 34.1305L24.8155 32.4556C24.7474 31.5342 24.6562 30.3249 24.6128 29.768C24.3684 26.6333 23.9854 21.1682 24.0035 21.0719C24.0151 21.0103 24.8793 21.5087 25.9239 22.1794ZM26.4807 25.0115L27.6845 27.3294L28.3146 26.7426L28.9445 26.1559L29.1457 26.4813C29.3459 26.8052 29.3484 26.8055 29.6592 26.5529C29.9701 26.3004 29.9725 26.3007 30.1382 26.6197L30.3047 26.9404L29.9877 27.2357L29.6707 27.5309L29.8608 27.8969L30.0508 28.2629L29.4129 28.857L28.775 29.4512L28.9972 29.8175L29.2193 30.1838L30.1645 29.3371L31.1097 28.4904L31.2775 28.8134L31.4452 29.1363L30.4941 30.0221L29.5431 30.9079L30.3668 32.4938C30.8198 33.3661 31.2128 34.0548 31.2401 34.0244C31.2673 33.9939 31.5317 32.4198 31.8276 30.5262L32.3654 27.0834L28.9273 24.8917C27.0364 23.6862 25.4731 22.669 25.4535 22.6312C25.4339 22.5933 25.3861 22.5919 25.3473 22.628C25.302 22.6702 25.7063 23.5205 26.4807 25.0115ZM24.934 26.882C25.3816 32.9525 25.4251 33.4597 25.5035 33.5175C25.5672 33.5645 29.9769 34.5359 30.4823 34.6143C30.6235 34.6362 30.5352 34.4281 29.8122 33.0362L28.9795 31.4328L28.3455 32.0233L27.7114 32.6139L27.5214 32.2479L27.3313 31.8819L27.0143 32.1772L26.6972 32.4724L26.5283 32.1471L26.3593 31.8218L26.6763 31.5265L26.9934 31.2313L26.8049 30.8685L26.6165 30.5056L27.2207 29.908L27.8249 29.3104L27.6458 28.9041L27.4666 28.4977L26.8287 29.0919L26.1908 29.686L26.0218 29.3607L25.8529 29.0354L26.4869 28.4448L27.121 27.8543L25.9101 25.5228C25.2441 24.2406 24.6931 23.2231 24.6857 23.2618C24.6783 23.3006 24.7899 24.9297 24.934 26.882ZM28.2368 28.3535L28.459 28.7199L28.776 28.4246L29.093 28.1293L28.9138 27.723L28.7347 27.3167L28.3747 27.652L28.0147 27.9872L28.2368 28.3535ZM27.7291 30.9985L27.9512 31.3648L28.2682 31.0696L28.5852 30.7743L28.4061 30.368L28.2269 29.9617L27.8669 30.297L27.507 30.6322L27.7291 30.9985Z" fill="#FFE485"/>
<path d="M47.3469 48.8935C51.2208 50.7114 57.7091 48.004 61.8265 41.5979C65.9438 35.1918 65.1333 27.9978 61.2594 26.1798C54.0058 22.776 52.7347 28.222 48.6174 34.6281C44.5 41.0343 38.6443 44.8096 47.3469 48.8935Z" fill="#6E5B08"/>
<ellipse cx="13.7004" cy="8.31455" rx="13.7004" ry="8.31455" transform="matrix(-0.557021 0.815648 0.904379 0.460972 52.5977 21.6035)" fill="#EBBD1A"/>
<ellipse cx="11.4983" cy="6.97813" rx="11.4983" ry="6.97813" transform="matrix(-0.557021 0.815648 0.904379 0.460972 52.5801 24.0161)" fill="#6E5B08"/>
<ellipse cx="10.7116" cy="6.50072" rx="10.7116" ry="6.50072" transform="matrix(-0.557021 0.815648 0.904379 0.460972 53.0078 25.1001)" fill="#EBBD1A"/>
<path fill-rule="evenodd" clip-rule="evenodd" d="M55.8376 32.4181C54.8642 32.5353 53.017 32.7542 51.7326 32.9045C50.4483 33.0547 49.3692 33.1987 49.3347 33.2245C49.3001 33.2503 48.8161 34.7806 48.2591 36.6252L47.2464 39.9789L48.335 40.2491C48.9337 40.3977 50.0989 40.6841 50.9243 40.8855L52.425 41.2517L53.0893 40.1037C53.4547 39.4722 53.9357 38.6441 54.1582 38.2631C55.4106 36.1191 57.5634 32.3663 57.5837 32.2917C57.5966 32.244 56.8109 32.3008 55.8376 32.4181ZM54.4672 34.2395L52.814 35.4728L52.5681 34.8389L52.3222 34.2051L52.0672 34.3672C51.8134 34.5285 51.8116 34.5279 51.6775 34.2414C51.5434 33.9549 51.5417 33.9543 51.3141 34.124L51.0854 34.2947L51.2091 34.6136L51.3329 34.9326L51.0718 35.1273L50.8108 35.3221L51.0597 35.9639L51.3087 36.6057L51.0248 36.7896L50.7408 36.9736L50.3603 36.0465L49.9798 35.1194L49.7495 35.2912L49.5191 35.4631L49.8903 36.4199L50.2615 37.3768L49.1303 38.2207C48.5082 38.6848 47.9918 39.0391 47.9829 39.008C47.974 38.977 48.3277 37.7672 48.7691 36.3194L49.5715 33.6872L52.7694 33.3124C54.5283 33.1063 55.9895 32.9212 56.0165 32.901C56.0434 32.8809 56.0779 32.8963 56.093 32.9353C56.1107 32.9809 55.5307 33.4462 54.4672 34.2395ZM54.923 36.1013C52.5159 40.2621 52.3104 40.6077 52.2348 40.6218C52.1734 40.6332 48.7047 39.8063 48.3185 39.6881C48.2106 39.6551 48.345 39.5376 49.3379 38.797L50.4815 37.9439L50.7289 38.5818L50.9764 39.2197L51.2374 39.025L51.4985 38.8302L51.6222 39.1492L51.746 39.4682L51.978 39.2951L52.21 39.122L52.0863 38.803L51.9626 38.4841L52.2214 38.291L52.4801 38.098L52.2563 37.4653L52.0325 36.8326L52.2997 36.6054L52.5668 36.3782L52.8158 37.02L53.0648 37.6619L53.2968 37.4888L53.5288 37.3157L53.2814 36.6777L53.0339 36.0398L54.6969 34.7993C55.6115 34.1171 56.3533 33.5834 56.3452 33.6135C56.3371 33.6436 55.6972 34.7631 54.923 36.1013ZM52.069 36.0107L51.785 36.1946L51.6613 35.8757L51.5376 35.5567L51.8047 35.3295L52.0719 35.1024L52.2124 35.4646L52.3529 35.8268L52.069 36.0107ZM51.5197 38.0655L51.2358 38.2494L51.112 37.9304L50.9883 37.6115L51.2555 37.3843L51.5226 37.1571L51.6631 37.5193L51.8036 37.8815L51.5197 38.0655Z" fill="#7C670A"/>
<path fill-rule="evenodd" clip-rule="evenodd" d="M56.1344 32.6417C55.161 32.759 53.3139 32.9779 52.0295 33.1281C50.7452 33.2783 49.6661 33.4224 49.6316 33.4481C49.597 33.4739 49.113 35.0042 48.556 36.8488L47.5433 40.2026L48.6319 40.4728C49.2306 40.6214 50.3958 40.9077 51.2212 41.1091L52.7219 41.4753L53.3862 40.3273C53.7516 39.6959 54.2326 38.8677 54.455 38.4868C55.7075 36.3428 57.8603 32.59 57.8805 32.5154C57.8935 32.4676 57.1077 32.5244 56.1344 32.6417ZM54.7641 34.4631L53.1108 35.6964L52.8649 35.0625L52.6191 34.4287L52.3641 34.5908C52.1103 34.7521 52.1084 34.7515 51.9744 34.465C51.8403 34.1785 51.8386 34.1779 51.611 34.3477L51.3823 34.5183L51.506 34.8373L51.6297 35.1562L51.3687 35.351L51.1076 35.5457L51.3566 36.1875L51.6056 36.8293L51.3217 37.0133L51.0377 37.1972L50.6572 36.2701L50.2767 35.343L50.0464 35.5149L49.816 35.6867L50.1872 36.6436L50.5584 37.6005L49.4272 38.4443C48.805 38.9084 48.2887 39.2627 48.2798 39.2317C48.2709 39.2007 48.6246 37.9908 49.066 36.543L49.8684 33.9108L53.0663 33.5361C54.8252 33.3299 56.2864 33.1448 56.3133 33.1247C56.3403 33.1046 56.3748 33.12 56.3899 33.1589C56.4076 33.2045 55.8276 33.6698 54.7641 34.4631ZM55.2199 36.325C52.8128 40.4858 52.6073 40.8313 52.5317 40.8454C52.4702 40.8569 49.0016 40.0299 48.6154 39.9118C48.5075 39.8787 48.6419 39.7612 49.6347 39.0206L50.7783 38.1675L51.0258 38.8054L51.2733 39.4433L51.5343 39.2486L51.7954 39.0539L51.9191 39.3728L52.0428 39.6918L52.2749 39.5187L52.5069 39.3456L52.3832 39.0266L52.2594 38.7077L52.5182 38.5146L52.777 38.3216L52.5532 37.6889L52.3294 37.0562L52.5965 36.829L52.8637 36.6019L53.1127 37.2437L53.3616 37.8855L53.5937 37.7124L53.8257 37.5393L53.5783 36.9014L53.3308 36.2635L54.9938 35.0229C55.9084 34.3407 56.6502 33.8071 56.6421 33.8371C56.634 33.8673 55.9941 34.9868 55.2199 36.325ZM52.3658 36.2343L52.0819 36.4183L51.9582 36.0993L51.8344 35.7803L52.1016 35.5532L52.3688 35.326L52.5093 35.6882L52.6498 36.0504L52.3658 36.2343ZM51.8166 38.2891L51.5326 38.473L51.4089 38.1541L51.2852 37.8351L51.5523 37.6079L51.8195 37.3808L51.96 37.743L52.1005 38.1052L51.8166 38.2891Z" fill="#FFE485"/>
</svg>
