<svg width="145" height="45" viewBox="0 0 145 45" fill="none" xmlns="http://www.w3.org/2000/svg">
<path d="M61.4067 24.265V27.3472H49.9982C49.9982 22.36 49.9982 17.3514 49.9982 12.3642H61.1071V15.425H53.2731V18.3146H60.6576V21.247H53.2731V24.265H61.4067ZM80.569 27.3472L79.4774 24.7787H71.7932L70.7016 27.3472H67.1057L73.8266 12.3642H77.4654L84.1864 27.3472H80.569ZM78.2145 21.8249L75.646 15.7461L73.0561 21.8249H78.2145ZM103.879 27.0904V27.3472H100.176L96.3449 22.4242H93.9262V27.3472H90.5871V12.3642C93.0272 12.3642 95.2747 12.3642 97.6934 12.3642C101.311 12.3642 103.237 14.7829 103.237 17.4156C103.216 19.3634 102.638 21.0971 99.7696 22.1246L103.879 27.0904ZM97.6934 15.2323H93.9262V19.5988H97.7362C99.2773 19.5988 99.9408 18.443 99.9408 17.5012C99.9194 16.4738 99.2559 15.2323 97.6934 15.2323ZM113.957 27.3472V15.3394H109.398V12.3642C113.765 12.3642 117.446 12.3642 121.834 12.3642V15.3394H117.275V27.3472H113.957ZM142.024 27.3686H138.727V21.4396H132.028V27.3686H128.689V12.3856H132.028V18.3788H138.727V12.3856H142.024V27.3686Z" fill="#88E272"/>
<path d="M29.3425 15.857L22.577 22.4514L27.6357 29.7785C25.7257 32.9128 22.5397 39.4258 25.0755 40.4027C32.4878 39.9142 37.7575 33.5498 40.0997 26.9571L40.6201 23.6726L40.1927 20.3754L37.3887 15.2465L29.3425 15.857Z" fill="url(#paint0_linear_285_212)"/>
<path d="M1.67142 17.4151C2.74814 13.9157 11.4876 19.5823 15.8726 23.4162C22.1189 21.7628 31.1362 20.9295 32.1704 27.055C33.3753 34.1917 28.5281 39.4277 26.1337 40.3159C10.5195 44.046 -2.14542 29.8197 1.67142 17.4151Z" fill="url(#paint1_linear_285_212)"/>
<path d="M1.41111 16.3739C1.84892 14.1388 3.85925 10.3898 4.68173 9.13408C1.97936 15.8441 10.3215 16.6682 15.4914 7.72144C20.1655 -0.367447 24.4211 1.12913 26.301 1.12913C27.805 1.12913 30.9226 2.93417 32.2934 3.83669C32.0192 3.91517 31.5649 4.28402 31.9409 5.13161C32.5049 6.26172 33.6642 5.91641 34.1733 5.60249L35.9358 7.486L35.4076 7.83926L31.1778 11.4886L29.8259 10.8999L29.4154 10.0759L30.2959 7.83916V6.54424C30.2959 6.3088 30.0029 6.26181 28.1229 6.07346C26.243 5.88511 22.0791 10.7748 20.16 13.3254C17.4576 17.2102 15.0807 21.8479 9.3234 22.9074C3.56613 23.9669 0.765479 19.6702 1.41111 16.3739Z" fill="url(#paint2_linear_285_212)"/>
<path opacity="0.05" d="M13.1071 30.0135C11.723 30.3849 10.6514 30.1294 9.37703 30.0135L21.6859 22.7679C23.0762 21.7253 30.1434 21.8411 31.8813 25.896C22.9604 20.5667 20.2202 28.1051 13.1071 30.0135Z" fill="black"/>
<path d="M26.7407 1.16442C14.8566 -1.40899 7.01206 5.55838 4.6206 9.17398C4.34617 9.8349 3.81725 11.2415 4.09952 12.3611C4.45236 13.7607 5.57039 15.0437 9.21639 13.994C12.1332 13.1542 15.4237 8.13254 16.6783 5.87765C20.6771 0.745821 23.4476 1.16442 26.7407 1.16442Z" fill="url(#paint3_radial_285_212)"/>
<path opacity="0.05" d="M38.7982 19.4967C34.164 16.9015 28.5563 20.142 26.3936 22.3046L23.4235 22.3046C22.9215 22.1502 23.0296 21.1693 27.4785 18.4814C33.0396 15.1216 36.1959 16.0269 38.7982 19.4967Z" fill="black"/>
<path fill-rule="evenodd" clip-rule="evenodd" d="M1.41095 16.1135C0.237625 20.6895 0.788449 29.4257 10.2689 29.9889C15.6958 29.9889 22.8999 22.9846 26.6512 19.3373C26.874 19.1206 27.0847 18.9158 27.2821 18.725C30.1763 16.6521 36.6687 14.0317 39.4846 20.133C40.5406 22.1276 40.4233 23.8876 39.954 27.2903C41.9286 22.142 41.0632 16.9514 39.447 13.0687C39.4579 13.0811 39.4683 13.091 39.478 13.0984L39.4309 13.0301C39.3713 12.8878 39.3108 12.7472 39.2493 12.6086C39.17 12.281 39.1283 11.7866 39.2177 11.1032C39.3044 10.4404 39.8913 10.1493 40.4974 9.84865C41.3457 9.42785 42.2316 8.98842 41.8362 7.48551C41.345 5.61843 37.5422 6.61117 35.8633 7.47573C35.8579 7.47083 35.8526 7.46595 35.8473 7.46109C34.2516 8.49362 32.6794 9.76863 32.0927 10.2771C31.3496 10.7855 29.8399 11.5208 29.7461 10.3944C29.6594 10.221 29.8129 9.74335 29.9996 9.16257C30.3181 8.17131 30.7333 6.87965 30.2154 6.28775C29.3797 5.33261 27.8687 4.87978 24.5834 7.57842C23.0423 8.84439 21.1396 11.3756 19.2146 13.9365C17.0361 16.8346 14.829 19.7708 13.0849 20.9543C10.5036 23.5356 0.589629 24.6788 1.41095 16.1135Z" fill="url(#paint4_linear_285_212)"/>
<ellipse cx="32.8131" cy="4.92359" rx="1.56142" ry="1.47468" fill="url(#paint5_linear_285_212)"/>
<defs>
<linearGradient id="paint0_linear_285_212" x1="41.5954" y1="13.9032" x2="28.1593" y2="29.3898" gradientUnits="userSpaceOnUse">
<stop stop-color="#F7E275"/>
<stop offset="1" stop-color="#83E430"/>
</linearGradient>
<linearGradient id="paint1_linear_285_212" x1="33.319" y1="22.2935" x2="2.09058" y2="24.7224" gradientUnits="userSpaceOnUse">
<stop stop-color="#00B53D"/>
<stop offset="1" stop-color="#DBC976"/>
</linearGradient>
<linearGradient id="paint2_linear_285_212" x1="18.9584" y1="4.18994" x2="24.4976" y2="15.365" gradientUnits="userSpaceOnUse">
<stop stop-color="#4DE8B0"/>
<stop offset="0.927083" stop-color="#00B856"/>
</linearGradient>
<radialGradient id="paint3_radial_285_212" cx="0" cy="0" r="1" gradientUnits="userSpaceOnUse" gradientTransform="translate(13.0977 3.61369) rotate(105.648) scale(10.901 17.8606)">
<stop stop-color="#E7FFEA"/>
<stop offset="0.927083" stop-color="#90EFB6"/>
</radialGradient>
<linearGradient id="paint4_linear_285_212" x1="40.9859" y1="12.9757" x2="3.23623" y2="6.65278" gradientUnits="userSpaceOnUse">
<stop stop-color="#54DF9F"/>
<stop offset="0.374317" stop-color="#CAFFC6"/>
<stop offset="0.940618" stop-color="#85FFB4"/>
</linearGradient>
<linearGradient id="paint5_linear_285_212" x1="34.3023" y1="4.34554" x2="26.1884" y2="3.14951" gradientUnits="userSpaceOnUse">
<stop stop-color="#6AE176"/>
<stop offset="0.374317" stop-color="#BFFFBA"/>
<stop offset="0.940618" stop-color="#49BF1F"/>
</linearGradient>
</defs>
</svg>
