<svg width="50" height="50" viewBox="0 0 50 50" fill="none" xmlns="http://www.w3.org/2000/svg">
<circle cx="25.2654" cy="24.8133" r="23.3481" fill="#EBBD1A" stroke="#B0920F" stroke-width="2.79234"/>
<path fill-rule="evenodd" clip-rule="evenodd" d="M23.6172 11.6547C22.2533 14.4562 19.6568 19.7684 17.847 23.4601C16.0373 27.1517 14.5566 30.2723 14.5566 30.3946C14.5566 30.5172 17.176 33.4803 20.3775 36.9791L26.1984 43.3406L28.6228 40.6356C29.9563 39.1479 32.545 36.2496 34.3755 34.1951L37.7037 30.4594L36.2421 27.4085C35.4381 25.7304 34.3866 23.5245 33.905 22.5065C31.1949 16.7761 26.3855 6.85432 26.2522 6.719C26.1668 6.63242 24.981 8.8535 23.6172 11.6547ZM25.4077 17.3651V23.2263H23.5767H21.746L21.6829 24.1004C21.6202 24.9701 21.6157 24.9746 20.7499 25.0375C19.8841 25.1007 19.8798 25.1048 19.8798 25.9116V26.7225H20.8011H21.7224V27.6479V28.5733H23.5763H25.4302L25.3677 29.5502L25.3053 30.5271L22.5925 30.5844L19.8798 30.6418V31.4585V32.2751H22.6437H25.4077V36.2854C25.4077 38.4911 25.3385 40.2887 25.2541 40.2801C25.1698 40.2714 23.0505 38.0084 20.5448 35.2508L15.989 30.2371L20.4936 21.0445C22.9711 15.9885 24.9982 11.7736 24.9982 11.678C24.9982 11.5823 25.0903 11.504 25.2029 11.504C25.3346 11.504 25.4077 13.5949 25.4077 17.3651ZM30.3402 18.0979C35.6387 29.1541 36.0695 30.0876 35.9747 30.3105C35.8977 30.4917 28.2486 39.1469 27.3385 40.0826C27.0843 40.344 27.0456 39.8492 27.0456 36.3294V32.2751H28.8882H30.7308V31.3497V30.4242H31.6521H32.5734V29.6016V28.779H31.6521H30.7308V27.8616V26.9442L28.9394 26.8847L27.1479 26.8253L27.0855 25.8484L27.023 24.8716H28.8769H30.7308V24.0489V23.2263H28.8882H27.0456V17.3308C27.0456 14.0884 27.0898 11.4797 27.1436 11.534C27.1977 11.5883 28.6362 14.5419 30.3402 18.0979ZM25.3677 25.8484L25.3053 26.8253H24.384H23.4627L23.4002 25.8484L23.3378 24.8716H24.384H25.4302L25.3677 25.8484ZM29.053 29.5502L28.9906 30.5271H28.0692H27.1479L27.0855 29.5502L27.023 28.5733H28.0692H29.1154L29.053 29.5502Z" fill="#B0920F"/>
<path fill-rule="evenodd" clip-rule="evenodd" d="M22.1456 11.4394C20.7816 14.2408 18.1851 19.5531 16.3753 23.2448C14.5656 26.9363 13.085 30.0569 13.085 30.1793C13.085 30.3019 15.7044 33.2649 18.9058 36.7638L24.7267 43.1253L27.1512 40.4203C28.4846 38.9326 31.0733 36.0343 32.9038 33.9798L36.232 30.2441L34.7704 27.1932C33.9664 25.515 32.9149 23.3092 32.4334 22.2912C29.7233 16.5608 24.9138 6.63899 24.7805 6.50367C24.6951 6.41709 23.5093 8.63816 22.1456 11.4394ZM23.936 17.1498V23.011H22.105H20.2743L20.2112 23.885C20.1486 24.7547 20.1441 24.7593 19.2782 24.8222C18.4124 24.8853 18.4081 24.8894 18.4081 25.6962V26.5071H19.3294H20.2507V27.4326V28.358H22.1046H23.9585L23.8961 29.3349L23.8336 30.3117L21.1209 30.3691L18.4081 30.4265V31.2432V32.0598H21.172H23.936V36.0701C23.936 38.2757 23.8668 40.0734 23.7824 40.0647C23.6981 40.0561 21.5789 37.7931 19.0731 35.0354L14.5173 30.0218L19.0219 20.8292C21.4994 15.7732 23.5265 11.5583 23.5265 11.4626C23.5265 11.367 23.6186 11.2886 23.7312 11.2886C23.8629 11.2886 23.936 13.3795 23.936 17.1498ZM28.8685 17.8826C34.1671 28.9388 34.5978 29.8723 34.503 30.0952C34.4261 30.2764 26.7769 38.9316 25.8669 39.8673C25.6126 40.1287 25.5739 39.6339 25.5739 36.1141V32.0598H27.4165H29.2591V31.1344V30.2089H30.1804H31.1018V29.3863V28.5637H30.1804H29.2591V27.6462V26.7288L27.4677 26.6694L25.6762 26.6099L25.6138 25.6331L25.5514 24.6562H27.4052H29.2591V23.8336V23.011H27.4165H25.5739V17.1155C25.5739 13.8731 25.6181 11.2644 25.6719 11.3187C25.726 11.373 27.1645 14.3266 28.8685 17.8826ZM23.8961 25.6331L23.8336 26.6099H22.9123H21.991L21.9285 25.6331L21.8661 24.6562H22.9123H23.9585L23.8961 25.6331ZM27.5813 29.3349L27.5189 30.3117H26.5976H25.6762L25.6138 29.3349L25.5514 28.358H26.5976H27.6438L27.5813 29.3349Z" fill="#FFE485"/>
</svg>
