<svg width="34" height="34" viewBox="0 0 34 34" fill="none" xmlns="http://www.w3.org/2000/svg">
<circle cx="17.348" cy="17.203" r="15.7197" fill="#EBBD1A" stroke="#76620A" stroke-width="1.88001"/>
<path fill-rule="evenodd" clip-rule="evenodd" d="M16.2389 8.34379C15.3206 10.2299 13.5725 13.8065 12.354 16.2921C11.1356 18.7775 10.1387 20.8785 10.1387 20.9609C10.1387 21.0434 11.9022 23.0384 14.0577 25.394L17.9767 29.6771L19.6091 27.8559C20.5069 26.8543 22.2498 24.9029 23.4822 23.5197L25.723 21.0045L24.7389 18.9504C24.1976 17.8206 23.4897 16.3354 23.1655 15.65C21.3408 11.7919 18.1027 5.1118 18.013 5.02069C17.9555 4.9624 17.1571 6.45779 16.2389 8.34379ZM17.4444 12.1885V16.1346H16.2117H14.9791L14.9366 16.7231C14.8944 17.3087 14.8914 17.3117 14.3084 17.3541C13.7255 17.3966 13.7226 17.3994 13.7226 17.9425V18.4885H14.3429H14.9632V19.1116V19.7347H16.2114H17.4595L17.4175 20.3924L17.3755 21.0501L15.549 21.0887L13.7226 21.1273V21.6772V22.227H15.5835H17.4444V24.927C17.4444 26.412 17.3978 27.6223 17.341 27.6165C17.2842 27.6107 15.8574 26.087 14.1703 24.2304L11.103 20.8548L14.1359 14.6657C15.8039 11.2616 17.1687 8.42382 17.1687 8.35943C17.1687 8.29505 17.2307 8.24229 17.3065 8.24229C17.3952 8.24229 17.4444 9.65004 17.4444 12.1885ZM20.7653 12.6818C24.3327 20.1257 24.6227 20.7542 24.5589 20.9043C24.5071 21.0262 19.3571 26.8536 18.7444 27.4836C18.5732 27.6596 18.5471 27.3264 18.5471 24.9566V22.227H19.7877H21.0283V21.6039V20.9808H21.6486H22.2689V20.427V19.8731H21.6486H21.0283V19.2554V18.6378L19.8222 18.5977L18.6161 18.5577L18.574 17.9L18.532 17.2423H19.7801H21.0283V16.6885V16.1346H19.7877H18.5471V12.1653C18.5471 9.98235 18.5769 8.22595 18.6132 8.26251C18.6496 8.29906 19.618 10.2877 20.7653 12.6818ZM17.4175 17.9L17.3755 18.5577H16.7552H16.1349L16.0928 17.9L16.0508 17.2423H16.7552H17.4595L17.4175 17.9ZM19.8987 20.3924L19.8567 21.0501H19.2364H18.6161L18.574 20.3924L18.532 19.7347H19.2364H19.9407L19.8987 20.3924Z" fill="#76620A"/>
<path fill-rule="evenodd" clip-rule="evenodd" d="M15.2468 8.19877C14.3284 10.0849 12.5803 13.6615 11.3618 16.1471C10.1434 18.6325 9.14648 20.7335 9.14648 20.8159C9.14648 20.8984 10.9101 22.8934 13.0655 25.249L16.9846 29.5321L18.6169 27.7109C19.5147 26.7092 21.2576 24.7579 22.49 23.3746L24.7308 20.8595L23.7467 18.8054C23.2054 17.6755 22.4975 16.1904 22.1733 15.505C20.3486 11.6469 17.1105 4.96678 17.0208 4.87567C16.9633 4.81738 16.1649 6.31277 15.2468 8.19877ZM16.4522 12.0434V15.9896H15.2195H13.9869L13.9444 16.5781C13.9022 17.1636 13.8992 17.1667 13.3163 17.2091C12.7333 17.2516 12.7304 17.2543 12.7304 17.7975V18.3435H13.3507H13.971V18.9666V19.5896H15.2192H16.4674L16.4253 20.2473L16.3833 20.905L14.5568 20.9437L12.7304 20.9823V21.5321V22.082H14.5913H16.4522V24.782C16.4522 26.267 16.4056 27.4773 16.3488 27.4715C16.292 27.4657 14.8652 25.942 13.1781 24.0854L10.1108 20.7098L13.1437 14.5207C14.8117 11.1166 16.1765 8.2788 16.1765 8.21441C16.1765 8.15003 16.2385 8.09727 16.3144 8.09727C16.403 8.09727 16.4522 9.50502 16.4522 12.0434ZM19.7731 12.5368C23.3405 19.9807 23.6305 20.6091 23.5667 20.7592C23.5149 20.8812 18.3649 26.7085 17.7522 27.3385C17.581 27.5145 17.5549 27.1814 17.5549 24.8116V22.082H18.7955H20.0361V21.4589V20.8358H20.6564H21.2767V20.282V19.7281H20.6564H20.0361V19.1104V18.4927L18.83 18.4527L17.6239 18.4127L17.5818 17.755L17.5398 17.0973H18.788H20.0361V16.5435V15.9896H18.7955H17.5549V12.0203C17.5549 9.83733 17.5847 8.08094 17.621 8.11749C17.6574 8.15404 18.6259 10.1426 19.7731 12.5368ZM16.4253 17.755L16.3833 18.4127H15.763H15.1427L15.1006 17.755L15.0586 17.0973H15.763H16.4674L16.4253 17.755ZM18.9065 20.2473L18.8645 20.905H18.2442H17.6239L17.5818 20.2473L17.5398 19.5896H18.2442H18.9485L18.9065 20.2473Z" fill="#FFE485"/>
</svg>
