<svg width="26" height="29" viewBox="0 0 26 29" fill="none" xmlns="http://www.w3.org/2000/svg">
<path d="M5.91174 12.4506C6.18556 12.7614 6.65949 12.7913 6.97029 12.5175C7.28109 12.2437 7.31107 11.7698 7.03726 11.459L5.91174 12.4506ZM3.16658 11.0964L3.61177 11.7L3.61178 11.7L3.16658 11.0964ZM2.4204 19.7195L1.71361 19.9704L1.71361 19.9704L2.4204 19.7195ZM20.7536 10.73C20.5513 10.3686 20.0942 10.2396 19.7328 10.442C19.3714 10.6443 19.2424 11.1014 19.4448 11.4628L20.7536 10.73ZM3.40036 11.1167C3.64043 11.4543 4.10868 11.5333 4.44623 11.2932C4.78378 11.0532 4.8628 10.5849 4.62273 10.2473L3.40036 11.1167ZM1.22828 6.805L1.83405 6.3628L1.83405 6.3628L1.22828 6.805ZM4.01155 4.85764L4.54071 4.32615L4.5407 4.32614L4.01155 4.85764ZM6.67473 8.91403C6.94396 9.22881 7.4174 9.26573 7.73218 8.9965C8.04696 8.72727 8.08388 8.25383 7.81465 7.93905L6.67473 8.91403ZM6.064 15.6295C6.09972 16.0422 6.46321 16.3477 6.87589 16.312C7.28856 16.2763 7.59413 15.9128 7.55841 15.5001L6.064 15.6295ZM7.63407 7.95751L7.03476 7.50658L7.03476 7.50659L7.63407 7.95751ZM17.0298 7.6979C17.3299 7.9834 17.8047 7.97156 18.0902 7.67145C18.3757 7.37134 18.3638 6.89662 18.0637 6.61112L17.0298 7.6979ZM24.886 7.19844L25.6021 6.97539L25.6021 6.97535L24.886 7.19844ZM17.8851 11.9936L18.3242 12.6017L18.3242 12.6017L17.8851 11.9936ZM14.4042 16.44L15.1183 16.6692L15.1183 16.6692L14.4042 16.44ZM11.1764 16.0513L10.7042 16.634L10.7042 16.6341L11.1764 16.0513ZM11.1764 13.3851L11.6888 13.9328L11.6888 13.9328L11.1764 13.3851ZM22.2925 5.70927L22.2521 4.96036L22.2375 4.96114L22.2229 4.9625L22.2925 5.70927ZM13.1167 1.66701C13.1167 1.2528 12.7809 0.917015 12.3667 0.917015C11.9525 0.917015 11.6167 1.2528 11.6167 1.66701H13.1167ZM11.6167 5.04695C11.6167 5.46116 11.9525 5.79695 12.3667 5.79695C12.7809 5.79695 13.1167 5.46116 13.1167 5.04695H11.6167ZM9.91911 6.4711C10.1896 6.78483 10.6632 6.8199 10.9769 6.54944C11.2906 6.27897 11.3257 5.8054 11.0552 5.49167L9.91911 6.4711ZM5.56912 1.17069C5.16459 1.08165 4.76447 1.3374 4.67543 1.74193C4.58639 2.14646 4.84214 2.54658 5.24667 2.63562L5.56912 1.17069ZM7.46393 3.42091C7.35826 3.82142 7.59728 4.23176 7.99778 4.33743C8.39829 4.44309 8.80863 4.20408 8.9143 3.80357L7.46393 3.42091ZM9.6035 1.19133C9.70916 0.79082 9.47015 0.380483 9.06964 0.274815C8.66913 0.169147 8.25879 0.408163 8.15313 0.808672L9.6035 1.19133ZM21.8525 6.20721C21.9773 5.81226 21.7584 5.39088 21.3634 5.26602C20.9685 5.14116 20.5471 5.36011 20.4222 5.75505L21.8525 6.20721ZM21.1374 7.97639L21.8428 7.72166L21.8427 7.72157L21.1374 7.97639ZM7.03726 11.459C6.40239 10.7384 5.71181 10.2109 4.95526 10.0146C4.15599 9.80723 3.39322 9.99728 2.72138 10.4928L3.61178 11.7C3.97104 11.435 4.27513 11.3878 4.57851 11.4665C4.9246 11.5564 5.37243 11.8384 5.91174 12.4506L7.03726 11.459ZM2.72139 10.4928C2.1862 10.8876 1.79874 11.4847 1.52799 12.1489C1.25449 12.8198 1.0797 13.6081 1.00012 14.4504C0.841089 16.1336 1.05459 18.114 1.71361 19.9704L3.12719 19.4686C2.5416 17.819 2.3549 16.0582 2.49347 14.5915C2.56268 13.859 2.71113 13.2201 2.91701 12.7151C3.12563 12.2033 3.37366 11.8756 3.61177 11.7L2.72139 10.4928ZM1.71361 19.9704C2.34675 21.7539 3.29905 23.9232 4.75602 25.657C6.22628 27.4067 8.24665 28.75 10.9707 28.75V27.25C8.80922 27.25 7.17674 26.2061 5.90439 24.692C4.61875 23.1621 3.73868 21.1911 3.12718 19.4686L1.71361 19.9704ZM10.9707 28.75C13.7268 28.75 15.4379 27.3663 16.6771 25.6791C17.2857 24.8506 17.7915 23.9358 18.2555 23.0788C18.7289 22.2044 19.1531 21.402 19.6236 20.7164L18.3868 19.8677C17.8607 20.6343 17.393 21.5214 16.9365 22.3646C16.4705 23.2251 16.0084 24.0557 15.4682 24.7911C14.4099 26.2319 13.1003 27.25 10.9707 27.25V28.75ZM19.6236 20.7164C20.6419 19.2326 21.474 17.7013 21.7705 16.0458C22.072 14.3623 21.8086 12.6143 20.7536 10.73L19.4448 11.4628C20.3435 13.0679 20.5296 14.4656 20.294 15.7814C20.0533 17.1254 19.3616 18.4472 18.3868 19.8677L19.6236 20.7164ZM4.62273 10.2473C3.43719 8.58043 2.50737 7.28518 1.83405 6.3628L0.622512 7.2472C1.29041 8.16215 2.21607 9.45155 3.40036 11.1167L4.62273 10.2473ZM1.83405 6.3628C1.73857 6.23201 1.73187 6.12263 1.77616 5.99507C1.8308 5.83775 1.97619 5.64194 2.21487 5.47578C2.74005 5.11017 3.24367 5.15148 3.48239 5.38914L4.5407 4.32614C3.5625 3.35226 2.17154 3.67826 1.35785 4.24472C0.927081 4.5446 0.541961 4.97667 0.359183 5.50297C0.166067 6.05903 0.21504 6.68901 0.622515 7.24721L1.83405 6.3628ZM3.48238 5.38913C4.27246 6.17576 5.33502 7.34766 6.67473 8.91403L7.81465 7.93905C6.46603 6.36227 5.37312 5.15492 4.54071 4.32615L3.48238 5.38913ZM7.55841 15.5001C7.39208 13.5787 7.37979 12.0242 7.50973 10.8229C7.64164 9.60339 7.91149 8.83624 8.23338 8.40843L7.03476 7.50659C6.47095 8.25594 6.16081 9.34526 6.01843 10.6616C5.87408 11.996 5.89321 13.6566 6.064 15.6295L7.55841 15.5001ZM8.23337 8.40843C9.35144 6.92246 11.5222 6.27238 13.7553 6.27238V4.77238C11.3398 4.77238 8.5737 5.46125 7.03476 7.50658L8.23337 8.40843ZM13.7553 6.27238C14.9194 6.27238 16.0043 6.72231 17.0298 7.6979L18.0637 6.61112C16.8017 5.41053 15.359 4.77238 13.7553 4.77238V6.27238ZM24.17 7.42149C24.3186 7.89882 24.2502 8.26172 24.0534 8.52443C23.8443 8.80353 23.3861 9.10866 22.4806 9.22823L22.677 10.7153C23.8206 10.5643 24.7198 10.1367 25.2539 9.42376C25.8002 8.69441 25.8608 7.80592 25.6021 6.97539L24.17 7.42149ZM22.4806 9.22823C20.249 9.52296 18.5915 10.5585 17.4461 11.3856L18.3242 12.6017C19.3949 11.8285 20.8101 10.9619 22.677 10.7153L22.4806 9.22823ZM17.4461 11.3856C16.8089 11.8456 15.986 12.7156 15.2887 13.5932C14.6016 14.4578 13.9307 15.461 13.6901 16.2108L15.1183 16.6692C15.2689 16.2002 15.7845 15.3803 16.463 14.5264C17.1313 13.6855 17.8533 12.9417 18.3242 12.6017L17.4461 11.3856ZM13.6901 16.2108C13.6846 16.228 13.7081 16.2187 13.6622 16.2285C13.5607 16.2502 13.363 16.2436 13.0685 16.1622C12.485 16.001 11.8686 15.6469 11.6485 15.4686L10.7042 16.6341C11.0847 16.9423 11.8866 17.3919 12.669 17.6081C13.0575 17.7154 13.5297 17.7909 13.9764 17.6952C14.4785 17.5877 14.9282 17.2614 15.1183 16.6692L13.6901 16.2108ZM11.6485 15.4686C11.4434 15.3024 11.2817 15.066 11.2453 14.8364C11.2172 14.6588 11.2407 14.352 11.6888 13.9328L10.664 12.8374C9.92112 13.5324 9.64426 14.3154 9.76376 15.0708C9.87503 15.7741 10.3088 16.3136 10.7042 16.634L11.6485 15.4686ZM11.6888 13.9328C12.2996 13.3613 12.6762 12.9008 12.8169 12.3405C12.8848 12.0706 12.887 11.8191 12.8809 11.6029C12.8741 11.3614 12.8596 11.1925 12.8596 10.9186H11.3596C11.3596 11.2097 11.3772 11.4922 11.3815 11.6451C11.3865 11.8232 11.3788 11.9088 11.3622 11.975C11.334 12.0869 11.244 12.2947 10.6639 12.8374L11.6888 13.9328ZM12.8596 10.9186C12.8596 11.0204 12.826 11.0662 12.8427 11.0355C12.856 11.0111 12.8901 10.9591 12.9602 10.8792C13.1006 10.7194 13.3274 10.5129 13.6425 10.2701C14.2681 9.78819 15.1593 9.22609 16.1795 8.67946C18.242 7.5743 20.6802 6.61273 22.362 6.45604L22.2229 4.9625C20.236 5.14762 17.5828 6.22574 15.471 7.35731C14.404 7.92904 13.4375 8.53456 12.727 9.08187C12.3741 9.35378 12.0633 9.62733 11.8331 9.88947C11.718 10.0206 11.6085 10.1651 11.5245 10.3198C11.444 10.468 11.3596 10.6755 11.3596 10.9186H12.8596ZM22.3328 6.45818C22.6649 6.4403 23.0871 6.48075 23.4445 6.63531C23.7802 6.78046 24.0434 7.01512 24.17 7.42153L25.6021 6.97535C25.3212 6.07389 24.6954 5.542 24.04 5.25855C23.4063 4.98452 22.7355 4.93431 22.2521 4.96036L22.3328 6.45818ZM11.6167 1.66701V5.04695H13.1167V1.66701H11.6167ZM11.0552 5.49167C9.98822 4.25402 9.00681 3.26868 8.11204 2.55025C7.22687 1.83954 6.37544 1.34817 5.56912 1.17069L5.24667 2.63562C5.7267 2.74128 6.36498 3.07119 7.17292 3.71989C7.97124 4.36087 8.88629 5.27308 9.91911 6.4711L11.0552 5.49167ZM8.9143 3.80357L9.6035 1.19133L8.15313 0.808672L7.46393 3.42091L8.9143 3.80357ZM20.4222 5.75505C20.155 6.60046 20.1447 7.43605 20.432 8.23121L21.8427 7.72157C21.6815 7.27515 21.6712 6.78052 21.8525 6.20721L20.4222 5.75505ZM20.4319 8.23111C20.7108 9.00332 21.2802 9.76254 22.0586 10.512L23.099 9.43153C22.404 8.7623 22.0123 8.19117 21.8428 7.72166L20.4319 8.23111Z" fill="#2C2C2C"/>
</svg>
