<svg width="95" height="26" viewBox="0 0 95 26" fill="none" xmlns="http://www.w3.org/2000/svg">
<path d="M1.32903 1.26457H85.8428L90.064 5.40215L90.0691 5.40719L94.4874 9.87305V25.4465H1.32903V1.26457Z" fill="#E72B2B" fill-opacity="0.32" stroke="#E72B2B" stroke-width="0.931493"/>
<circle cx="13.9899" cy="13.3556" r="2.57389" fill="#E72B2B"/>
<path d="M20.5041 15.3828H22.7621V10.1068H20.5041V8.6537H26.529V10.1068H24.2823V15.3828H26.529V16.8359H20.5041V15.3828ZM28.6904 16.8359V8.6537H30.0765L33.1839 13.7285V8.6537H34.6929V16.8359H33.3069L30.1994 11.7612V16.8359H28.6904ZM39.2236 8.6537H41.2803L43.2588 12.7001V16.8359H41.7386V15.4722H38.7653V16.8359H37.2563V12.7001L39.2236 8.6537ZM38.7653 14.0526H41.7386V12.7895L40.3861 10.1068H40.1178L38.7653 12.7895V14.0526ZM51.7282 14.1756V14.6562C51.7282 16.0311 50.8117 16.9477 49.4256 16.9477H48.0172C46.6423 16.9477 45.7257 16.0311 45.7257 14.6562V10.7887C45.7257 9.4138 46.6423 8.49721 48.0172 8.49721H49.4256C50.8117 8.49721 51.7282 9.4138 51.7282 10.7887V11.2582H50.2081V10.7328C50.2081 10.2633 49.8951 9.95034 49.4256 9.95034H48.0284C47.5477 9.95034 47.2347 10.2633 47.2347 10.7328V14.701C47.2347 15.1816 47.5477 15.4946 48.0284 15.4946H49.4256C49.8951 15.4946 50.2081 15.1816 50.2081 14.701V14.1756H51.7282ZM53.7816 10.1068V8.6537H59.8065V10.1068H57.5597V16.8359H56.0395V10.1068H53.7816ZM61.4651 15.3828H63.723V10.1068H61.4651V8.6537H67.49V10.1068H65.2432V15.3828H67.49V16.8359H61.4651V15.3828ZM69.1595 8.6537H70.7132L72.1887 14.265L73.653 8.6537H75.2068L72.9376 16.8359H71.4398L69.1595 8.6537ZM77.3567 8.6537H83.3816V10.1068H78.8657V12.0294H83.158V13.4602H78.8657V15.3828H83.3816V16.8359H77.3567V8.6537Z" fill="white"/>
</svg>
