<svg width="32" height="32" viewBox="0 0 32 32" fill="none" xmlns="http://www.w3.org/2000/svg">
<path d="M13.151 1.27511C15.0326 0.908297 16.9674 0.908297 18.849 1.27511M24.3971 3.56933C25.9899 4.64635 27.3596 6.02111 28.4307 7.61797M30.7249 13.1511C31.0917 15.0328 31.0917 16.9675 30.7249 18.8492M28.4307 24.3973C27.3537 25.9902 25.9789 27.3598 24.3821 28.4309M18.849 30.7252C16.9673 31.0916 15.0327 31.0916 13.151 30.7252M7.60291 28.4309C6.01006 27.3539 4.6404 25.9792 3.56931 24.3823M1.27511 18.8492C0.908298 16.9675 0.908298 15.0328 1.27511 13.1511M3.56931 7.60297C4.64632 6.0101 6.02107 4.64044 7.61791 3.56933" stroke="#EF4444" stroke-width="2" stroke-linecap="round" stroke-linejoin="round"/>
</svg>
