<svg width="255" height="46" viewBox="0 0 255 46" fill="none" xmlns="http://www.w3.org/2000/svg">
<path d="M28.9916 0.574219L0.774414 45.209H254.729L221.206 0.574248L28.9916 0.574219Z" fill="#806800"/>
<path d="M95.0603 29.4935L95.1333 16.3177L97.3652 16.3301L99.9309 21.0964L102.567 16.3589L104.799 16.3712L104.726 29.547L102.296 29.5336L102.342 21.2717L100.543 24.4118L99.3005 24.4049L97.5362 21.2091L97.4902 29.507L95.0603 29.4935ZM106.041 27.2143L109.677 27.2344L109.724 18.7386L106.088 18.7184L106.101 16.3785L115.803 16.4322L115.79 18.7722L112.172 18.7521L112.125 27.248L115.743 27.268L115.73 29.608L106.028 29.5543L106.041 27.2143ZM117.123 16.4395L119.355 16.4519L124.314 24.6515L124.359 16.4796L126.789 16.493L126.716 29.6688L124.484 29.6565L119.525 21.4569L119.48 29.6288L117.05 29.6153L117.123 16.4395ZM128.078 18.8402L128.091 16.5003L137.793 16.554L137.78 18.894L134.162 18.8739L134.102 29.7097L131.654 29.6962L131.714 18.8604L128.078 18.8402ZM139.095 16.5612L148.797 16.6149L148.784 18.9549L141.512 18.9146L141.495 22.0106L148.407 22.0489L148.394 24.3528L141.483 24.3145L141.465 27.4105L148.737 27.4508L148.724 29.7907L139.022 29.737L139.095 16.5612ZM150.89 16.6265L156.866 16.6596C159.08 16.6719 160.548 18.156 160.536 20.37L160.504 26.1659C160.491 28.3799 159.007 29.8477 156.793 29.8354L150.817 29.8023L150.89 16.6265ZM153.26 27.4758L156.788 27.4954C157.544 27.4996 158.069 26.9985 158.073 26.2245L158.106 20.2666C158.11 19.5106 157.591 19.0037 156.835 18.9995L153.307 18.98L153.26 27.4758Z" fill="black"/>
</svg>
