<svg width="255" height="46" viewBox="0 0 255 46" fill="none" xmlns="http://www.w3.org/2000/svg">
<path d="M28.8129 0.753418L0.595703 45.3882H254.55L221.028 0.753447L28.8129 0.753418Z" fill="#F5D64E"/>
<path d="M86.7606 29.6272L86.8336 16.4514L89.0655 16.4638L91.6312 21.2301L94.2675 16.4926L96.4994 16.505L96.4264 29.6808L93.9965 29.6673L94.0422 21.4054L92.2428 24.5455L91.0008 24.5386L89.2365 21.3428L89.1906 29.6407L86.7606 29.6272ZM97.7412 27.348L101.377 27.3682L101.424 18.8723L97.7882 18.8521L97.8012 16.5122L107.503 16.5659L107.49 18.9059L103.872 18.8858L103.825 27.3817L107.443 27.4018L107.43 29.7417L97.7282 29.688L97.7412 27.348ZM108.823 16.5732L111.055 16.5856L116.014 24.7852L116.059 16.6133L118.489 16.6268L118.416 29.8026L116.184 29.7902L111.226 21.5906L111.18 29.7625L108.75 29.749L108.823 16.5732ZM119.778 18.9739L119.791 16.634L129.493 16.6877L129.48 19.0277L125.862 19.0076L125.802 29.8435L123.354 29.8299L123.414 18.9941L119.778 18.9739ZM135.471 16.7208L137.703 16.7332L142.662 24.9328L142.707 16.7609L145.137 16.7744L145.064 29.9502L142.832 29.9378L137.874 21.7382L137.828 29.9101L135.399 29.8966L135.471 16.7208ZM147.052 26.4511L147.086 20.2232C147.098 18.0092 148.582 16.5414 150.796 16.5537L153.064 16.5663C155.296 16.5786 156.764 18.0628 156.752 20.2768L156.717 26.5047C156.705 28.7186 155.221 30.1864 152.989 30.1741L150.721 30.1615C148.507 30.1492 147.039 28.6651 147.052 26.4511ZM150.752 27.8216L153.002 27.8341C153.758 27.8383 154.265 27.3371 154.269 26.5631L154.304 20.1732C154.309 19.4172 153.807 18.9104 153.051 18.9062L150.801 18.8938C150.027 18.8895 149.521 19.3907 149.517 20.1467L149.481 26.5366C149.477 27.3106 149.978 27.8174 150.752 27.8216ZM158.709 16.8495L161.139 16.863L161.093 25.1789L162.892 22.2368L164.134 22.2437L165.899 25.1875L165.945 16.8896L168.375 16.9031L168.302 30.0789L166.07 30.0665L163.485 25.5341L160.868 30.0377L158.636 30.0253L158.709 16.8495Z" fill="black"/>
</svg>
