<svg width="30" height="47" viewBox="0 0 30 47" fill="none" xmlns="http://www.w3.org/2000/svg">
<path d="M15.1057 46.3539L0.756779 30.6917L15.1052 1.54413L29.112 30.6923L15.1057 46.3539Z" stroke="#F5D64E" stroke-width="0.496719"/>
<path d="M14.7155 35.4109L3.41211 30.8418L26.8444 30.8418L14.7155 35.4109Z" fill="#D9B92D"/>
<path d="M14.7646 35.3091L26.8965 30.8279L14.7646 43.0653L14.7646 35.3091Z" fill="#F5D64E"/>
<path d="M14.8142 35.3092L3.40626 30.8308L14.8142 43.0655L14.8142 35.3092Z" fill="#BFA425"/>
<path d="M14.7425 20.7576L3.4082 29.5179L26.8935 29.5269L14.7425 20.7576Z" fill="#D9B92D"/>
<path d="M14.7646 20.788L26.8965 29.5259L14.7646 5.66386L14.7646 20.788Z" fill="#F5D64E"/>
<path d="M14.8142 20.7878L3.40626 29.5203L14.8142 5.66372L14.8142 20.7878Z" fill="#BFA425"/>
<path d="M11.5781 23.1114L14.7151 15.269L18.0444 23.1114H11.5781Z" fill="#FFE67A"/>
<path d="M10.5742 33.5644L14.8042 39.1094L19.2935 33.5644H10.5742Z" fill="#FFE67A"/>
</svg>
