<svg width="36" height="37" viewBox="0 0 36 37" fill="none" xmlns="http://www.w3.org/2000/svg">
<path d="M24.3458 2.13462H21.5622V0H14.2935V2.13462H11.6533C9.93527 2.13462 8.53809 3.57101 8.53809 5.3366V33.7982C8.53809 35.5634 9.93565 37 11.6533 37H24.3458C26.0643 37 27.4612 35.5634 27.4612 33.7982V5.33652C27.4612 3.57101 26.0643 2.13462 24.3458 2.13462ZM25.3846 33.7984C25.3846 34.3866 24.9186 34.8655 24.3458 34.8655H11.6533C11.0804 34.8655 10.6145 34.3875 10.6145 33.7984V5.33652C10.6145 4.7483 11.0804 4.26917 11.6533 4.26917H24.3458C24.9186 4.26917 25.3846 4.74822 25.3846 5.33652V33.7984ZM24.2521 33.6022H11.7471V28.9192H24.2518V33.6022H24.2521ZM24.2521 27.7656H11.7471V23.0828H24.2518V27.7656H24.2521ZM24.2521 21.9289H11.7471V17.2457H24.2518V21.9289H24.2521ZM24.2521 16.1054H11.7471V11.4223H24.2518V16.1054H24.2521ZM24.2521 10.2685H11.7471V5.58518H24.2518V10.2685H24.2521Z" fill="#9C8008"/>
<path d="M24.2521 33.6022H11.7471V28.9192H24.2518V33.6022H24.2521ZM24.2521 27.7656H11.7471V23.0828H24.2518V27.7656H24.2521ZM24.2521 21.9289H11.7471V17.2457H24.2518V21.9289H24.2521ZM24.2521 16.1054H11.7471V11.4223H24.2518V16.1054H24.2521ZM24.2521 10.2685H11.7471V5.58518H24.2518V10.2685H24.2521Z" fill="#2BE777"/>
</svg>
