<svg width="157" height="47" viewBox="0 0 157 47" fill="none" xmlns="http://www.w3.org/2000/svg">
<path d="M44.5121 27.0788H39.4572V33.8406H36.9407V17.91H44.5121C46.8317 17.91 48.3853 19.4637 48.3853 21.7832V23.2931C48.3853 25.6127 46.8317 27.0788 44.5121 27.0788ZM44.5121 20.3171H39.4572V24.6717H44.5121C45.3437 24.6717 45.8688 24.1247 45.8688 23.2931V21.6957C45.8688 20.8641 45.3437 20.3171 44.5121 20.3171ZM53.9971 17.91H57.5421L61.4809 25.8096V33.8406H58.9863V30.9739H52.5528V33.8406H50.0363V25.8096L53.9971 17.91ZM52.5528 28.5887H58.9863V25.9628L56.054 20.3171H55.4851L52.5528 25.9628V28.5887ZM64.0376 17.91H66.5541V31.4335H75.526V33.8406H64.0376V17.91ZM77.0946 17.91H79.6111V31.4335H88.583V33.8406H77.0946V17.91ZM93.9372 17.91H97.4822L101.421 25.8096V33.8406H98.9265V30.9739H92.493V33.8406H89.9764V25.8096L93.9372 17.91ZM92.493 28.5887H98.9265V25.9628L95.9942 20.3171H95.4252L92.493 25.9628V28.5887ZM103.978 17.91H111.133C113.694 17.91 115.422 19.6387 115.422 22.199V29.5516C115.422 32.1118 113.694 33.8406 111.133 33.8406H103.978V17.91ZM106.494 31.4335H111.112C112.206 31.4335 112.906 30.7114 112.906 29.6391V22.1333C112.906 21.0392 112.206 20.3171 111.112 20.3171H106.494V31.4335ZM116.712 31.4335H121.22V20.3171H116.712V17.91H128.2V20.3171H123.714V31.4335H128.2V33.8406H116.712V31.4335ZM129.703 17.91H132.219V29.8579C132.219 30.9302 132.942 31.6523 134.014 31.6523H136.837C137.931 31.6523 138.653 30.9302 138.653 29.8579V17.91H141.148V29.7704C141.148 32.3307 139.419 34.0594 136.859 34.0594H133.992C131.432 34.0594 129.703 32.3307 129.703 29.7704V17.91ZM143.704 33.8406V17.91H146.024L149.437 24.1028L152.829 17.91H155.149V33.8406H152.632V22.943L150.116 27.4727H148.759L146.221 22.943V33.8406H143.704Z" fill="#F5D64E"/>
<path d="M15.1052 46.3539L0.756291 30.6917L15.1047 1.54413L29.1115 30.6923L15.1052 46.3539Z" stroke="#F5D64E" stroke-width="0.496719"/>
<path d="M14.7146 35.4109L3.41113 30.8418L26.8434 30.8418L14.7146 35.4109Z" fill="#D9B92D"/>
<path d="M14.7631 35.3091L26.895 30.8279L14.7631 43.0653L14.7631 35.3091Z" fill="#F5D64E"/>
<path d="M14.8132 35.3092L3.40528 30.8308L14.8132 43.0655L14.8132 35.3092Z" fill="#BFA425"/>
<path d="M14.743 20.7576L3.40869 29.5179L26.894 29.5269L14.743 20.7576Z" fill="#D9B92D"/>
<path d="M14.7631 20.788L26.895 29.5259L14.7631 5.66386L14.7631 20.788Z" fill="#F5D64E"/>
<path d="M14.8132 20.7878L3.40528 29.5203L14.8132 5.66372L14.8132 20.7878Z" fill="#BFA425"/>
<path d="M11.5767 23.1114L14.7137 15.269L18.0429 23.1114H11.5767Z" fill="#FFE67A"/>
<path d="M10.5732 33.5644L14.8033 39.1094L19.2926 33.5644H10.5732Z" fill="#FFE67A"/>
</svg>
