<svg width="117" height="131" viewBox="0 0 117 131" fill="none" xmlns="http://www.w3.org/2000/svg">
<path d="M52.3295 4.02079C56.3823 1.68091 61.3755 1.68091 65.4283 4.02079L108.998 29.1758C113.051 31.5157 115.548 35.84 115.548 40.5198V90.8298C115.548 95.5096 113.051 99.8339 108.998 102.174L65.4283 127.329C61.3755 129.669 56.3823 129.669 52.3295 127.329L8.75968 102.174C4.70688 99.8339 2.21026 95.5096 2.21026 90.8298V40.5198C2.21026 35.84 4.70688 31.5157 8.75968 29.1758L52.3295 4.02079Z" fill="#2D2A1C" stroke="#F5D64E" stroke-width="2.7101"/>
<path fill-rule="evenodd" clip-rule="evenodd" d="M44.1654 33.8793C34.2788 35.7115 26.24 43.6078 24.2118 53.4796C23.6006 56.4542 23.5985 60.9592 24.2066 63.9515C26.0907 73.2191 33.7145 81.0979 42.864 83.2329C43.8984 83.4742 44.7845 83.6323 44.8326 83.5838C44.9597 83.4567 43.9762 80.5641 43.7026 80.2607C43.5757 80.1199 42.6061 79.6984 41.5481 79.3238C35.0398 77.0198 30.1377 71.7224 27.9315 64.6094C27.3733 62.8093 27.2292 61.6402 27.2235 58.8669C27.2147 54.6184 27.6016 52.9348 29.4838 49.026C32.5019 42.7591 38.0234 38.4987 44.8108 37.1997C52.1377 35.7975 59.5196 38.3428 64.6736 44.0484L66.5662 46.1437L68.4581 46.1465C69.4989 46.1483 70.3489 46.0471 70.3471 45.9224C70.3404 45.3846 67.1362 41.4888 65.4153 39.9258C59.7167 34.7507 51.7284 32.4779 44.1654 33.8793ZM47.3932 48.7281C46.8959 49.6465 46.0537 51.264 45.5222 52.3226L44.5553 54.2469L41.3332 54.7646C36.9569 55.468 36.7489 55.5289 36.7489 56.1054C36.7489 56.3828 37.9068 57.7614 39.322 59.1697C41.1873 61.0258 41.896 61.9403 41.8981 62.4938C41.8996 62.9138 41.6677 64.7312 41.3823 66.5322C40.957 69.2168 40.9352 69.8511 41.2615 70.0528C42.044 70.5367 42.782 70.0404 42.9727 68.9016C43.9193 63.2438 46.3577 58.2283 50.1358 54.1681L51.8171 52.3613L50.4854 49.7098C49.7532 48.2512 48.9613 47.0579 48.7258 47.0579C48.4903 47.0579 47.8906 47.8094 47.3932 48.7281ZM65.8279 47.6722C57.3976 48.8398 50.134 54.1463 46.5671 61.7435C44.6555 65.8152 44.1896 67.9774 44.186 72.7955C44.1836 76.1502 44.3068 77.3169 44.8738 79.3011C47.1922 87.4136 53.1169 93.8141 60.7356 96.4354C70.2251 99.7011 80.1329 97.3383 87.0305 90.1654C91.8145 85.1899 94.0462 79.5391 94.0095 72.4927C93.9562 62.1952 88.0164 53.3254 78.4864 49.3134C74.8986 47.8027 69.7259 47.1321 65.8279 47.6722ZM71.5055 51.0051C76.4086 51.6201 80.583 53.6594 84.1262 57.1703C86.6273 59.6487 88.4233 62.5295 89.6202 65.9826C90.3845 68.1873 90.4593 68.7859 90.4539 72.6441C90.4484 76.3782 90.3552 77.16 89.6716 79.2048C88.4251 82.9347 86.8885 85.3846 84.0027 88.2436C81.133 91.0865 78.7228 92.5393 74.8908 93.7363C71.6517 94.7479 66.3328 94.7494 63.085 93.7393C52.9038 90.5736 46.4657 80.7657 47.6611 70.243C48.7954 60.2586 56.5733 52.2726 66.4148 50.9882C68.8774 50.6666 68.805 50.6666 71.5055 51.0051ZM68.6195 61.2417C68.4472 61.3511 67.5473 62.9571 66.6197 64.8102C64.7478 68.5503 65.1047 68.2933 60.966 68.8801C57.9755 69.304 57.0307 69.6047 57.0307 70.1327C57.0307 70.342 58.2534 71.7421 59.7479 73.244L62.465 75.9749L61.8556 79.8849C61.4312 82.6107 61.3426 83.8912 61.5638 84.1125C61.7848 84.3336 62.9878 83.8827 65.5345 82.6246L69.1883 80.8196L72.6383 82.6279C75.2882 84.0168 76.1709 84.3535 76.4452 84.0792C76.7195 83.8049 76.6753 82.8235 76.2551 79.8486L75.7081 75.9749L78.4779 73.1262C80.0012 71.5595 81.2477 70.1709 81.2477 70.0404C81.2477 69.6044 80.6874 69.4472 76.9616 68.8392C74.9244 68.5067 73.2319 68.2048 73.2004 68.1685C73.1692 68.1319 72.3864 66.5867 71.461 64.7348C69.8397 61.4894 69.2912 60.8151 68.6195 61.2417Z" fill="#F5D64E"/>
</svg>
