<?xml version="1.0" encoding="UTF-8"?>
<svg version="1.1" xmlns="http://www.w3.org/2000/svg" width="240" height="210">
<path d="M0 0 C23.43 0 46.86 0 71 0 C71 26.4 71 52.8 71 80 C77.93622129 81.15603688 77.69932382 80.6044598 83 77 C88.78764006 75.18914329 92.66629173 76.34312955 98 79 C101.95601508 81.07767669 105.85625096 83.2457356 109.75 85.4375 C110.79027344 86.01048828 111.83054688 86.58347656 112.90234375 87.17382812 C113.89878906 87.73392578 114.89523438 88.29402344 115.921875 88.87109375 C117.27684082 89.62797485 117.27684082 89.62797485 118.65917969 90.40014648 C121.08314832 92.05682842 122.46780119 93.50967077 124 96 C124.29296875 98.359375 124.29296875 98.359375 124.1875 100.75 C124.16042969 101.54921875 124.13335937 102.3484375 124.10546875 103.171875 C124.07066406 103.77515625 124.03585938 104.3784375 124 105 C124.99 105.33 125.98 105.66 127 106 C127.26635742 108.28808594 127.26635742 108.28808594 127 111 C125.2277832 112.78222656 125.2277832 112.78222656 122.73828125 114.390625 C121.82385254 114.98552734 120.90942383 115.58042969 119.96728516 116.19335938 C115.09962699 119.15704791 110.17440526 121.99211485 105.1875 124.75 C103.18071168 125.86929355 101.17419167 126.98906834 99.16796875 128.109375 C98.29422607 128.59374023 97.4204834 129.07810547 96.52026367 129.57714844 C94.75792199 130.5721041 93.01978097 131.61060789 91.30200195 132.68066406 C89 134 89 134 87 134 C87 134.66 87 135.32 87 136 C87.639375 136.309375 88.27875 136.61875 88.9375 136.9375 C91 138 91 138 92 139 C92.4921875 141.2890625 92.4921875 141.2890625 92 144 C89.70816457 145.75558424 87.65185144 147.03391114 85.125 148.375 C83.58435143 149.23516864 82.044008 150.09588393 80.50390625 150.95703125 C79.64168457 151.43092285 78.77946289 151.90481445 77.89111328 152.39306641 C74.62371831 154.20914424 71.3855289 156.07321558 68.15234375 157.94921875 C67.27443176 158.45844879 67.27443176 158.45844879 66.37878418 158.97796631 C65.19571164 159.66441188 64.0127078 160.35097586 62.82977295 161.03765869 C59.98444038 162.6876666 57.13518833 164.33077609 54.28515625 165.97265625 C52.82928101 166.81195679 52.82928101 166.81195679 51.34399414 167.66821289 C47.74885539 169.71086281 45.71791943 170.15990757 41.5625 170.1875 C40.59441406 170.20167969 39.62632813 170.21585938 38.62890625 170.23046875 C36 170 36 170 33 168 C28.96473124 168.32699159 26.08651312 169.89569511 22.6484375 171.94921875 C21.63136719 172.55056641 20.61429687 173.15191406 19.56640625 173.77148438 C18.51324219 174.40376953 17.46007812 175.03605469 16.375 175.6875 C4.12251295 182.9791866 4.12251295 182.9791866 -1.9921875 186.41015625 C-2.84925293 186.89234619 -3.70631836 187.37453613 -4.58935547 187.87133789 C-8.54257471 189.72223242 -11.77783746 190.05914316 -16 189 C-19.89839562 187.35824664 -23.40713973 185.22178135 -27 183 C-28.2617435 182.24395794 -29.52483572 181.49016349 -30.7890625 180.73828125 C-33.33999932 179.21906083 -35.88378234 177.68900708 -38.421875 176.1484375 C-40.88951181 174.65401058 -43.37919589 173.20862156 -45.890625 171.7890625 C-49 170 -49 170 -50 169 C-51.1097561 157.77560976 -51.1097561 157.77560976 -48.125 153 C-44.74904603 150.83938946 -41.33118481 149.04206076 -37.70703125 147.3359375 C-33.99741817 145.50521936 -30.53169738 143.33557573 -27.03125 141.13671875 C-25 140 -25 140 -23 140 C-22.773125 139.319375 -22.54625 138.63875 -22.3125 137.9375 C-21.16479217 135.36882058 -20.1893755 133.97306716 -18.4375 131.86767578 C-15.39421929 127.65416741 -15.41828068 124.23676328 -15.6875 119.1796875 C-15.70643311 118.35800079 -15.72536621 117.53631409 -15.74487305 116.68972778 C-15.80556451 114.08343219 -15.8986752 111.48001244 -16 108.875 C-16.13326078 105.43496824 -16.2330133 101.99633478 -16.3125 98.5546875 C-16.3539917 97.77124969 -16.3954834 96.98781189 -16.43823242 96.18063354 C-16.522245 92.4275765 -16.25469308 90.35426994 -14.04296875 87.27783203 C-11 85 -11 85 -8.71156311 84.22050476 C-5.80458259 83.13864114 -4.13404127 82.27922016 -2 80 C-0.54591019 74.04448235 -0.67076901 68.11456417 -0.68359375 62.01171875 C-0.65549104 60.22518001 -0.62345857 58.43869911 -0.58766174 56.65229797 C-0.50414659 51.95861314 -0.47395373 47.26604642 -0.45489502 42.57171631 C-0.42090071 36.93522058 -0.32062112 31.29956046 -0.2314682 25.66371918 C-0.10355223 17.10871237 -0.059812 8.55697475 0 0 Z " fill="#735E01" transform="translate(84,1)"/>
<path d="M0 0 C23.43 0 46.86 0 71 0 C71 26.4 71 52.8 71 80 C66.6214626 78.24858504 63.02927258 76.37016034 59 74 C59.05800781 73.43152344 59.11601562 72.86304687 59.17578125 72.27734375 C59.48855368 66.92446701 58.94285469 63.62268965 55.484375 59.4453125 C53.13516062 57.15791955 51.12381484 55.99962075 48 55 C44.22623449 55.21615256 44.22623449 55.21615256 41 56 C40.34 57.98 39.68 59.96 39 62 C37.98679687 62.19916016 37.98679687 62.19916016 36.953125 62.40234375 C36.06109375 62.57894531 35.1690625 62.75554688 34.25 62.9375 C33.36828125 63.11152344 32.4865625 63.28554687 31.578125 63.46484375 C29.36764947 63.92368488 27.18487932 64.43336074 25 65 C23.76302083 63.47005208 22.52604167 61.94010417 21.2890625 60.41015625 C19.14922225 58.06930071 17.8391046 57.98212273 14.625 57.625 C10.93985749 57.63472725 10.93985749 57.63472725 8.80078125 60.078125 C6.04768844 64.54518231 6.56098585 68.69261313 6.56640625 73.8203125 C6 77 6 77 3.58984375 78.9296875 C1 80 1 80 -1 80 C-1.15009666 53.31050458 -0.71630886 26.68250513 0 0 Z " fill="#DDE0A5" transform="translate(84,1)"/>
<path d="M0 0 C0.33 0 0.66 0 1 0 C1 2.64 1 5.28 1 8 C0.34 8.33 -0.32 8.66 -1 9 C-1 9.66 -1 10.32 -1 11 C0.98570578 12.32983485 3.0559931 13.43978459 5.15234375 14.5859375 C7.39107871 16.29930337 7.45568391 17.31690653 8 20 C10.2806707 21.21297649 10.2806707 21.21297649 13 22 C13.73605469 22.34289062 14.47210938 22.68578125 15.23046875 23.0390625 C18.62649142 24.2173722 21.47321845 24.26535522 25.0625 24.25 C26.27035156 24.25515625 27.47820312 24.2603125 28.72265625 24.265625 C31.83899621 24.01304917 33.31236058 23.40723592 36 22 C38.75 23.1875 38.75 23.1875 41 25 C41 25.99 41 26.98 41 28 C40.23856689 28.43868408 39.47713379 28.87736816 38.69262695 29.3293457 C35.85030036 30.96717549 33.00820408 32.60540352 30.16625977 34.24389648 C28.93946294 34.95108596 27.71257625 35.65811957 26.4855957 36.36499023 C24.71541709 37.38483736 22.94556931 38.40525657 21.17578125 39.42578125 C19.58117065 40.34484253 19.58117065 40.34484253 17.9543457 41.2824707 C16.03187956 42.40010968 14.12542012 43.54590675 12.23901367 44.72338867 C10 46 10 46 8 46 C7.34 49.3 6.68 52.6 6 56 C12.24167351 53.00767443 18.33101565 49.88213919 24.24609375 46.28125 C25.26767578 45.65992188 26.28925781 45.03859375 27.34179688 44.3984375 C29.43942279 43.11207006 31.53041296 41.81483023 33.61523438 40.5078125 C34.62779297 39.89679688 35.64035156 39.28578125 36.68359375 38.65625 C37.58650146 38.09744141 38.48940918 37.53863281 39.41967773 36.96289062 C42 36 42 36 44.83227539 36.83398438 C45.54762451 37.21876953 46.26297363 37.60355469 47 38 C44.57894937 40.67951685 41.96042498 42.3396663 38.84375 44.14453125 C37.30847656 45.03688477 37.30847656 45.03688477 35.7421875 45.94726562 C34.13730469 46.87055664 34.13730469 46.87055664 32.5 47.8125 C30.94152344 48.71838867 30.94152344 48.71838867 29.3515625 49.64257812 C26.24259892 51.4432185 23.12390066 53.22541525 20 55 C18.98486328 55.58088379 17.96972656 56.16176758 16.92382812 56.76025391 C15.95896484 57.30214355 14.99410156 57.8440332 14 58.40234375 C13.1440625 58.88566162 12.288125 59.36897949 11.40625 59.86694336 C7.45705478 61.7265431 4.22129815 62.05892633 0 61 C-3.89839562 59.35824664 -7.40713973 57.22178135 -11 55 C-12.2617435 54.24395794 -13.52483572 53.49016349 -14.7890625 52.73828125 C-17.33999932 51.21906083 -19.88378234 49.68900708 -22.421875 48.1484375 C-24.88951181 46.65401058 -27.37919589 45.20862156 -29.890625 43.7890625 C-33 42 -33 42 -34 41 C-35.1097561 29.77560976 -35.1097561 29.77560976 -32.125 25 C-28.74904603 22.83938946 -25.33118481 21.04206076 -21.70703125 19.3359375 C-17.99741817 17.50521936 -14.53169738 15.33557573 -11.03125 13.13671875 C-9 12 -9 12 -7 12 C-6.6596875 10.9790625 -6.6596875 10.9790625 -6.3125 9.9375 C-4.67589055 6.27461218 -2.55710888 3.0916961 0 0 Z " fill="#DFBB1C" transform="translate(68,129)"/>
<path d="M0 0 C4.46188537 1.30983377 7.09901425 4.38505347 9.9375 7.98046875 C11.37985679 11.34596794 11.33611688 13.98004505 11.0625 17.60546875 C10.7325 18.26546875 10.4025 18.92546875 10.0625 19.60546875 C10.743125 19.85296875 11.42375 20.10046875 12.125 20.35546875 C15.63115083 21.84744783 18.77870368 23.67382386 22.0625 25.60546875 C23.04254109 29.89587084 23.28813002 33.34666191 22.0625 37.60546875 C18.20942048 41.04689448 13.92819265 43.17037248 9.31787109 45.44628906 C4.6605077 47.84000647 0.25251652 50.68969959 -4.21264648 53.42041016 C-5.22500366 54.02248291 -5.22500366 54.02248291 -6.2578125 54.63671875 C-6.84836426 54.99314453 -7.43891602 55.34957031 -8.04736328 55.71679688 C-10.47254726 56.85702804 -12.24134873 57.43068853 -14.9375 57.60546875 C-17.98022461 56.3137207 -17.98022461 56.3137207 -21.33984375 54.34375 C-22.24012047 53.82315254 -22.24012047 53.82315254 -23.15858459 53.29203796 C-25.07225972 52.18075994 -26.97332161 51.04962761 -28.875 49.91796875 C-30.14964053 49.17514368 -31.42502485 48.43359335 -32.70117188 47.69335938 C-38.21852882 44.4763457 -43.64884152 41.18621189 -48.9375 37.60546875 C-47.65902424 33.77004146 -46.15369249 33.10723149 -42.7109375 31.2734375 C-40.9375 30.60546875 -40.9375 30.60546875 -38.75 31.10546875 C-36.6721943 32.82503209 -34.77763639 34.63389404 -32.9375 36.60546875 C-34.2575 37.26546875 -35.5775 37.92546875 -36.9375 38.60546875 C-34.58389882 40.02308182 -32.22963772 41.43957915 -29.875 42.85546875 C-29.21822266 43.25121094 -28.56144531 43.64695313 -27.88476562 44.0546875 C-26.56015445 44.85075924 -25.23248486 45.64176339 -23.90185547 46.42773438 C-22.60529389 47.20509121 -21.32234585 48.00567799 -20.05517578 48.83007812 C-16.55467518 51.08189766 -16.55467518 51.08189766 -12.52050781 51.36450195 C-9.81689487 50.57002817 -7.71521635 49.53513761 -5.29296875 48.1015625 C-4.45185547 47.60849609 -3.61074219 47.11542969 -2.74414062 46.60742188 C-1.87982422 46.09115234 -1.01550781 45.57488281 -0.125 45.04296875 C0.75865234 44.52283203 1.64230469 44.00269531 2.55273438 43.46679688 C4.72651428 42.18602925 6.89617087 40.89878535 9.0625 39.60546875 C5.12336274 36.32285437 1.02981133 33.50037371 -3.3125 30.79296875 C-3.94671875 30.37337891 -4.5809375 29.95378906 -5.234375 29.52148438 C-8.72404817 27.36002354 -10.53549093 26.60670317 -14.75390625 26.59375 C-17.95396751 27.30515486 -17.95396751 27.30515486 -19.50390625 29.41796875 C-19.83261719 30.13984375 -20.16132812 30.86171875 -20.5 31.60546875 C-22.62924745 35.47429745 -22.62924745 35.47429745 -25.875 36.85546875 C-29.93193216 36.52429061 -32.2381683 35.57473363 -34.9375 32.60546875 C-39.51825053 25.85984296 -41.92722514 19.45758985 -41.453125 11.2578125 C-40.60839916 6.91259396 -39.51178319 5.267169 -35.9375 2.60546875 C-31.35348441 2.35989649 -29.5314176 3.1126435 -26 6.04296875 C-23.9375 8.60546875 -23.9375 8.60546875 -23.9375 10.60546875 C-22.7 9.86296875 -22.7 9.86296875 -21.4375 9.10546875 C-17.18261812 7.28194794 -14.51441329 7.36873186 -9.9375 7.60546875 C-9.834375 6.65671875 -9.73125 5.70796875 -9.625 4.73046875 C-8.39483815 -0.86117601 -5.09569645 -0.79620257 0 0 Z " fill="#846D03" transform="translate(132.9375,55.39453125)"/>
<path d="M0 0 C23.43 0 46.86 0 71 0 C71 8.58 71 17.16 71 26 C69.07815673 27.92184327 65.80710692 27.26210059 63.25 27.3125 C62.01765625 27.34988281 60.7853125 27.38726563 59.515625 27.42578125 C55.40922234 26.92845026 54.03754793 25.69260605 51 23 C43.9174663 20.43425194 37.55658101 23.10837966 31 26 C30.34 26.33 29.68 26.66 29 27 C27.00039988 27.039992 24.99952758 27.04346799 23 27 C23 26.34 23 25.68 23 25 C22.01902344 25.32742187 21.03804687 25.65484375 20.02734375 25.9921875 C15.82996195 27.19143944 11.89766524 27.22730211 7.5625 27.125 C5.066875 27.08375 2.57125 27.0425 0 27 C0 18.09 0 9.18 0 0 Z " fill="#F0E8A7" transform="translate(84,1)"/>
<path d="M0 0 C2.77134066 0.47637099 5.54205433 0.95597549 8.3125 1.4375 C9.09818359 1.57220703 9.88386719 1.70691406 10.69335938 1.84570312 C11.45068359 1.97783203 12.20800781 2.10996094 12.98828125 2.24609375 C13.68477783 2.36654053 14.38127441 2.4869873 15.09887695 2.61108398 C17 3 17 3 20 4 C20.66 3.34 21.32 2.68 22 2 C24.27721943 3.23938495 26.54629877 4.49075124 28.8125 5.75 C29.45509766 6.09804687 30.09769531 6.44609375 30.75976562 6.8046875 C34.26560237 8.76650288 37.10894355 10.38474502 39 14 C39.29296875 16.359375 39.29296875 16.359375 39.1875 18.75 C39.14689453 19.94882813 39.14689453 19.94882813 39.10546875 21.171875 C39.07066406 21.77515625 39.03585938 22.3784375 39 23 C40.485 23.495 40.485 23.495 42 24 C42.26635742 26.28808594 42.26635742 26.28808594 42 29 C40.2277832 30.78222656 40.2277832 30.78222656 37.73828125 32.390625 C36.82385254 32.98552734 35.90942383 33.58042969 34.96728516 34.19335938 C30.09962699 37.15704791 25.17440526 39.99211485 20.1875 42.75 C18.18071168 43.86929355 16.17419167 44.98906834 14.16796875 46.109375 C13.29422607 46.59374023 12.4204834 47.07810547 11.52026367 47.57714844 C9.75792199 48.5721041 8.01978097 49.61060789 6.30200195 50.68066406 C4 52 4 52 2 52 C2 52.66 2 53.32 2 54 C2.639375 54.309375 3.27875 54.61875 3.9375 54.9375 C6 56 6 56 7 57 C7.4921875 59.2890625 7.4921875 59.2890625 7 62 C4.70816457 63.75558424 2.65185144 65.03391114 0.125 66.375 C-1.41564857 67.23516864 -2.955992 68.09588393 -4.49609375 68.95703125 C-5.78942627 69.66786865 -5.78942627 69.66786865 -7.10888672 70.39306641 C-10.37628169 72.20914424 -13.6144711 74.07321558 -16.84765625 75.94921875 C-17.43293091 76.28870544 -18.01820557 76.62819214 -18.62121582 76.97796631 C-19.80428836 77.66441188 -20.9872922 78.35097586 -22.17022705 79.03765869 C-25.01555962 80.6876666 -27.86481167 82.33077609 -30.71484375 83.97265625 C-31.68542725 84.53218994 -32.65601074 85.09172363 -33.65600586 85.66821289 C-37.23014858 87.6989335 -39.30559976 88.18415298 -43.4375 88.25 C-44.40558594 88.27578125 -45.37367187 88.3015625 -46.37109375 88.328125 C-49 88 -49 88 -50.84765625 86.484375 C-51.22792969 85.99453125 -51.60820313 85.5046875 -52 85 C-50.35837891 84.690625 -50.35837891 84.690625 -48.68359375 84.375 C-42.94265844 82.93251593 -38.13517171 79.9706632 -33.0625 77 C-32.05993164 76.4227417 -31.05736328 75.8454834 -30.02441406 75.25073242 C-27.01000061 73.5110387 -24.00408885 71.75744974 -21 70 C-19.27474041 68.99609233 -17.54948005 67.99218598 -15.82421875 66.98828125 C-8.32180452 62.64021289 -8.32180452 62.64021289 -1 58 C-0.66207464 55.38322508 -0.51113911 52.99063608 -0.48828125 50.3671875 C-0.47033005 49.61535187 -0.45237885 48.86351624 -0.43388367 48.08889771 C-0.37964219 45.68432244 -0.34584208 43.27994715 -0.3125 40.875 C-0.27933898 39.24606583 -0.24485045 37.6171581 -0.20898438 35.98828125 C-0.12390838 31.99233154 -0.05716422 27.99644254 0 24 C1.10279297 23.95174072 2.20558594 23.90348145 3.34179688 23.85375977 C4.80080563 23.77928464 6.25978879 23.70430701 7.71875 23.62890625 C8.44416992 23.59849243 9.16958984 23.56807861 9.91699219 23.53674316 C15.39930029 23.23858803 18.69853515 22.33363526 23 19 C23.05270463 17.63106761 23.05270463 17.63106761 22 15 C21.96079185 13.00038436 21.95556653 10.99950636 22 9 C15.80991436 4.49811954 10.51750084 4.37524857 3 5 C1.32756073 5.30304417 -0.34187988 5.62646745 -2 6 C-2 5.34 -2 4.68 -2 4 C-1.34 3.67 -0.68 3.34 0 3 C0 2.01 0 1.02 0 0 Z " fill="#C2B98D" transform="translate(169,83)"/>
<path d="M0 0 C3.4367235 0.30246059 5.38425478 1.41213438 8.34765625 3.16699219 C9.91386719 4.08738281 9.91386719 4.08738281 11.51171875 5.02636719 C13.13207031 6.00089844 13.13207031 6.00089844 14.78515625 6.99511719 C16.40550781 7.94644531 16.40550781 7.94644531 18.05859375 8.91699219 C32.00472645 17.18136712 32.00472645 17.18136712 33.78515625 22.24511719 C35.09681844 29.62589577 35.47940618 37.916534 33.78515625 45.24511719 C30.65730661 49.15366188 27.33395881 50.71881569 22.69335938 52.46923828 C19.41011656 53.80421086 16.44678037 55.68197923 13.41015625 57.49511719 C11.20249233 58.74629908 8.99416831 59.99631702 6.78515625 61.24511719 C6.16995117 61.61572266 5.55474609 61.98632812 4.92089844 62.36816406 C0.09985309 65.24511719 0.09985309 65.24511719 -3.21484375 65.24511719 C-3.70710252 58.84575317 -3.70710252 58.84575317 -1.56811523 56.23583984 C1.05205798 54.01933477 3.71037095 52.35184592 6.6875 50.64355469 C7.82509766 49.98871094 8.96269531 49.33386719 10.13476562 48.65917969 C10.72410889 48.3243457 11.31345215 47.98951172 11.9206543 47.64453125 C13.71771174 46.62292807 15.50859946 45.591131 17.29882812 44.55761719 C26.86110858 39.08108758 26.86110858 39.08108758 31.78515625 37.24511719 C31.78515625 36.25511719 31.78515625 35.26511719 31.78515625 34.24511719 C29.47515625 33.58511719 27.16515625 32.92511719 24.78515625 32.24511719 C24.12515625 32.90511719 23.46515625 33.56511719 22.78515625 34.24511719 C13.95731729 35.37232781 6.03788381 34.68466286 -1.21484375 29.24511719 C-2.90234375 26.68261719 -2.90234375 26.68261719 -4.21484375 24.24511719 C-6.46606295 22.66926375 -8.75631093 21.4975773 -11.21484375 20.24511719 C-9.96358991 16.49135567 -8.64960335 16.0043843 -5.21484375 14.24511719 C-4.55484375 14.24511719 -3.89484375 14.24511719 -3.21484375 14.24511719 C-3.22644531 13.31828125 -3.23804687 12.39144531 -3.25 11.43652344 C-3.25902344 10.23898438 -3.26804687 9.04144531 -3.27734375 7.80761719 C-3.28894531 6.61265625 -3.30054687 5.41769531 -3.3125 4.18652344 C-3.18520864 0.35250766 -3.18520864 0.35250766 0 0 Z " fill="#D5B115" transform="translate(77.21484375,119.7548828125)"/>
<path d="M0 0 C4.14298667 0.59834725 7.18194377 2.00664285 10.8125 4.0625 C11.78832031 4.61035156 12.76414063 5.15820312 13.76953125 5.72265625 C14.87361328 6.35494141 14.87361328 6.35494141 16 7 C13.86979193 9.28535857 11.7462071 10.89551472 9.05859375 12.48046875 C8.31029297 12.92197266 7.56199219 13.36347656 6.79101562 13.81835938 C6.01435547 14.27017578 5.23769531 14.72199219 4.4375 15.1875 C3.65697266 15.65091797 2.87644531 16.11433594 2.07226562 16.59179688 C-3.74527108 20 -3.74527108 20 -6 20 C-6.66 23.3 -7.32 26.6 -8 30 C-1.75832649 27.00767443 4.33101565 23.88213919 10.24609375 20.28125 C11.26767578 19.65992188 12.28925781 19.03859375 13.34179688 18.3984375 C15.43942279 17.11207006 17.53041296 15.81483023 19.61523438 14.5078125 C20.62779297 13.89679688 21.64035156 13.28578125 22.68359375 12.65625 C23.58650146 12.09744141 24.48940918 11.53863281 25.41967773 10.96289062 C28 10 28 10 30.83227539 10.83398438 C31.54762451 11.21876953 32.26297363 11.60355469 33 12 C30.57894937 14.67951685 27.96042498 16.3396663 24.84375 18.14453125 C23.30847656 19.03688477 23.30847656 19.03688477 21.7421875 19.94726562 C20.67226562 20.56279297 19.60234375 21.17832031 18.5 21.8125 C17.46101563 22.41642578 16.42203125 23.02035156 15.3515625 23.64257812 C12.24259892 25.4432185 9.12390066 27.22541525 6 29 C4.98486328 29.58088379 3.96972656 30.16176758 2.92382812 30.76025391 C1.95896484 31.30214355 0.99410156 31.8440332 0 32.40234375 C-0.8559375 32.88566162 -1.711875 33.36897949 -2.59375 33.86694336 C-6.54294522 35.7265431 -9.77870185 36.05892633 -14 35 C-17.89839562 33.35824664 -21.40713973 31.22178135 -25 29 C-26.2617435 28.24395794 -27.52483572 27.49016349 -28.7890625 26.73828125 C-31.33999932 25.21906083 -33.88378234 23.68900708 -36.421875 22.1484375 C-38.88951181 20.65401058 -41.37919589 19.20862156 -43.890625 17.7890625 C-47 16 -47 16 -48 15 C-48.07226502 13.14712498 -48.0838122 11.29166122 -48.0625 9.4375 C-48.05347656 8.42558594 -48.04445312 7.41367188 -48.03515625 6.37109375 C-48.02355469 5.58863281 -48.01195312 4.80617187 -48 4 C-45.03 4 -42.06 4 -39 4 C-39.33 3.01 -39.66 2.02 -40 1 C-37.625 1.625 -37.625 1.625 -35 3 C-34.731875 3.928125 -34.46375 4.85625 -34.1875 5.8125 C-32.72263713 9.74450034 -31.27941605 11.04902168 -27.67578125 13.078125 C-21.20775265 15.30652609 -13.84433497 15.17294308 -7.32421875 13.18359375 C-4.09254522 11.48799905 -2.43130745 10.09753982 -1.08203125 6.6640625 C-0.55719858 4.43088189 -0.1989885 2.28339309 0 0 Z " fill="#E2DDC6" transform="translate(82,155)"/>
<path d="M0 0 C2.45585501 2.53260048 2.92627519 3.55695844 3.4375 7.0625 C3.305228 13.41155587 -0.71361049 18.77175546 -5.05078125 23.1171875 C-11.97772982 28.85068312 -19.80456559 32.84359039 -28.9609375 32.390625 C-32.06359965 31.89134603 -34.37277912 30.75142771 -37 29.0625 C-37.61875 28.670625 -38.2375 28.27875 -38.875 27.875 C-40.85354317 24.68734712 -40.73893112 21.60321161 -40 18.0625 C-35.69979912 8.56622305 -27.41697962 2.71624374 -18.04296875 -1.2109375 C-11.74226132 -3.45172446 -5.77213163 -3.72783501 0 0 Z " fill="#E1BB19" transform="translate(138,24.9375)"/>
<path d="M0 0 C0.33 0 0.66 0 1 0 C1 2.97 1 5.94 1 9 C1.99 9.33 2.98 9.66 4 10 C4.26635742 12.28808594 4.26635742 12.28808594 4 15 C2.2277832 16.78222656 2.2277832 16.78222656 -0.26171875 18.390625 C-1.17614746 18.98552734 -2.09057617 19.58042969 -3.03271484 20.19335938 C-7.90037301 23.15704791 -12.82559474 25.99211485 -17.8125 28.75 C-19.81928832 29.86929355 -21.82580833 30.98906834 -23.83203125 32.109375 C-24.70577393 32.59374023 -25.5795166 33.07810547 -26.47973633 33.57714844 C-28.24207801 34.5721041 -29.98021903 35.61060789 -31.69799805 36.68066406 C-34 38 -34 38 -36 38 C-36 38.66 -36 39.32 -36 40 C-35.360625 40.309375 -34.72125 40.61875 -34.0625 40.9375 C-32 42 -32 42 -31 43 C-30.5078125 45.2890625 -30.5078125 45.2890625 -31 48 C-33.29183543 49.75558424 -35.34814856 51.03391114 -37.875 52.375 C-39.41564857 53.23516864 -40.955992 54.09588393 -42.49609375 54.95703125 C-43.78942627 55.66786865 -43.78942627 55.66786865 -45.10888672 56.39306641 C-48.37628169 58.20914424 -51.6144711 60.07321558 -54.84765625 61.94921875 C-55.43293091 62.28870544 -56.01820557 62.62819214 -56.62121582 62.97796631 C-57.80428836 63.66441188 -58.9872922 64.35097586 -60.17022705 65.03765869 C-63.01555962 66.6876666 -65.86481167 68.33077609 -68.71484375 69.97265625 C-69.68542725 70.53218994 -70.65601074 71.09172363 -71.65600586 71.66821289 C-75.23014858 73.6989335 -77.30559976 74.18415298 -81.4375 74.25 C-82.40558594 74.27578125 -83.37367187 74.3015625 -84.37109375 74.328125 C-87 74 -87 74 -88.84765625 72.484375 C-89.22792969 71.99453125 -89.60820313 71.5046875 -90 71 C-88.35837891 70.690625 -88.35837891 70.690625 -86.68359375 70.375 C-80.94270512 68.93252765 -76.13506461 65.97077639 -71.0625 63 C-70.05920654 62.4220166 -69.05591309 61.8440332 -68.0222168 61.24853516 C-65.00899869 59.50882177 -62.00402236 57.75553216 -59 56 C-57.28670063 55.00739416 -55.57317609 54.01517684 -53.859375 53.0234375 C-52.34317785 52.14160801 -50.82751597 51.25885726 -49.3125 50.375 C-48.62486572 49.97410156 -47.93723145 49.57320312 -47.22875977 49.16015625 C-45.47445861 48.12583611 -43.73624609 47.06434967 -42 46 C-41.2771582 45.56389404 -40.55431641 45.12778809 -39.80957031 44.6784668 C-37.77354401 43.14307346 -37.77354401 43.14307346 -37.66967773 40.69311523 C-37.69489502 39.84434814 -37.7201123 38.99558105 -37.74609375 38.12109375 C-37.44185053 33.47485303 -37.44185053 33.47485303 -35.53564453 31.42626953 C-33.43342774 30.12065996 -31.31900532 29.07840571 -29.0625 28.0625 C-27.42836766 27.23045166 -25.79559499 26.39572854 -24.1640625 25.55859375 C-22.8941748 24.92993408 -22.8941748 24.92993408 -21.59863281 24.28857422 C-8.51369755 18.70534412 -8.51369755 18.70534412 0.34765625 8.63671875 C0.60176169 5.59103244 0.5547097 2.99857223 0 0 Z " fill="#DDCF93" transform="translate(207,97)"/>
<path d="M0 0 C2.40356445 1.05395508 2.40356445 1.05395508 4.86328125 2.51953125 C5.74951172 3.04740234 6.63574219 3.57527344 7.54882812 4.11914062 C8.46083984 4.67794922 9.37285156 5.23675781 10.3125 5.8125 C11.24384766 6.35970703 12.17519531 6.90691406 13.13476562 7.47070312 C14.01455078 8.00244141 14.89433594 8.53417969 15.80078125 9.08203125 C17.00988159 9.81256714 17.00988159 9.81256714 18.2434082 10.55786133 C18.8230835 11.03376709 19.40275879 11.50967285 20 12 C20 12.99 20 13.98 20 15 C16.61794651 17.04459897 13.21744543 19.05629449 9.8125 21.0625 C8.85279297 21.64322266 7.89308594 22.22394531 6.90429688 22.82226562 C5.97294922 23.36689453 5.04160156 23.91152344 4.08203125 24.47265625 C3.22843018 24.98062744 2.3748291 25.48859863 1.49536133 26.01196289 C-1.57180039 27.22640409 -2.89245775 27.02937337 -6 26 C-8.49536133 24.78491211 -8.49536133 24.78491211 -11.08203125 23.27734375 C-12.01337891 22.73916016 -12.94472656 22.20097656 -13.90429688 21.64648438 C-14.86400391 21.08251953 -15.82371094 20.51855469 -16.8125 19.9375 C-17.79154297 19.36966797 -18.77058594 18.80183594 -19.77929688 18.21679688 C-22.18993348 16.81745173 -24.5965851 15.41170071 -27 14 C-24.296875 11.05078125 -24.296875 11.05078125 -21.625 10.59375 C-19.875 10.53125 -18.125 10.46875 -16.375 10.40625 C-13.54015958 9.92134309 -12.75945504 9.22411824 -11 7 C-10.319375 5.96875 -9.63875 4.9375 -8.9375 3.875 C-6.25756582 -0.10167652 -4.64681742 -0.38155313 0 0 Z " fill="#977C02" transform="translate(122,81)"/>
<path d="M0 0 C0.90105469 0.11085938 1.80210938 0.22171875 2.73046875 0.3359375 C3.76107422 0.47902344 3.76107422 0.47902344 4.8125 0.625 C5.3075 2.11 5.3075 2.11 5.8125 3.625 C7.85302823 5.13948851 7.85302823 5.13948851 10.3984375 6.5078125 C11.32914063 7.03503906 12.25984375 7.56226562 13.21875 8.10546875 C14.1984375 8.64816406 15.178125 9.19085938 16.1875 9.75 C17.64542969 10.57564453 17.64542969 10.57564453 19.1328125 11.41796875 C24.31325928 14.37229757 24.31325928 14.37229757 29.8125 16.625 C29.8125 17.285 29.8125 17.945 29.8125 18.625 C27.70458984 20.07373047 27.70458984 20.07373047 24.7734375 21.7421875 C23.71769531 22.34933594 22.66195312 22.95648438 21.57421875 23.58203125 C20.45660156 24.21496094 19.33898437 24.84789063 18.1875 25.5 C16.00685272 26.74571723 13.82713684 27.99306655 11.6484375 29.2421875 C10.10687988 30.11762207 10.10687988 30.11762207 8.53417969 31.01074219 C6.37295058 32.29259067 4.40979399 33.61876441 2.4140625 35.1328125 C-1.01364854 37.09885697 -2.39493154 36.56321016 -6.1875 35.625 C-9.16015625 34.19799805 -9.16015625 34.19799805 -12.25 32.38671875 C-13.37664062 31.73123047 -14.50328125 31.07574219 -15.6640625 30.40039062 C-16.8385709 29.70447642 -18.01304984 29.0085125 -19.1875 28.3125 C-20.36150748 27.62744622 -21.53598315 26.94319413 -22.7109375 26.25976562 C-27.9725472 23.18045972 -33.13863236 20.03966355 -38.1875 16.625 C-36.90902424 12.78957271 -35.40369249 12.12676274 -31.9609375 10.29296875 C-30.1875 9.625 -30.1875 9.625 -28 10.125 C-25.9221943 11.84456334 -24.02763639 13.65342529 -22.1875 15.625 C-24.1675 16.615 -24.1675 16.615 -26.1875 17.625 C-23.83389882 19.04261307 -21.47963772 20.4591104 -19.125 21.875 C-18.46822266 22.27074219 -17.81144531 22.66648437 -17.13476562 23.07421875 C-15.81015445 23.87029049 -14.48248486 24.66129464 -13.15185547 25.44726562 C-11.85529389 26.22462246 -10.57234585 27.02520924 -9.30517578 27.84960938 C-5.80467518 30.10142891 -5.80467518 30.10142891 -1.77050781 30.3840332 C0.93310513 29.58955942 3.03478365 28.55466886 5.45703125 27.12109375 C6.29814453 26.62802734 7.13925781 26.13496094 8.00585938 25.62695312 C8.87017578 25.11068359 9.73449219 24.59441406 10.625 24.0625 C11.50865234 23.54236328 12.39230469 23.02222656 13.30273438 22.48632812 C15.47651428 21.2055605 17.64617087 19.9183166 19.8125 18.625 C9.35484968 9.82773351 9.35484968 9.82773351 -3.16796875 5.265625 C-5.84484288 5.51893311 -5.84484288 5.51893311 -9.1875 6.625 C-8.875 4.25 -8.875 4.25 -8.1875 1.625 C-4.73535147 -0.67643236 -3.95270676 -0.51333854 0 0 Z " fill="#E7CF66" transform="translate(122.1875,76.375)"/>
<path d="M0 0 C0.33 0 0.66 0 1 0 C1 2.64 1 5.28 1 8 C0.34 8.33 -0.32 8.66 -1 9 C-1 9.66 -1 10.32 -1 11 C0.98570578 12.32983485 3.0559931 13.43978459 5.15234375 14.5859375 C7.39107871 16.29930337 7.45568391 17.31690653 8 20 C10.2806707 21.21297649 10.2806707 21.21297649 13 22 C13.73605469 22.34289062 14.47210938 22.68578125 15.23046875 23.0390625 C18.62649142 24.2173722 21.47321845 24.26535522 25.0625 24.25 C26.27035156 24.25515625 27.47820312 24.2603125 28.72265625 24.265625 C31.83899621 24.01304917 33.31236058 23.40723592 36 22 C38.75 23.1875 38.75 23.1875 41 25 C41 25.99 41 26.98 41 28 C37.51793007 30.78426032 34.33236476 32.84367489 30 34 C25.12041014 32.45820433 21.24814529 29.79453589 17 27 C15.34331132 26.30891039 13.67795023 25.63773446 12 25 C9.99384866 23.67594012 7.99330842 22.34331654 6 21 C-1.00081588 18.66639471 -8.27108982 19.66955143 -15.125 22.05078125 C-18.52259421 23.77081332 -19.79612066 25.38836197 -21 29 C-22.32 28.67 -23.64 28.34 -25 28 C-25 28.66 -25 29.32 -25 30 C-27.97 30 -30.94 30 -34 30 C-32.94455096 25.77820384 -32.50494701 25.27561817 -29.00390625 23.1328125 C-25.5888909 21.202297 -22.15173112 19.31629027 -18.6953125 17.4609375 C-16.41369619 16.22423533 -14.17228832 14.9434316 -11.9375 13.625 C-9 12 -9 12 -7 12 C-6.6596875 10.9790625 -6.6596875 10.9790625 -6.3125 9.9375 C-4.67589055 6.27461218 -2.55710888 3.0916961 0 0 Z " fill="#B5A458" transform="translate(68,129)"/>
<path d="M0 0 C23.43 0 46.86 0 71 0 C71 1.98 71 3.96 71 6 C47.57 6 24.14 6 0 6 C0 4.02 0 2.04 0 0 Z " fill="#FFE09B" transform="translate(84,1)"/>
<path d="M0 0 C4.65607521 1.71539613 6.73748357 4.34919856 9.5625 8.3125 C8.5725 8.3125 7.5825 8.3125 6.5625 8.3125 C6.2325 7.3225 5.9025 6.3325 5.5625 5.3125 C4.5725 5.3125 3.5825 5.3125 2.5625 5.3125 C3.4596875 6.0859375 3.4596875 6.0859375 4.375 6.875 C9.14077377 12.18543362 9.89572131 17.07842163 9.9609375 23.98046875 C9.48268911 26.77962846 8.40512503 28.19201882 6.5625 30.3125 C0.8125 29.5625 0.8125 29.5625 -1.4375 27.3125 C-2.4275 27.3125 -3.4175 27.3125 -4.4375 27.3125 C-8.30023319 20.48373953 -9.70017761 14.1322403 -8.4375 6.3125 C-6.69478613 2.10222668 -4.65849353 0.42349941 0 0 Z " fill="#E3BC18" transform="translate(100.4375,57.6875)"/>
<path d="M0 0 C2.82752339 1.42768059 4.76403766 2.76403766 7 5 C6.8125 7.5 6.8125 7.5 6 10 C5.01 10.66 4.02 11.32 3 12 C3.33 12.66 3.66 13.32 4 14 C-2.73797096 16.99465376 -10.67764697 17.2240248 -17.5625 14.6875 C-21.77272727 11.77272727 -21.77272727 11.77272727 -23 10 C-23.1875 7.3125 -23.1875 7.3125 -23 5 C-22.34 4.67 -21.68 4.34 -21 4 C-20.67 6.31 -20.34 8.62 -20 11 C-20 10.01 -20 9.02 -20 8 C-19.79931559 4.88939159 -18.99326107 3.99326107 -16.75 1.75 C-11.85468564 -1.26341735 -5.49932827 -0.76398678 0 0 Z " fill="#E2BC18" transform="translate(98,135)"/>
<path d="M0 0 C23.43 0 46.86 0 71 0 C71 2.64 71 5.28 71 8 C70.505 6.515 70.505 6.515 70 5 C47.23 5 24.46 5 1 5 C0.67 5.66 0.34 6.32 0 7 C0 4.69 0 2.38 0 0 Z " fill="#DCD49B" transform="translate(84,7)"/>
<path d="M0 0 C0.86115258 3.59181589 1.05754626 6.43397446 0 10 C-3.34016696 13.00886585 -7.11234536 14.99200064 -11.09179688 17.01464844 C-13.63747723 18.32917836 -16.10378254 19.76587076 -18.57958984 21.20654297 C-21.37211548 22.82950388 -24.18832737 24.41050336 -27 26 C-27.61520508 26.37060547 -28.23041016 26.74121094 -28.86425781 27.12304688 C-33.68530316 30 -33.68530316 30 -37 30 C-37.4922228 23.60110359 -37.4922228 23.60110359 -35.35107422 20.98632812 C-32.74254466 18.78248633 -30.10627653 17.14873625 -27.1328125 15.46875 C-25.43318359 14.50001953 -25.43318359 14.50001953 -23.69921875 13.51171875 C-22.50801407 12.84078783 -21.31660614 12.17021766 -20.125 11.5 C-17.79249042 10.18018141 -15.46249114 8.85607293 -13.1328125 7.53125 C-11.58424561 6.65823242 -11.58424561 6.65823242 -10.00439453 5.76757812 C-7.85608489 4.50366119 -5.75114134 3.16485676 -3.67919922 1.77929688 C-1 0 -1 0 0 0 Z " fill="#93802D" transform="translate(111,155)"/>
<path d="M0 0 C3.25 2.25 3.25 2.25 5 5 C5 7.6875 5 7.6875 4 10 C3.01 10.66 2.02 11.32 1 12 C1.33 12.66 1.66 13.32 2 14 C-1.55847215 16.21747156 -4.48538345 16.23889479 -8.625 16.1875 C-10.34589844 16.17783203 -10.34589844 16.17783203 -12.1015625 16.16796875 C-15 16 -15 16 -17 15 C-17 10.38 -17 5.76 -17 1 C-10.63418595 -1.12193802 -6.45711325 -1.51874439 0 0 Z " fill="#E3BE19" transform="translate(186,89)"/>
<path d="M0 0 C0.71534912 0.38478516 1.43069824 0.76957031 2.16772461 1.16601562 C-0.25332602 3.84553248 -2.87185042 5.50568193 -5.98852539 7.31054688 C-7.52379883 8.20290039 -7.52379883 8.20290039 -9.09008789 9.11328125 C-10.16000977 9.72880859 -11.22993164 10.34433594 -12.33227539 10.97851562 C-13.37125977 11.58244141 -14.41024414 12.18636719 -15.48071289 12.80859375 C-18.58966077 14.60922503 -21.70913186 16.39013951 -24.83227539 18.16601562 C-25.84233643 18.74907471 -26.85239746 19.33213379 -27.89306641 19.93286133 C-28.85398193 20.47644287 -29.81489746 21.02002441 -30.80493164 21.58007812 C-31.65579346 22.06557129 -32.50665527 22.55106445 -33.38330078 23.05126953 C-37.19684527 24.78715271 -40.75227981 25.05481134 -44.83227539 24.16601562 C-47.39477539 22.66601562 -47.39477539 22.66601562 -48.83227539 21.16601562 C-47.51227539 21.16601562 -46.19227539 21.16601562 -44.83227539 21.16601562 C-44.83227539 18.19601563 -44.83227539 15.22601563 -44.83227539 12.16601562 C-42.19227539 11.50601563 -39.55227539 10.84601563 -36.83227539 10.16601562 C-37.49227539 13.13601562 -38.15227539 16.10601562 -38.83227539 19.16601562 C-32.59060188 16.17369006 -26.50125975 13.04815481 -20.58618164 9.44726562 C-19.56459961 8.8259375 -18.54301758 8.20460937 -17.49047852 7.56445312 C-15.3928526 6.27808569 -13.30186243 4.98084585 -11.21704102 3.67382812 C-10.20448242 3.0628125 -9.19192383 2.45179688 -8.14868164 1.82226562 C-7.24577393 1.26345703 -6.34286621 0.70464844 -5.41259766 0.12890625 C-2.83227539 -0.83398438 -2.83227539 -0.83398438 0 0 Z " fill="#DCCF92" transform="translate(112.832275390625,165.833984375)"/>
<path d="M0 0 C3.09332687 0.23892787 4.71458507 1.01273934 7.37231445 2.58178711 C8.63398437 3.31945312 8.63398437 3.31945312 9.92114258 4.07202148 C10.78545898 4.5921582 11.64977539 5.11229492 12.5402832 5.64819336 C13.42393555 6.16446289 14.30758789 6.68073242 15.21801758 7.21264648 C19.91216562 9.98563741 19.91216562 9.98563741 21.7277832 11.21069336 C21.7277832 11.54069336 21.7277832 11.87069336 21.7277832 12.21069336 C20.8821582 12.16428711 20.0365332 12.11788086 19.1652832 12.07006836 C11.70066515 11.83255779 7.12073499 12.35079794 0.7277832 16.21069336 C0.0677832 16.21069336 -0.5922168 16.21069336 -1.2722168 16.21069336 C-1.6022168 19.18069336 -1.9322168 22.15069336 -2.2722168 25.21069336 C-5.2422168 23.56069336 -8.2122168 21.91069336 -11.2722168 20.21069336 C-10.02096296 16.45693184 -8.70697639 15.96996047 -5.2722168 14.21069336 C-4.6122168 14.21069336 -3.9522168 14.21069336 -3.2722168 14.21069336 C-3.28381836 13.28385742 -3.29541992 12.35702148 -3.30737305 11.40209961 C-3.31639648 10.20456055 -3.32541992 9.00702148 -3.3347168 7.77319336 C-3.34631836 6.57823242 -3.35791992 5.38327148 -3.36987305 4.15209961 C-3.2420018 0.30061755 -3.2420018 0.30061755 0 0 Z " fill="#A38609" transform="translate(77.272216796875,119.789306640625)"/>
<path d="M0 0 C4.07995754 2.3443854 7.14865747 5.68020075 9 10 C9.375 13.6875 9.375 13.6875 9 17 C6 19 6 19 3.1875 18.875 C-1.8597095 17.48949151 -4.96979819 15.19286525 -8.375 11.25 C-10.44926078 7.10147844 -10.31606889 4.58299894 -10 0 C-6.71153533 -1.64423234 -3.42665462 -0.93164167 0 0 Z " fill="#DBB618" transform="translate(135,56)"/>
<path d="M0 0 C0.33 0 0.66 0 1 0 C1.55616635 3.4743231 1.73314208 6.54227315 1 10 C-1.53199126 12.80707179 -4.6749904 14.26987579 -8 16 C-10.10498989 17.29032464 -12.20914263 18.5820159 -14.3125 19.875 C-18.0914471 22.15718766 -19.50136049 23 -24 23 C-24.36968295 16.46893462 -24.36968295 16.46893462 -22.77783203 14.44970703 C-20.73549117 12.78431016 -18.63833092 11.45529155 -16.3671875 10.1171875 C-15.47902344 9.58996094 -14.59085938 9.06273438 -13.67578125 8.51953125 C-12.28939453 7.70548828 -12.28939453 7.70548828 -10.875 6.875 C-9.03834292 5.79027998 -7.20236745 4.70440473 -5.3671875 3.6171875 C-4.55362793 3.13878418 -3.74006836 2.66038086 -2.90185547 2.16748047 C-1.06212326 1.13968797 -1.06212326 1.13968797 0 0 Z " fill="#93812D" transform="translate(206,99)"/>
<path d="M0 0 C4.14298667 0.59834725 7.18194377 2.00664285 10.8125 4.0625 C11.78832031 4.61035156 12.76414063 5.15820312 13.76953125 5.72265625 C14.87361328 6.35494141 14.87361328 6.35494141 16 7 C13.85279954 9.31169188 11.714762 10.90197989 8.98828125 12.48046875 C8.23095703 12.92197266 7.47363281 13.36347656 6.69335938 13.81835938 C5.51483398 14.49608398 5.51483398 14.49608398 4.3125 15.1875 C3.51521484 15.65091797 2.71792969 16.11433594 1.89648438 16.59179688 C-0.06663487 17.73205177 -2.03214871 18.86793773 -4 20 C-4.33 19.34 -4.66 18.68 -5 18 C-5.969375 18.020625 -6.93875 18.04125 -7.9375 18.0625 C-11 18 -11 18 -12 17 C-13.68183948 16.76712992 -15.3712416 16.58735834 -17.0625 16.4375 C-17.98160156 16.35371094 -18.90070312 16.26992187 -19.84765625 16.18359375 C-20.91306641 16.09271484 -20.91306641 16.09271484 -22 16 C-22 15.67 -22 15.34 -22 15 C-21.2265625 14.98582031 -20.453125 14.97164062 -19.65625 14.95703125 C-13.60045079 14.67972361 -8.53905535 14.22534183 -3.4921875 10.67578125 C-0.76839663 7.61686428 -0.34640112 3.97495281 0 0 Z " fill="#DFD9C1" transform="translate(82,155)"/>
<path d="M0 0 C23.43 0 46.86 0 71 0 C70.67 0.99 70.34 1.98 70 3 C46.9 3 23.8 3 0 3 C0 2.01 0 1.02 0 0 Z " fill="#FFFFCC" transform="translate(84,1)"/>
<path d="M0 0 C4.91428571 4.22857143 4.91428571 4.22857143 5.3125 7.8125 C5.209375 8.534375 5.10625 9.25625 5 10 C4.34 9.01 3.68 8.02 3 7 C0.09071158 3.80916754 -1.80849915 2.19922735 -6.234375 1.796875 C-11.99133429 1.68960247 -15.90170883 2.288143 -21 5 C-22.26221698 6.04579619 -22.26221698 6.04579619 -22.1875 8.375 C-22.20048548 11.23444863 -22.20048548 11.23444863 -20 14 C-20.33 14.33 -20.66 14.66 -21 15 C-14.95980076 17.71591692 -8.75707163 18.19236405 -2.390625 16.171875 C0.97950117 14.69606812 3.934884 13.04341066 7 11 C6.61422992 13.31462047 6.25564716 14.71258603 4.6796875 16.484375 C-1.96374282 21.14340406 -9.1485464 21.0959499 -17 20 C-21.10124537 18.37147629 -23.91113463 16.08886537 -27 13 C-27.40423832 9.91768278 -27.64143905 7.95743139 -27 5 C-20.77971575 -1.9788555 -8.15529624 -5.43686416 0 0 Z " fill="#B89A17" transform="translate(74,150)"/>
<path d="M0 0 C2.0625 1.625 2.0625 1.625 3 4 C3.1875 7.75 3.1875 7.75 3 11 C2.34 11 1.68 11 1 11 C0.54625 9.865625 0.0925 8.73125 -0.375 7.5625 C-1.57095806 3.95278308 -1.57095806 3.95278308 -4 3 C-12.71520941 1.87025063 -19.80213998 5.92398188 -26.71875 10.9921875 C-30.62812979 14.43297725 -32.69372662 18.00922303 -33.5 23.25 C-33.2328241 26.03956647 -33.2328241 26.03956647 -31.4375 27.8125 C-28.32204108 29.33028768 -25.43044042 29.67014996 -22 30 C-22.33 30.66 -22.66 31.32 -23 32 C-31.92674617 32.6132879 -31.92674617 32.6132879 -35.625 30.5 C-37.60591873 26.89832957 -37.89690083 23.9352393 -37 20 C-32.67666227 10.50497147 -24.43049789 4.65940713 -15.04296875 0.7265625 C-9.81009642 -1.13445902 -5.43216597 -1.30660053 0 0 Z " fill="#E7BD1F" transform="translate(135,23)"/>
<path d="M0 0 C7.02484242 3.94271783 7.02484242 3.94271783 8.08984375 6.92578125 C8.16074219 7.52003906 8.23164063 8.11429688 8.3046875 8.7265625 C7.3559375 8.4171875 6.4071875 8.1078125 5.4296875 7.7890625 C1.49703037 6.64939451 -2.38851076 6.28251481 -6.4609375 5.97265625 C-8.6953125 5.7265625 -8.6953125 5.7265625 -11.6953125 4.7265625 C-12.0253125 5.7165625 -12.3553125 6.7065625 -12.6953125 7.7265625 C-14.3828125 8.6640625 -14.3828125 8.6640625 -16.6953125 8.7265625 C-19.9453125 6.7890625 -19.9453125 6.7890625 -22.6953125 4.7265625 C-15.57541859 -1.53031397 -8.8087099 -4.16179627 0 0 Z " fill="#8E7B29" transform="translate(181.6953125,79.2734375)"/>
<path d="M0 0 C0.66 0.33 1.32 0.66 2 1 C1.34 1.5775 0.68 2.155 0 2.75 C-3.0820362 7.75830882 -2.91471671 12.27278121 -2 18 C0.28811502 24.25172071 3.08072788 29.46571439 8 34 C4.12867972 33.42647107 1.91827204 31.51295648 -1 29 C-1.721875 29.28875 -2.44375 29.5775 -3.1875 29.875 C-5.79166667 30.91666667 -8.39583333 31.95833333 -11 33 C-11.1352403 31.39815374 -11.23210847 29.79303374 -11.3125 28.1875 C-11.37050781 27.29417969 -11.42851563 26.40085937 -11.48828125 25.48046875 C-11.32714844 24.66191406 -11.16601562 23.84335938 -11 23 C-10.17886719 22.53851563 -9.35773438 22.07703125 -8.51171875 21.6015625 C-7.68285156 21.07304688 -6.85398437 20.54453125 -6 20 C-5.36238094 16.78415655 -5.36238094 16.78415655 -5.5 13.1875 C-5.24957073 5.37572243 -5.24957073 5.37572243 -2.4375 2.125 C-1.633125 1.42375 -0.82875 0.7225 0 0 Z " fill="#7B670F" transform="translate(95,58)"/>
<path d="M0 0 C4.75 1.875 4.75 1.875 7 3 C7 3.99 7 4.98 7 6 C3.51793007 8.78426032 0.33236476 10.84367489 -4 12 C-8.87958986 10.45820433 -12.75185471 7.79453589 -17 5 C-17.93070312 4.62875 -18.86140625 4.2575 -19.8203125 3.875 C-22 3 -22 3 -23 1 C-21.700625 1.2475 -21.700625 1.2475 -20.375 1.5 C-14.33525481 2.35926272 -8.07520391 2.46489887 -2 2 C-1.34 1.34 -0.68 0.68 0 0 Z " fill="#C5B159" transform="translate(102,151)"/>
<path d="M0 0 C0.33 0 0.66 0 1 0 C1.33 4.29 1.66 8.58 2 13 C3.60875 11.989375 5.2175 10.97875 6.875 9.9375 C9.6171875 8.21484375 9.6171875 8.21484375 12 7 C12.66 7.33 13.32 7.66 14 8 C13.67 10.31 13.34 12.62 13 15 C13.66 15.33 14.32 15.66 15 16 C13.04480616 17.17192047 11.0857461 18.3373929 9.125 19.5 C8.03445312 20.1496875 6.94390625 20.799375 5.8203125 21.46875 C3 23 3 23 1 23 C1 26.3 1 29.6 1 33 C0.67 33 0.34 33 0 33 C0 22.11 0 11.22 0 0 Z " fill="#B0A163" transform="translate(169,107)"/>
<path d="M0 0 C6.6 0.33 13.2 0.66 20 1 C20 1.66 20 2.32 20 3 C18.27172852 4.23681641 18.27172852 4.23681641 15.87890625 5.6015625 C15.02619141 6.09140625 14.17347656 6.58125 13.29492188 7.0859375 C12.39322266 7.59382813 11.49152344 8.10171875 10.5625 8.625 C9.66466797 9.140625 8.76683594 9.65625 7.84179688 10.1875 C1.1598359 14 1.1598359 14 0 14 C0 9.38 0 4.76 0 0 Z " fill="#DDD7BE" transform="translate(170,107)"/>
<path d="M0 0 C2.86762262 2.24033017 3.90258159 3.51290794 4.625 7.125 C3.43275062 14.51694614 -0.52647397 20.13758769 -6.25 24.875 C-13.08224751 29.72406157 -19.75723384 32.48647797 -28.1875 32.3359375 C-30 32 -30 32 -32 30 C-30.14375 29.938125 -30.14375 29.938125 -28.25 29.875 C-17.25066275 28.62783105 -8.1584462 21.80325197 -1 13.75 C0.62865915 9.27118735 0.22285922 4.71305981 0 0 Z " fill="#76630F" transform="translate(137,25)"/>
<path d="M0 0 C3.14195888 -0.5498428 5.27493571 -0.40964084 8.07421875 1.171875 C13.21908697 5.16604256 15.32177128 9.01140665 16.66796875 15.3515625 C17.25828104 20.06017109 16.60721474 23.52990116 14.8125 27.875 C13 30 13 30 10.1875 31.0625 C6.07530951 30.98186881 4.18279021 29.50076373 1 27 C1.33 25.68 1.66 24.36 2 23 C2.8353125 23.7734375 2.8353125 23.7734375 3.6875 24.5625 C5.92862126 26.26862989 5.92862126 26.26862989 8.6875 25.8125 C11.16891382 25.24184848 11.16891382 25.24184848 12 23 C12.71273981 16.71386852 12.09776728 12.05455011 8.875 6.59375 C8 5 8 5 8 3 C5.36 2.34 2.72 1.68 0 1 C0 0.67 0 0.34 0 0 Z " fill="#BA9A11" transform="translate(97,61)"/>
<path d="M0 0 C4.06497208 1.25758443 7.67690212 2.76252235 11.3984375 4.8203125 C12.37167969 5.35527344 13.34492188 5.89023438 14.34765625 6.44140625 C15.34667969 6.99699219 16.34570312 7.55257812 17.375 8.125 C18.39722656 8.68832031 19.41945312 9.25164062 20.47265625 9.83203125 C22.98425792 11.2169331 25.49323719 12.60636455 28 14 C28 15.32 28 16.64 28 18 C22.162416 16.34730652 17.05366753 13.56477784 11.75 10.6875 C10.83992187 10.21376953 9.92984375 9.74003906 8.9921875 9.25195312 C8.12335938 8.78080078 7.25453125 8.30964844 6.359375 7.82421875 C5.57014648 7.40229248 4.78091797 6.98036621 3.96777344 6.5456543 C1.53717684 4.63645988 0.91138219 2.91061219 0 0 Z " fill="#B99D23" transform="translate(126,76)"/>
<path d="M0 0 C0.66 0.33 1.32 0.66 2 1 C2.17419643 4.19824652 2.05294865 6.95814836 1 10 C-2.54464552 13.08658994 -6.27933862 15 -11 15 C-11.48611111 8.68055556 -11.48611111 8.68055556 -9.4375 5.8125 C-6.37607692 3.5360572 -3.41947761 1.70973881 0 0 Z " fill="#B1A366" transform="translate(85,170)"/>
<path d="M0 0 C2.68826864 0.11490912 5.37513469 0.24163199 8.0625 0.375 C8.81466797 0.4059375 9.56683594 0.436875 10.34179688 0.46875 C15.18961281 0.72058459 19.38308043 1.49168365 24 3 C23 6 23 6 20.9375 7.25 C14.43535652 8.91012174 10.09158895 7.29010043 4.5 4 C2.97228427 3.04287689 1.46210454 2.05463278 0 1 C0 0.67 0 0.34 0 0 Z " fill="#F2F0E8" transform="translate(53,170)"/>
<path d="M0 0 C0.33 0.66 0.66 1.32 1 2 C1.66 2 2.32 2 3 2 C1.50163895 5.11198065 -0.19933758 8.0534615 -2 11 C-3.32 10.67 -4.64 10.34 -6 10 C-6 10.66 -6 11.32 -6 12 C-8.97 12 -11.94 12 -15 12 C-14 8 -14 8 -11.4375 6 C-7.69855675 3.82461484 -3.90249797 1.86210563 0 0 Z " fill="#C5BB8B" transform="translate(49,147)"/>
<path d="M0 0 C-0.33 0.99 -0.66 1.98 -1 3 C0.65 3.33 2.3 3.66 4 4 C3.34 4.66 2.68 5.32 2 6 C-1.625 5.625 -1.625 5.625 -5 5 C-4.01 6.485 -4.01 6.485 -3 8 C-1.68 7.67 -0.36 7.34 1 7 C1 7.99 1 8.98 1 10 C-0.45792884 10.05399736 -1.91642712 10.09279177 -3.375 10.125 C-4.18710938 10.14820312 -4.99921875 10.17140625 -5.8359375 10.1953125 C-8 10 -8 10 -10 8 C-10.33 10.64 -10.66 13.28 -11 16 C-11.33 16 -11.66 16 -12 16 C-12 11.38 -12 6.76 -12 2 C-7.14786828 0.38262276 -4.81798756 -0.22942798 0 0 Z " fill="#D3B531" transform="translate(181,88)"/>
<path d="M0 0 C0.928125 0.639375 1.85625 1.27875 2.8125 1.9375 C8.67590641 5.73146886 14.19722153 5.48892336 21 5 C25.51332794 3.98827874 29.1508158 2.5661228 33 0 C31.47314114 4.12251891 28.98645333 7.16565372 25 9 C16.85262478 10.27050653 10.05896834 9.32480545 2.79296875 5.484375 C0.6874653 3.74125668 0.34766203 2.66730871 0 0 Z " fill="#77630C" transform="translate(75,145)"/>
<path d="M0 0 C2.5 1.5 2.5 1.5 4 3 C3.67 3.66 3.34 4.32 3 5 C2.34 4.34 1.68 3.68 1 3 C-5.51455342 1.8098412 -10.95054168 3.21814124 -16.6640625 6.36328125 C-20.95420857 9.36925316 -24.64576942 13.29153885 -27 18 C-27.45079626 22.26446708 -27.45079626 22.26446708 -25.5 25.875 C-25.005 26.24625 -24.51 26.6175 -24 27 C-26.86724686 26.42655063 -27.8614515 26.1385485 -30 24 C-30.83526205 19.71928198 -29.7536176 17.09925966 -27.5625 13.5 C-24.13365732 8.69638549 -20.13484398 5.81065144 -15 3 C-14.38898438 2.6596875 -13.77796875 2.319375 -13.1484375 1.96875 C-8.59991734 -0.27435583 -4.94558836 -0.48645131 0 0 Z " fill="#8A720B" transform="translate(131,25)"/>
<path d="M0 0 C4.875 1.875 4.875 1.875 6 3 C6.14115161 5.67058851 6.04247107 8.32432238 6 11 C6.66 10.67 7.32 10.34 8 10 C6.8696512 13.51664071 4.76548263 15.48776541 1.55078125 17.25 C-4.37111316 18.99120019 -10.89295965 18.26392971 -17 18 C-17 17.01 -17 16.02 -17 15 C-15.41058594 15.01740234 -15.41058594 15.01740234 -13.7890625 15.03515625 C-12.40104342 15.04453476 -11.01302245 15.05363489 -9.625 15.0625 C-8.57699219 15.07506836 -8.57699219 15.07506836 -7.5078125 15.08789062 C-3.62704624 15.1835442 -3.62704624 15.1835442 0 14 C-0.33 13.34 -0.66 12.68 -1 12 C-0.0409375 11.6596875 -0.0409375 11.6596875 0.9375 11.3125 C3.19253976 10.148542 3.19253976 10.148542 4 7.6875 C4 4.00566112 2.46446107 2.61382234 0 0 Z " fill="#725E0A" transform="translate(186,89)"/>
<path d="M0 0 C2.71068109 0.42561919 5.41791363 0.86502931 8.125 1.3125 C9.26582031 1.48942383 9.26582031 1.48942383 10.4296875 1.66992188 C15.94523324 2.59710413 20.73851501 3.88441726 24.9375 7.8125 C26.4408397 10.90761114 25.98615305 12.75978285 25 16 C24.01 16.66 23.02 17.32 22 18 C22 15.03 22 12.06 22 9 C15.80991436 4.49811954 10.51750084 4.37524857 3 5 C1.32756073 5.30304417 -0.34187988 5.62646745 -2 6 C-2 5.34 -2 4.68 -2 4 C-1.34 3.67 -0.68 3.34 0 3 C0 2.01 0 1.02 0 0 Z " fill="#D0B129" transform="translate(169,83)"/>
<path d="M0 0 C0.33 0 0.66 0 1 0 C1.99 3.3 2.98 6.6 4 10 C-0.95 12.475 -0.95 12.475 -6 15 C-6.43919272 8.23643208 -6.43919272 8.23643208 -6 5 C-3.5625 3 -3.5625 3 -1 2 C-0.67 1.34 -0.34 0.68 0 0 Z " fill="#8B7303" transform="translate(90,76)"/>
<path d="M0 0 C-1.450954 3.82524236 -3.38181932 5.19090966 -7 7 C-7.66 7 -8.32 7 -9 7 C-9.33 7.99 -9.66 8.98 -10 10 C-10.556875 9.79375 -11.11375 9.5875 -11.6875 9.375 C-14.659538 8.89304789 -16.31979941 9.73434972 -19 11 C-18.67 9.35 -18.34 7.7 -18 6 C-17.34 6 -16.68 6 -16 6 C-15.67 5.34 -15.34 4.68 -15 4 C-12.93359375 3.5859375 -12.93359375 3.5859375 -10.4375 3.375 C-9.61121094 3.30023438 -8.78492187 3.22546875 -7.93359375 3.1484375 C-6.97646484 3.07496094 -6.97646484 3.07496094 -6 3 C-8.64 2.67 -11.28 2.34 -14 2 C-14 1.67 -14 1.34 -14 1 C-12.41693353 0.83081732 -10.83353281 0.66476064 -9.25 0.5 C-7.92742187 0.36078125 -7.92742187 0.36078125 -6.578125 0.21875 C-4 0 -4 0 0 0 Z " fill="#EDCF5F" transform="translate(128,33)"/>
<path d="M0 0 C0.54269531 0.34933594 1.08539063 0.69867188 1.64453125 1.05859375 C2.35996094 1.51363281 3.07539062 1.96867188 3.8125 2.4375 C4.87404297 3.11619141 4.87404297 3.11619141 5.95703125 3.80859375 C11.00083683 6.75001001 16.33139541 6.56686046 22 6 C26.42408129 4.60674455 30.15257737 2.56494842 34 0 C33.61422992 2.31462047 33.25564716 3.71258603 31.6796875 5.484375 C25.02868303 10.1487158 17.85927886 10.07990091 10 9 C5.88113528 7.47271294 2.94789682 5.71671215 0.80078125 1.828125 C0.53652344 1.22484375 0.27226563 0.6215625 0 0 Z " fill="#76630E" transform="translate(47,161)"/>
<path d="M0 0 C4.14298667 0.59834725 7.18194377 2.00664285 10.8125 4.0625 C11.78832031 4.61035156 12.76414062 5.15820312 13.76953125 5.72265625 C14.50558594 6.14417969 15.24164063 6.56570312 16 7 C13.8092961 9.29113732 11.90542812 10.6975667 9 12 C8.1646875 10.8553125 8.1646875 10.8553125 7.3125 9.6875 C5.1699423 6.89233057 5.1699423 6.89233057 2.25 5.4375 C1.5075 4.963125 0.765 4.48875 0 4 C0 2.68 0 1.36 0 0 Z " fill="#D4CDAD" transform="translate(82,155)"/>
<path d="M0 0 C0.33 0 0.66 0 1 0 C1 11.22 1 22.44 1 34 C1.66 34.33 2.32 34.66 3 35 C2.01 35.99 1.02 36.98 0 38 C-1.78830448 36.21169552 -1.12848711 33.80418848 -1.13894653 31.42358398 C-1.1369223 30.64442627 -1.13489807 29.86526855 -1.1328125 29.0625 C-1.13376923 28.267229 -1.13472595 27.47195801 -1.13571167 26.65258789 C-1.13639343 24.9679354 -1.13453943 23.28328029 -1.13037109 21.59863281 C-1.12502275 19.01100803 -1.13031619 16.42355684 -1.13671875 13.8359375 C-1.13605797 12.20312461 -1.1347768 10.57031184 -1.1328125 8.9375 C-1.13483673 8.15834229 -1.13686096 7.37918457 -1.13894653 6.57641602 C-1.11495105 1.11495105 -1.11495105 1.11495105 0 0 Z " fill="#ACA37E" transform="translate(69,90)"/>
<path d="M0 0 C0.90105469 0.11085938 1.80210938 0.22171875 2.73046875 0.3359375 C3.76107422 0.47902344 3.76107422 0.47902344 4.8125 0.625 C5.9375 2.9375 5.9375 2.9375 6.8125 5.625 C5.8225 7.11 5.8225 7.11 4.8125 8.625 C3.8534375 7.8515625 3.8534375 7.8515625 2.875 7.0625 C-1.36822182 5.07078364 -4.67936915 5.80980423 -9.1875 6.625 C-8.875 4.25 -8.875 4.25 -8.1875 1.625 C-4.73535147 -0.67643236 -3.95270676 -0.51333854 0 0 Z " fill="#E4D180" transform="translate(122.1875,76.375)"/>
<path d="M0 0 C3.7595188 0.52215539 6.36771463 1.17273053 9 4 C9.25 7.1875 9.25 7.1875 9 10 C8.34 10 7.68 10 7 10 C7.66 11.32 8.32 12.64 9 14 C6.69 13.67 4.38 13.34 2 13 C2.04125 11.9275 2.0825 10.855 2.125 9.75 C2.00898061 6.26941832 1.70731907 4.88110092 0 2 C0 1.34 0 0.68 0 0 Z " fill="#DFC345" transform="translate(98,68)"/>
<path d="M0 0 C4.84531615 0.59330402 9.33731164 1.55880542 14 3 C15.093125 3.28875 16.18625 3.5775 17.3125 3.875 C20 5 20 5 21.375 7.125 C21.58125 7.74375 21.7875 8.3625 22 9 C21.01 9.66 20.02 10.32 19 11 C18.11957031 10.51789063 17.23914063 10.03578125 16.33203125 9.5390625 C15.15893287 8.90089698 13.98575136 8.26288423 12.8125 7.625 C11.08966797 6.68527344 11.08966797 6.68527344 9.33203125 5.7265625 C6.12977134 3.98934119 6.12977134 3.98934119 3.13671875 2.8984375 C1 2 1 2 0 0 Z " fill="#C8B871" transform="translate(79,152)"/>
<path d="M0 0 C1.91914553 0.93241504 3.83522386 1.87114475 5.75 2.8125 C6.81734375 3.33457031 7.8846875 3.85664062 8.984375 4.39453125 C11.56665345 5.76929348 13.81339693 7.06283951 16 9 C16 9.66 16 10.32 16 11 C12.37 11 8.74 11 5 11 C4.54625 10.05125 4.0925 9.1025 3.625 8.125 C2.19761746 4.99686321 2.19761746 4.99686321 0 3 C0 2.01 0 1.02 0 0 Z " fill="#AD9A55" transform="translate(190,85)"/>
<path d="M0 0 C-0.33 0.33 -0.66 0.66 -1 1 C-1.36760731 3.32817964 -1.70241581 5.6618385 -2 8 C-1.34 8.33 -0.68 8.66 0 9 C-1.134375 9.28875 -2.26875 9.5775 -3.4375 9.875 C-4.613125 10.24625 -5.78875 10.6175 -7 11 C-7.33 11.66 -7.66 12.32 -8 13 C-9.32 12.01 -10.64 11.02 -12 10 C-10.68 10 -9.36 10 -8 10 C-8 7.03 -8 4.06 -8 1 C-2.25 -1.125 -2.25 -1.125 0 0 Z " fill="#CAC196" transform="translate(76,177)"/>
<path d="M0 0 C2.375 0.5625 2.375 0.5625 5 2 C6.3125 5.625 6.3125 5.625 7 9 C1.14311354 9.73211081 -2.5041604 7.48028193 -7 4 C-7 3.67 -7 3.34 -7 3 C-4.36 3 -1.72 3 1 3 C0.67 2.01 0.34 1.02 0 0 Z " fill="#D4CDAD" transform="translate(42,156)"/>
<path d="M0 0 C3.5 0.75 3.5 0.75 6.5 1.75 C5.84 3.07 5.18 4.39 4.5 5.75 C4.5 5.09 4.5 4.43 4.5 3.75 C3.84 3.75 3.18 3.75 2.5 3.75 C2.5 4.41 2.5 5.07 2.5 5.75 C-1.13 6.08 -4.76 6.41 -8.5 6.75 C-4.94827586 -0.35344828 -4.94827586 -0.35344828 0 0 Z " fill="#D8BC40" transform="translate(92.5,137.25)"/>
<path d="M0 0 C1.32 0.33 2.64 0.66 4 1 C4 1.66 4 2.32 4 3 C4.66 3.33 5.32 3.66 6 4 C3.69 5.32 1.38 6.64 -1 8 C-1 7.34 -1 6.68 -1 6 C-2.4540625 6.0309375 -2.4540625 6.0309375 -3.9375 6.0625 C-7 6 -7 6 -8 5 C-9.68183948 4.76712992 -11.3712416 4.58735834 -13.0625 4.4375 C-13.98160156 4.35371094 -14.90070312 4.26992187 -15.84765625 4.18359375 C-16.91306641 4.09271484 -16.91306641 4.09271484 -18 4 C-18 3.67 -18 3.34 -18 3 C-11.73 2.67 -5.46 2.34 1 2 C0.67 1.34 0.34 0.68 0 0 Z " fill="#E7E3D3" transform="translate(78,167)"/>
<path d="M0 0 C2 2 2 2 2.1953125 5.0390625 C2.17210938 6.22242188 2.14890625 7.40578125 2.125 8.625 C2.10695313 9.81351563 2.08890625 11.00203125 2.0703125 12.2265625 C2.04710938 13.14179688 2.02390625 14.05703125 2 15 C1.01 15.495 1.01 15.495 0 16 C0 15.34 0 14.68 0 14 C-2.475 13.01 -2.475 13.01 -5 12 C-4.731875 11.505 -4.46375 11.01 -4.1875 10.5 C-2.56124507 7.0763054 -1.30484829 3.55867715 0 0 Z " fill="#BBA236" transform="translate(109,140)"/>
<path d="M0 0 C0.33 1.32 0.66 2.64 1 4 C-1.3125 6.0625 -1.3125 6.0625 -4 8 C-4.99 7.67 -5.98 7.34 -7 7 C-7 6.34 -7 5.68 -7 5 C-7.99 5 -8.98 5 -10 5 C-10.66 5 -11.32 5 -12 5 C-11.67 3.68 -11.34 2.36 -11 1 C-5.555 0.505 -5.555 0.505 0 0 Z " fill="#B5A86D" transform="translate(206,95)"/>
<path d="M0 0 C1.9375 1.5625 1.9375 1.5625 3 3 C-0.62975661 5.3733024 -2.86035951 4.77618259 -7 4 C-9.27650745 4.3577614 -9.27650745 4.3577614 -11 5 C-11.33 3.35 -11.66 1.7 -12 0 C-7.73640798 -1.16279782 -4.3069785 -0.95710633 0 0 Z " fill="#A28506" transform="translate(124,73)"/>
<path d="M0 0 C2 3 2 3 1.625 5.1875 C1.315625 6.0846875 1.315625 6.0846875 1 7 C0.5875 6.21625 0.175 5.4325 -0.25 4.625 C-2.14984908 1.77522638 -2.87520735 1.1751357 -6 0 C-13.68879525 -0.8643613 -19.71506317 -0.67716229 -26 4 C-24.98485266 0.7289697 -23.96748264 -0.01858135 -20.9375 -1.75 C-13.59954203 -4.52076421 -6.92072435 -3.27823785 0 0 Z " fill="#937A0C" transform="translate(104,136)"/>
<path d="M0 0 C-1 2 -1 2 -3.3125 2.875 C-6.47919835 4.20059466 -7.95807215 5.2288122 -10 8 C-10.62119527 10.70219942 -10.81439571 13.21593567 -11 16 C-11.33 16 -11.66 16 -12 16 C-12 11.38 -12 6.76 -12 2 C-7.14786828 0.38262276 -4.81798756 -0.22942798 0 0 Z " fill="#D2AE14" transform="translate(181,88)"/>
<path d="M0 0 C0.33 0 0.66 0 1 0 C1 3.96 1 7.92 1 12 C-0.65 12.66 -2.3 13.32 -4 14 C-4.42927453 7.77551932 -3.99400188 4.84121441 0 0 Z " fill="#7E6700" transform="translate(73,122)"/>
<path d="M0 0 C3.3125 0.75 3.3125 0.75 6 2 C5.67 3.65 5.34 5.3 5 7 C3.375 7.75 3.375 7.75 1 8 C-2.25 6.0625 -2.25 6.0625 -5 4 C-2.875 1.875 -2.875 1.875 0 0 Z " fill="#917E2B" transform="translate(164,80)"/>
<path d="M0 0 C7.16049902 -0.46196768 12.63908643 0.56694376 19 4 C20.7890625 5.63671875 20.7890625 5.63671875 22 7 C19.41564713 6.55696808 17.1533332 6.06814809 14.75 5 C11.49614449 3.81677982 8.52663781 3.62342282 5.0859375 3.44140625 C2.55588737 2.90602111 1.63516817 1.95282823 0 0 Z " fill="#B3A35E" transform="translate(59,145)"/>
<path d="M0 0 C1.27875 0.103125 2.5575 0.20625 3.875 0.3125 C4.95394531 0.39951172 4.95394531 0.39951172 6.0546875 0.48828125 C8 1 8 1 10 4 C10 4.99 10 5.98 10 7 C8.02 7 6.04 7 4 7 C2.02 3.535 2.02 3.535 0 0 Z " fill="#DCBD3F" transform="translate(129,61)"/>
<path d="M0 0 C0.7734375 0.61875 0.7734375 0.61875 1.5625 1.25 C-0.98772856 4.22526665 -3.84043526 5.75122302 -7.4375 7.25 C-8.4275 6.92 -9.4175 6.59 -10.4375 6.25 C-9.1583845 2.41265351 -7.64874506 1.76834864 -4.2265625 -0.09765625 C-2.4375 -0.75 -2.4375 -0.75 0 0 Z " fill="#C2A62C" transform="translate(94.4375,86.75)"/>
<path d="M0 0 C0 3 0 3 -1.0390625 4.60546875 C-4.13515174 7.69393215 -6.14287907 8.90746459 -10.58203125 9.38671875 C-14.07312823 9.37610751 -17.5191589 9.260701 -21 9 C-21 8.67 -21 8.34 -21 8 C-17.04 8 -13.08 8 -9 8 C-9 7.34 -9 6.68 -9 6 C-9.66 5.67 -10.32 5.34 -11 5 C-10.37351562 4.80664062 -9.74703125 4.61328125 -9.1015625 4.4140625 C-8.28429687 4.15367187 -7.46703125 3.89328125 -6.625 3.625 C-5.40683594 3.24214844 -5.40683594 3.24214844 -4.1640625 2.8515625 C-1.83540815 2.10145717 -1.83540815 2.10145717 0 0 Z " fill="#89751B" transform="translate(107,145)"/>
<path d="M0 0 C0.66 0.33 1.32 0.66 2 1 C1.34 1.66 0.68 2.32 0 3 C-0.38286803 6.73296326 -0.14915785 7.77626323 2 11 C1.01 11.33 0.02 11.66 -1 12 C-3.0625 10.3125 -3.0625 10.3125 -5 8 C-5 5.4375 -5 5.4375 -4 3 C-1.9375 1.1875 -1.9375 1.1875 0 0 Z " fill="#C5A312" transform="translate(52,153)"/>
<path d="M0 0 C0.33 0 0.66 0 1 0 C1 2.64 1 5.28 1 8 C-0.96466413 9.06775224 -2.96855359 10.06553465 -5 11 C-5.66 10.67 -6.32 10.34 -7 10 C-5.85821872 8.33055479 -4.71147095 6.6645052 -3.5625 5 C-2.92441406 4.071875 -2.28632812 3.14375 -1.62890625 2.1875 C-1.09136719 1.465625 -0.55382812 0.74375 0 0 Z " fill="#D8DDA0" transform="translate(68,129)"/>
<path d="M0 0 C4.23910579 1.51396635 5.93638856 4.09387835 8 8 C8.25 11.875 8.25 11.875 8 15 C7.01 15.495 7.01 15.495 6 16 C6 13.03 6 10.06 6 7 C5.01 7.33 4.02 7.66 3 8 C1 4.25 1 4.25 1 2 C0.67 1.34 0.34 0.68 0 0 Z " fill="#DBB722" transform="translate(136,58)"/>
<path d="M0 0 C0.33 0.66 0.66 1.32 1 2 C2.98 1.67 4.96 1.34 7 1 C6.34 2.98 5.68 4.96 5 7 C2.36 7 -0.28 7 -3 7 C-3 6.67 -3 6.34 -3 6 C-0.69 6 1.62 6 4 6 C1.18490007 3.7226499 1.18490007 3.7226499 -2 4 C-2 3.01 -2 2.02 -2 1 C-1.34 0.67 -0.68 0.34 0 0 Z " fill="#E7CC53" transform="translate(178,92)"/>
<path d="M0 0 C4 4 4 4 4.375 7.625 C4 11 4 11 2 13 C1.34 13 0.68 13 0 13 C0 8.71 0 4.42 0 0 Z " fill="#877114" transform="translate(137,25)"/>
<path d="M0 0 C0.33 0.99 0.66 1.98 1 3 C-0.43160268 4.00842453 -1.87051453 5.00647891 -3.3125 6 C-4.51326172 6.8353125 -4.51326172 6.8353125 -5.73828125 7.6875 C-8 9 -8 9 -11 9 C-11 8.01 -11 7.02 -11 6 C-10.37351562 5.73445312 -9.74703125 5.46890625 -9.1015625 5.1953125 C-8.28429687 4.84210938 -7.46703125 4.48890625 -6.625 4.125 C-5.40683594 3.60292969 -5.40683594 3.60292969 -4.1640625 3.0703125 C-1.86197701 2.07553933 -1.86197701 2.07553933 0 0 Z " fill="#83701B" transform="translate(80,161)"/>
<path d="M0 0 C3.16115776 1.36983503 3.9927092 1.9890638 6 5 C5.8125 8.0625 5.8125 8.0625 5 11 C4.01 11.66 3.02 12.32 2 13 C2.03480469 12.09507813 2.03480469 12.09507813 2.0703125 11.171875 C2.08835938 10.37265625 2.10640625 9.5734375 2.125 8.75 C2.14820313 7.96109375 2.17140625 7.1721875 2.1953125 6.359375 C1.9828378 3.79268059 1.28654105 2.2083933 0 0 Z " fill="#E0BB18" transform="translate(189,88)"/>
<path d="M0 0 C3.465 1.485 3.465 1.485 7 3 C4.63707344 5.52588702 3.33537489 6.88820837 0 8 C0 5.36 0 2.72 0 0 Z " fill="#EDEADE" transform="translate(170,113)"/>
<path d="M0 0 C0.61875 0.721875 1.2375 1.44375 1.875 2.1875 C5.55613759 5.92198741 10.2880233 7.84987471 15 10 C15 10.33 15 10.66 15 11 C9.31947236 10.61487948 6.17706282 10.17706282 2 6 C0 3 0 3 0 0 Z " fill="#756107" transform="translate(125,65)"/>
<path d="M0 0 C0 3.3 0 6.6 0 10 C-0.99 9.67 -1.98 9.34 -3 9 C-4.1875 5.4375 -4.1875 5.4375 -5 2 C-2 0 -2 0 0 0 Z " fill="#8E760C" transform="translate(115,64)"/>
<path d="M0 0 C4.875 1.875 4.875 1.875 6 3 C5.984375 4.99609375 5.984375 4.99609375 5.75 7.4375 C5.68296875 8.24058594 5.6159375 9.04367188 5.546875 9.87109375 C5 12 5 12 2 14 C1.01 13.34 0.02 12.68 -1 12 C-0.360625 11.773125 0.27875 11.54625 0.9375 11.3125 C3.19253976 10.148542 3.19253976 10.148542 4 7.6875 C4 4.00566112 2.46446107 2.61382234 0 0 Z " fill="#AA8D0F" transform="translate(186,89)"/>
<path d="M0 0 C0.99 0.33 1.98 0.66 3 1 C1.322967 3.04371546 0.46127163 3.92353251 -2.19140625 4.36328125 C-2.97386719 4.34652344 -3.75632812 4.32976563 -4.5625 4.3125 C-5.34753906 4.30863281 -6.13257812 4.30476563 -6.94140625 4.30078125 C-9 4 -9 4 -11 2 C-10.06027344 1.90912109 -10.06027344 1.90912109 -9.1015625 1.81640625 C-7.87566406 1.69072266 -7.87566406 1.69072266 -6.625 1.5625 C-5.81289062 1.48128906 -5.00078125 1.40007813 -4.1640625 1.31640625 C-1.95727195 1.10909886 -1.95727195 1.10909886 0 0 Z " fill="#7B6A16" transform="translate(116,53)"/>
<path d="M0 0 C-0.99 1.485 -0.99 1.485 -2 3 C-2 2.34 -2 1.68 -2 1 C-2.66 1 -3.32 1 -4 1 C-4 1.99 -4 2.98 -4 4 C-6.31 3.67 -8.62 3.34 -11 3 C-10.67 2.01 -10.34 1.02 -10 0 C-6.30581799 -1.231394 -3.7943739 -0.64432764 0 0 Z " fill="#E3C956" transform="translate(72,156)"/>
<path d="M0 0 C2.97 0 5.94 0 9 0 C7 4 7 4 4.875 4.75 C3.946875 4.87375 3.946875 4.87375 3 5 C2.67 4.01 2.34 3.02 2 2 C1.34 1.34 0.68 0.68 0 0 Z " fill="#BAAE7A" transform="translate(197,98)"/>
<path d="M0 0 C1.65 0 3.3 0 5 0 C4.8125 1.8125 4.8125 1.8125 4 4 C-0.17857143 7 -0.17857143 7 -3 7 C-2.67 5.35 -2.34 3.7 -2 2 C-1.34 2 -0.68 2 0 2 C0 1.34 0 0.68 0 0 Z " fill="#DABE4D" transform="translate(112,37)"/>
<path d="M0 0 C0.33 0 0.66 0 1 0 C1 3.3 1 6.6 1 10 C0.01 10 -0.98 10 -2 10 C-2.1953125 3.9453125 -2.1953125 3.9453125 -2 2 C-1.34 1.34 -0.68 0.68 0 0 Z " fill="#E9E0B0" transform="translate(118,15)"/>
<path d="M0 0 C2.01920337 1.30406884 4.01924973 2.63823419 6 4 C6 4.33 6 4.66 6 5 C2.7 5 -0.6 5 -4 5 C-2 1 -2 1 0 0 Z " fill="#A99A55" transform="translate(61,140)"/>
<path d="M0 0 C0.33 0.66 0.66 1.32 1 2 C3.64 1.34 6.28 0.68 9 0 C8.34 1.32 7.68 2.64 7 4 C7 3.34 7 2.68 7 2 C6.34 2 5.68 2 5 2 C5 2.66 5 3.32 5 4 C2.36 4 -0.28 4 -3 4 C-2.01 3.67 -1.02 3.34 0 3 C0 2.01 0 1.02 0 0 Z " fill="#EAD059" transform="translate(90,139)"/>
<path d="M0 0 C0.66 0.66 1.32 1.32 2 2 C1.625 5.625 1.625 5.625 1 9 C-0.65 9.33 -2.3 9.66 -4 10 C-4.33 9.01 -4.66 8.02 -5 7 C-3.35 7 -1.7 7 0 7 C0 4.69 0 2.38 0 0 Z " fill="#B89811" transform="translate(141,65)"/>
<path d="M0 0 C3.82097239 0.53069061 6.06171403 1.49701566 9 4 C6.03 4 3.06 4 0 4 C0 2.68 0 1.36 0 0 Z " fill="#CAC198" transform="translate(82,155)"/>
<path d="M0 0 C0 0.99 0 1.98 0 3 C-2.81534937 5.65894107 -5.12793601 7.42636089 -9 8 C-9 7.01 -9 6.02 -9 5 C-8.43410156 4.72285156 -7.86820313 4.44570312 -7.28515625 4.16015625 C-6.55167969 3.79792969 -5.81820312 3.43570313 -5.0625 3.0625 C-3.96615234 2.52302734 -3.96615234 2.52302734 -2.84765625 1.97265625 C-1.03750973 1.13628173 -1.03750973 1.13628173 0 0 Z " fill="#7B6812" transform="translate(193,99)"/>
<path d="M0 0 C-1.75 3.875 -1.75 3.875 -4 5 C-4 4.01 -4 3.02 -4 2 C-7.3 2 -10.6 2 -14 2 C-14 1.67 -14 1.34 -14 1 C-12.41693353 0.83081732 -10.83353281 0.66476064 -9.25 0.5 C-8.36828125 0.4071875 -7.4865625 0.314375 -6.578125 0.21875 C-4 0 -4 0 0 0 Z " fill="#E2C756" transform="translate(128,33)"/>
<path d="M0 0 C3.63 0 7.26 0 11 0 C9.68 1.32 8.36 2.64 7 4 C4.69 3.01 2.38 2.02 0 1 C0 0.67 0 0.34 0 0 Z " fill="#E4DFCA" transform="translate(171,113)"/>
<path d="M0 0 C1.65 0 3.3 0 5 0 C4.01 0.495 4.01 0.495 3 1 C2.27306096 2.97888961 1.60183749 4.97954558 1 7 C0.34 6.67 -0.32 6.34 -1 6 C-0.67 4.02 -0.34 2.04 0 0 Z " fill="#D3AB16" transform="translate(93,62)"/>
<path d="M0 0 C3.3 0 6.6 0 10 0 C9.67 0.99 9.34 1.98 9 3 C6.9375 3.6875 6.9375 3.6875 5 4 C5 3.67 5 3.34 5 3 C2.03 2.505 2.03 2.505 -1 2 C-0.67 1.34 -0.34 0.68 0 0 Z " fill="#C4A212" transform="translate(107,51)"/>
<path d="M0 0 C3.3 0 6.6 0 10 0 C10 0.66 10 1.32 10 2 C6.06329512 3.31223496 3.87511856 2.24296256 0 1 C0 0.67 0 0.34 0 0 Z " fill="#D5CEAE" transform="translate(180,108)"/>
<path d="M0 0 C6.15234375 0.5859375 6.15234375 0.5859375 8 1 C8.33 1.66 8.66 2.32 9 3 C6.03 3 3.06 3 0 3 C0 2.01 0 1.02 0 0 Z " fill="#D5CFAF" transform="translate(170,107)"/>
<path d="M0 0 C2.475 0.99 2.475 0.99 5 2 C4.67 2.66 4.34 3.32 4 4 C2.02 4 0.04 4 -2 4 C-1.34 2.68 -0.68 1.36 0 0 Z " fill="#C8BE95" transform="translate(195,98)"/>
<path d="M0 0 C3.3 0 6.6 0 10 0 C6 2 6 2 3 2 C2.34 2.66 1.68 3.32 1 4 C0.67 2.68 0.34 1.36 0 0 Z " fill="#D6B01E" transform="translate(114,35)"/>
<path d="" fill="#000000" transform="translate(0,0)"/>
<path d="" fill="#000000" transform="translate(0,0)"/>
<path d="" fill="#000000" transform="translate(0,0)"/>
<path d="" fill="#FF0000" transform="translate(0,0)"/>
</svg>
