<svg width="34" height="34" viewBox="0 0 34 34" fill="none" xmlns="http://www.w3.org/2000/svg">
<circle cx="17.0947" cy="17.1689" r="15.768" fill="#EBBD1A" stroke="#715F0D" stroke-width="1.8858"/>
<path fill-rule="evenodd" clip-rule="evenodd" d="M15.9823 8.28224C15.0612 10.1742 13.3077 13.7618 12.0854 16.255C10.8632 18.748 9.86328 20.8555 9.86328 20.9382C9.86328 21.0209 11.6323 23.022 13.7944 25.3849L17.7255 29.6812L19.3628 27.8544C20.2634 26.8497 22.0116 24.8923 23.2479 23.5048L25.4956 20.9819L24.5085 18.9215C23.9655 17.7882 23.2553 16.2985 22.9301 15.611C21.0999 11.741 17.8518 5.04031 17.7618 4.94892C17.7042 4.89045 16.9033 6.39044 15.9823 8.28224ZM17.1915 12.1387V16.0971H15.9549H14.7186L14.676 16.6873C14.6337 17.2747 14.6306 17.2778 14.0459 17.3203C13.4611 17.3629 13.4582 17.3657 13.4582 17.9105V18.4582H14.0804H14.7027V19.0832V19.7082H15.9547H17.2067L17.1645 20.3679L17.1223 21.0276L15.2903 21.0663L13.4582 21.1051V21.6566V22.2081H15.3249H17.1915V24.9165C17.1915 26.406 17.1447 27.6201 17.0878 27.6142C17.0308 27.6084 15.5996 26.0801 13.9073 24.2177L10.8306 20.8318L13.8728 14.6236C15.5459 11.209 16.9149 8.36251 16.9149 8.29793C16.9149 8.23335 16.9772 8.18043 17.0532 8.18043C17.1421 8.18043 17.1915 9.59251 17.1915 12.1387ZM20.5226 12.6336C24.101 20.1004 24.3919 20.7308 24.3279 20.8813C24.2759 21.0037 19.1101 26.849 18.4955 27.4809C18.3237 27.6574 18.2976 27.3233 18.2976 24.9462V22.2081H19.542H20.7864V21.5832V20.9582H21.4086H22.0308V20.4026V19.847H21.4086H20.7864V19.2275V18.6079L19.5766 18.5677L18.3667 18.5276L18.3246 17.8679L18.2824 17.2082H19.5344H20.7864V16.6526V16.0971H19.542H18.2976V12.1156C18.2976 9.92584 18.3275 8.16404 18.3638 8.20071C18.4003 8.23738 19.3718 10.2321 20.5226 12.6336ZM17.1645 17.8679L17.1223 18.5276H16.5001H15.8779L15.8358 17.8679L15.7936 17.2082H16.5001H17.2067L17.1645 17.8679ZM19.6533 20.3679L19.6112 21.0276H18.989H18.3667L18.3246 20.3679L18.2824 19.7082H18.989H19.6955L19.6533 20.3679Z" fill="#715F0D"/>
<path fill-rule="evenodd" clip-rule="evenodd" d="M15.0761 8.28224C14.1549 10.1742 12.4014 13.7618 11.1791 16.255C9.95698 18.748 8.95703 20.8555 8.95703 20.9382C8.95703 21.0209 10.726 23.022 12.8881 25.3849L16.8192 29.6812L18.4566 27.8544C19.3571 26.8497 21.1054 24.8923 22.3416 23.5048L24.5893 20.9819L23.6022 18.9215C23.0592 17.7882 22.3491 16.2985 22.0239 15.611C20.1936 11.741 16.9456 5.04031 16.8556 4.94892C16.7979 4.89045 15.9971 6.39044 15.0761 8.28224ZM16.2852 12.1387V16.0971H15.0487H13.8123L13.7697 16.6873C13.7274 17.2747 13.7244 17.2778 13.1396 17.3203C12.5549 17.3629 12.552 17.3657 12.552 17.9105V18.4582H13.1742H13.7964V19.0832V19.7082H15.0484H16.3004L16.2583 20.3679L16.2161 21.0276L14.384 21.0663L12.552 21.1051V21.6566V22.2081H14.4186H16.2852V24.9165C16.2852 26.406 16.2385 27.6201 16.1815 27.6142C16.1246 27.6084 14.6933 26.0801 13.0011 24.2177L9.92435 20.8318L12.9665 14.6236C14.6397 11.209 16.0087 8.36251 16.0087 8.29793C16.0087 8.23335 16.0709 8.18043 16.147 8.18043C16.2359 8.18043 16.2852 9.59251 16.2852 12.1387ZM19.6164 12.6336C23.1947 20.1004 23.4857 20.7308 23.4216 20.8813C23.3696 21.0037 18.2038 26.849 17.5892 27.4809C17.4175 27.6574 17.3914 27.3233 17.3914 24.9462V22.2081H18.6358H19.8802V21.5832V20.9582H20.5024H21.1246V20.4026V19.847H20.5024H19.8802V19.2275V18.6079L18.6703 18.5677L17.4605 18.5276L17.4183 17.8679L17.3762 17.2082H18.6282H19.8802V16.6526V16.0971H18.6358H17.3914V12.1156C17.3914 9.92584 17.4212 8.16404 17.4576 8.20071C17.4941 8.23738 18.4656 10.2321 19.6164 12.6336ZM16.2583 17.8679L16.2161 18.5276H15.5939H14.9717L14.9295 17.8679L14.8873 17.2082H15.5939H16.3004L16.2583 17.8679ZM18.7471 20.3679L18.7049 21.0276H18.0827H17.4605L17.4183 20.3679L17.3762 19.7082H18.0827H18.7893L18.7471 20.3679Z" fill="#FFE485"/>
</svg>
