<svg width="513" height="513" viewBox="0 0 513 513" fill="none" xmlns="http://www.w3.org/2000/svg">
<g clip-path="url(#clip0_387_4)">
<path d="M211.73 163.008L206.4 184.326C204.67 185.264 202.962 186.253 201.282 187.29L180.143 181.243C173.525 179.349 166.469 182.204 163.028 188.165L133.028 240.126C129.587 246.087 130.643 253.625 135.591 258.409L151.326 273.624C151.296 274.639 151.281 275.646 151.281 276.645C151.281 277.645 151.296 278.653 151.326 279.666L135.591 294.881C130.643 299.665 129.586 307.203 133.028 313.164L163.028 365.126C166.469 371.087 173.528 373.938 180.144 372.048L201.282 366.001C202.962 367.037 204.669 368.026 206.4 368.964L211.73 390.282C213.399 396.96 219.399 401.644 226.282 401.644H286.282C293.165 401.644 299.165 396.959 300.834 390.282L306.163 368.965C307.894 368.027 309.601 367.038 311.281 366.001L332.419 372.048C339.036 373.943 346.093 371.087 349.535 365.126L379.535 313.164C382.976 307.203 381.92 299.665 376.972 294.881L361.237 279.666C361.267 278.652 361.282 277.645 361.282 276.645C361.282 275.646 361.267 274.638 361.237 273.624L376.972 258.409C381.92 253.625 382.977 246.087 379.535 240.126L349.535 188.165C346.094 182.204 339.038 179.352 332.42 181.243L311.281 187.29C309.6 186.253 307.894 185.265 306.163 184.326L300.834 163.008C299.165 156.331 293.166 151.646 286.282 151.646H226.282C219.4 151.646 213.4 156.331 211.73 163.008ZM233.829 198.307L237.994 181.646H274.571L278.736 198.307C279.848 202.754 282.932 206.449 287.108 208.337C291.596 210.366 295.928 212.874 299.983 215.793C303.708 218.473 308.457 219.301 312.869 218.039L329.411 213.308L347.7 244.984L335.403 256.875C332.109 260.06 330.451 264.576 330.903 269.137C331.155 271.687 331.283 274.213 331.283 276.647C331.283 279.089 331.155 281.615 330.903 284.152C330.449 288.714 332.107 293.232 335.403 296.419L347.7 308.31L329.411 339.987L312.869 335.255C308.453 333.993 303.706 334.819 299.98 337.503C295.929 340.419 291.598 342.927 287.107 344.957C282.931 346.846 279.847 350.54 278.735 354.987L274.571 371.646H237.994L233.829 354.985C232.717 350.538 229.634 346.843 225.457 344.955C220.966 342.925 216.635 340.416 212.584 337.501C208.857 334.818 204.108 333.989 199.695 335.253L183.153 339.985L164.864 308.308L177.161 296.417C180.456 293.23 182.114 288.712 181.661 284.15C181.409 281.613 181.281 279.088 181.281 276.645C181.281 274.211 181.409 271.685 181.661 269.135C182.113 264.574 180.455 260.058 177.161 256.873L164.864 244.982L183.153 213.306L199.695 218.037C204.109 219.3 208.856 218.472 212.581 215.791C216.636 212.872 220.968 210.364 225.456 208.335C229.634 206.449 232.717 202.754 233.829 198.307Z" fill="#F5D64E"/>
<path d="M211.282 276.646C211.282 301.459 231.469 321.646 256.282 321.646C281.095 321.646 301.282 301.459 301.282 276.646C301.282 251.833 281.095 231.646 256.282 231.646C231.469 231.646 211.282 251.833 211.282 276.646ZM256.282 261.646C264.553 261.646 271.282 268.375 271.282 276.646C271.282 284.917 264.553 291.646 256.282 291.646C248.011 291.646 241.282 284.917 241.282 276.646C241.282 268.375 248.011 261.646 256.282 261.646Z" fill="#F5D64E"/>
<path d="M503.859 359.114C500.605 351.496 491.791 347.958 484.173 351.212L474.289 355.434C484.199 328.726 489.363 300.333 489.363 271.646C489.363 176.637 433.243 90.2207 346.391 51.4927C338.826 48.1167 329.956 51.5167 326.582 59.0827C323.208 66.6487 326.606 75.5187 334.173 78.8917C410.224 112.804 459.363 188.464 459.363 271.646C459.363 297.965 454.398 324 444.889 348.347L438.237 332.774C434.983 325.156 426.169 321.618 418.551 324.872C410.933 328.126 407.395 336.94 410.649 344.558L430.29 390.539C433.544 398.158 442.358 401.695 449.977 398.441L495.958 378.799C503.576 375.546 507.114 366.732 503.859 359.114Z" fill="#F5D64E"/>
<path d="M372.354 442.327C336.114 468.704 293.238 482.646 248.363 482.646C184.062 482.646 123.454 452.952 83.7264 403.499L100.487 405.518C108.712 406.509 116.183 400.645 117.174 392.42C118.165 384.195 112.301 376.724 104.076 375.733L54.4354 369.753C46.2104 368.762 38.7404 374.627 37.7494 382.851L31.7684 432.492C30.7774 440.717 36.6414 448.187 44.8664 449.179C53.0914 450.17 60.5624 444.306 61.5534 436.081L62.8514 425.31C80.6384 446.791 102.067 465.163 126.192 479.393C163.074 501.147 205.321 512.646 248.363 512.646C299.625 512.646 348.605 496.717 390.009 466.582C396.707 461.707 398.185 452.325 393.31 445.627C388.434 438.929 379.051 437.45 372.354 442.327Z" fill="#F5D64E"/>
<path d="M38.5143 293.72C37.7503 286.366 37.3623 278.939 37.3623 271.647C37.3623 166.107 115.253 78.4187 216.568 63.0407L206.364 76.6467C201.393 83.2737 202.737 92.6757 209.364 97.6467C215.991 102.618 225.393 101.274 230.364 94.6467L260.364 54.6467C265.335 48.0197 263.991 38.6177 257.364 33.6467L217.364 3.6467C210.737 -1.3243 201.335 0.0196996 196.364 6.6467C191.393 13.2737 192.737 22.6757 199.364 27.6467L207.874 34.0287C158.898 42.2647 113.776 65.4077 77.9503 101.234C32.4313 146.754 7.36328 207.274 7.36328 271.647C7.36328 279.97 7.80528 288.441 8.67628 296.822C9.47728 304.535 15.9893 310.272 23.5773 310.272C24.0953 310.272 24.6193 310.246 25.1463 310.191C33.3853 309.334 39.3703 301.96 38.5143 293.72Z" fill="#F5D64E"/>
</g>
<defs>
<clipPath id="clip0_387_4">
<rect width="512" height="512" fill="white" transform="translate(0.214844 0.645752)"/>
</clipPath>
</defs>
</svg>
