<svg width="32" height="20" viewBox="0 0 32 20" fill="none" xmlns="http://www.w3.org/2000/svg">
<path fill-rule="evenodd" clip-rule="evenodd" d="M5.18513 0.234557C3.88478 0.367686 2.57903 1.10901 1.80161 2.1555C0.641448 3.71709 0.481345 5.7286 1.37897 7.4652C1.75769 8.19794 2.68586 9.12672 3.41807 9.50559C6.14659 10.9175 9.34729 9.67185 10.4297 6.77692C10.7128 6.01963 10.7575 4.67156 10.5272 3.82887C9.88201 1.46736 7.67134 -0.0199972 5.18513 0.234557ZM24.6436 0.240104C24.033 0.309404 23.2905 0.56905 22.7083 0.916916C22.1648 1.24161 21.3886 2.01674 21.0518 2.57122C20.4332 3.58966 20.1879 5.00157 20.4301 6.15063C20.8356 8.07507 22.4268 9.63226 24.3634 9.99988C26.539 10.4128 28.7596 9.30825 29.7038 7.34347C30.1024 6.51408 30.2302 5.96067 30.2252 5.08629C30.2175 3.72401 29.7636 2.65731 28.7668 1.65915C28.2607 1.15225 27.9849 0.943359 27.5413 0.731053C26.5841 0.272702 25.6902 0.121261 24.6436 0.240104ZM6.49856 2.62524C7.25356 2.8494 7.80294 3.33716 8.15871 4.099C8.32186 4.44831 8.35324 4.623 8.34982 5.16281C8.34488 5.94935 8.18478 6.35587 7.65827 6.91878C7.12932 7.4842 6.67948 7.69012 5.88763 7.7291C5.00702 7.77249 4.49586 7.58252 3.9059 6.99256C2.94209 6.02875 2.8658 4.58243 3.71974 3.46292C4.31912 2.67699 5.48726 2.32487 6.49856 2.62524ZM26.3324 2.72342C28.0393 3.52576 28.4482 5.69008 27.1402 6.99819C26.5725 7.56581 26.2036 7.70836 25.3022 7.70836C24.6104 7.70836 24.5024 7.68814 24.0973 7.4829C23.6005 7.23109 23.1555 6.77152 22.8932 6.23893C22.7464 5.94099 22.7186 5.76402 22.7187 5.12482C22.7187 4.44861 22.741 4.3227 22.9211 3.98152C23.2737 3.31322 23.8286 2.84196 24.5423 2.60465C24.9767 2.46012 25.9031 2.5216 26.3324 2.72342ZM0.745854 10.337C0.269571 10.4755 -0.11059 11.1841 0.0293775 11.6723C0.13933 12.0555 0.248371 12.2071 0.548593 12.3938L0.83453 12.5715H15.4999H30.1653L30.4233 12.4195C30.7945 12.2008 30.9795 11.9134 31.0186 11.4943C31.0566 11.0854 30.8831 10.7476 30.4827 10.4509L30.2681 10.2919L15.6273 10.2794C6.89065 10.2721 0.889468 10.2952 0.745854 10.337ZM13.3172 16.1205L11.1547 19.1823L15.4859 19.2019C17.8682 19.2127 19.8324 19.2065 19.8508 19.188C19.8693 19.1695 19.4762 18.5794 18.9774 17.8766C18.4784 17.1738 17.5149 15.8123 16.836 14.8511C16.1572 13.8899 15.5743 13.0934 15.5407 13.0811C15.5071 13.0687 14.5065 14.4365 13.3172 16.1205Z" fill="#A8A7A1"/>
</svg>
