<svg width="27" height="26" viewBox="0 0 27 26" fill="none" xmlns="http://www.w3.org/2000/svg">
<path fill-rule="evenodd" clip-rule="evenodd" d="M0.338388 0.588388L0.0488281 0.877947V7.91117V14.9444L0.297338 15.2226L0.545763 15.5007L5.98207 15.5245L11.4183 15.5484L11.5673 15.3661C11.7572 15.1338 11.7545 15.0704 11.546 14.862L11.3757 14.6916H6.13809H0.900473V7.93017C0.900473 1.84312 0.91393 1.1635 1.0352 1.117C1.1093 1.08856 3.4394 1.06531 6.21321 1.06531C10.0222 1.06531 11.2815 1.09035 11.3587 1.16751C11.4361 1.24492 11.4609 2.63668 11.4609 6.91007C11.4609 11.924 11.4757 12.5652 11.5947 12.6842C11.7741 12.8636 11.9371 12.8528 12.1422 12.6477L12.3125 12.4774V6.81119C12.3125 0.600822 12.3198 0.694588 11.8124 0.432196C11.5862 0.31518 10.8839 0.298828 6.09125 0.298828H0.627947L0.338388 0.588388ZM14.081 0.547338L13.8029 0.795848V4.85513V8.91441L14.081 9.16292L14.3592 9.41143H19.8469C23.6113 9.41143 25.3984 9.38239 25.5375 9.31903C26.0238 9.09752 26.024 9.09479 26.024 4.85513C26.024 0.61547 26.0238 0.612745 25.5375 0.391232C25.3984 0.327869 23.6113 0.298828 19.8469 0.298828H14.3592L14.081 0.547338ZM25.1298 4.85513V8.60237L20.0625 8.62588C17.2755 8.63882 14.909 8.62852 14.8036 8.60297L14.612 8.55655V4.86058C14.612 1.98372 14.6356 1.15507 14.7184 1.12135C14.777 1.09759 17.1435 1.08481 19.9773 1.09299L25.1298 1.10789V4.85513ZM14.2511 10.8222C13.7464 11.0961 13.7603 10.9144 13.7603 17.1937C13.7603 22.3044 13.7751 22.9552 13.8941 23.0743C14.065 23.2452 14.3072 23.2452 14.4782 23.0743C14.5971 22.9552 14.612 22.3087 14.612 17.2405V11.5405H19.8922H25.1724V18.302C25.1724 24.3891 25.1589 25.0687 25.0376 25.1152C24.9635 25.1436 22.5675 25.1669 19.7131 25.1669H14.5231L14.4311 25.3691C14.3642 25.5157 14.3655 25.6208 14.4358 25.7523L14.5328 25.9334H19.9888H25.4449L25.7345 25.6438L26.024 25.3542V18.4103C26.024 14.1055 25.9924 11.3834 25.941 11.2481C25.8953 11.1279 25.7324 10.9531 25.579 10.8596C25.3079 10.6943 25.1501 10.6896 19.8922 10.6926C15.2744 10.6953 14.4502 10.7142 14.2511 10.8222ZM0.297764 17.0697L0.0488281 17.3186V21.3771V25.4355L0.297764 25.6844L0.5467 25.9334H6.11263C12.2228 25.9334 11.9068 25.96 12.1853 25.4214C12.3752 25.0542 12.3752 17.6999 12.1853 17.3327C11.9068 16.7941 12.2228 16.8207 6.11263 16.8207H0.5467L0.297764 17.0697ZM11.3261 17.6389C11.4461 17.685 11.4609 18.0947 11.4609 21.3845V25.0785L11.2693 25.1249C11.1638 25.1504 8.79735 25.1607 6.01035 25.1478L0.943056 25.1243L0.920828 21.4622C0.908564 19.4481 0.916995 17.7523 0.939479 17.6937C0.971501 17.6101 2.08 17.5872 6.08589 17.5872C8.89393 17.5872 11.2521 17.6105 11.3261 17.6389Z" fill="#A8A7A1"/>
</svg>
