<svg width="29" height="29" viewBox="0 0 29 29" fill="none" xmlns="http://www.w3.org/2000/svg">
<path fill-rule="evenodd" clip-rule="evenodd" d="M9.73964 0.834449C9.62947 0.911547 9.60748 0.981456 9.61222 1.23881C9.61539 1.4099 9.64912 1.69798 9.6871 1.87901C9.74221 2.14128 9.78858 2.22347 9.91546 2.28397C10.1109 2.37712 10.347 2.30242 10.4468 2.11588C10.5449 1.93263 10.4027 0.99823 10.2541 0.849665C10.1209 0.716496 9.91659 0.710446 9.73964 0.834449ZM22.0141 0.853679C21.8937 0.974088 21.7193 1.90783 21.7852 2.07946C21.8047 2.13031 21.8896 2.21712 21.974 2.27241C22.1034 2.35723 22.1551 2.36137 22.3058 2.29895C22.5144 2.21256 22.588 2.00931 22.6446 1.36425C22.6796 0.964563 22.6733 0.932993 22.5407 0.84008C22.3544 0.709607 22.1529 0.714879 22.0141 0.853679ZM14.9173 2.27079C12.2956 2.76555 10.2435 4.69042 9.53572 7.31887C9.3469 8.01988 9.31575 9.5036 9.47378 10.2661C9.80319 11.8549 10.6455 13.2413 11.8914 14.245C12.5216 14.7527 13.6097 15.2989 14.4288 15.5188C14.9768 15.666 15.1223 15.6796 16.1361 15.6796C17.1451 15.6796 17.2968 15.6656 17.83 15.5218C19.3095 15.1233 20.6676 14.2076 21.5827 12.9918C22.0102 12.4237 22.511 11.3825 22.7066 10.6555C22.854 10.1071 22.8676 9.96253 22.8676 8.94816C22.8676 7.93918 22.8535 7.78744 22.7098 7.25423C22.5416 6.63008 22.1614 5.76948 21.8133 5.22525C20.97 3.90704 19.4133 2.79226 17.8434 2.38239C17.0826 2.18381 15.6649 2.12972 14.9173 2.27079ZM7.65111 2.63118C7.53459 2.7477 7.50751 2.82054 7.53699 2.93813C7.58881 3.14445 8.16407 3.79232 8.33348 3.83515C8.55753 3.89176 8.74779 3.80963 8.82512 3.62279C8.91756 3.3997 8.85873 3.28385 8.41909 2.82288C8.04666 2.43236 7.88923 2.39306 7.65111 2.63118ZM23.9163 2.76297C23.3587 3.34519 23.2857 3.51771 23.5044 3.73643C23.7237 3.95574 23.9511 3.89464 24.2998 3.52269C24.7578 3.0344 24.8177 2.84336 24.5943 2.58326C24.4329 2.39533 24.2124 2.4538 23.9163 2.76297ZM17.1017 3.0456C21.1046 3.74661 23.2793 8.03617 21.4641 11.6505C20.6747 13.2223 19.171 14.3936 17.4241 14.7978C16.7181 14.9611 15.4497 14.9479 14.7283 14.7696C13.5322 14.474 12.2657 13.6662 11.4913 12.7049C10.9985 12.0931 10.496 11.0899 10.3147 10.3559C10.1358 9.63216 10.123 8.36469 10.2874 7.66021C10.6105 6.27592 11.4024 5.03637 12.4846 4.22088C13.8619 3.18309 15.5023 2.76549 17.1017 3.0456ZM15.2375 4.30547C13.3681 4.68251 11.8766 6.15707 11.4983 8.00214C10.8301 11.2614 13.7323 14.2207 16.9845 13.5963C18.1638 13.3698 19.2578 12.6932 19.9341 11.7718C20.8635 10.5058 21.107 8.79493 20.568 7.31797C19.7806 5.16043 17.4707 3.85504 15.2375 4.30547ZM5.73139 4.37879C5.59774 4.47086 5.53778 4.72654 5.61374 4.88055C5.70318 5.06189 6.21596 5.24454 6.66753 5.25586C6.9643 5.26329 7.00168 5.24933 7.08686 5.09927C7.23189 4.84359 7.08776 4.63506 6.66968 4.49572C6.28102 4.36621 5.83101 4.31008 5.73139 4.37879ZM25.7346 4.45145C25.1562 4.61685 24.9916 4.84168 25.2151 5.16079C25.3329 5.32894 25.555 5.33296 26.1013 5.17672C26.6042 5.03289 26.6794 4.97371 26.6794 4.72181C26.6794 4.32817 26.4227 4.25467 25.7346 4.45145ZM16.3706 6.71083C16.4483 6.76529 16.6172 7.0345 16.7458 7.3091C16.8746 7.58377 17.0277 7.83405 17.0861 7.86532C17.1446 7.89659 17.4283 7.95524 17.7168 7.99555C18.3457 8.08356 18.5323 8.19977 18.5323 8.50349C18.5323 8.68033 18.4695 8.77043 18.083 9.14831C17.5806 9.63941 17.5878 9.61485 17.722 10.3771C17.7998 10.8194 17.7997 10.8977 17.7208 11.0502C17.5669 11.3478 17.3748 11.3426 16.7834 11.0251C16.4969 10.8712 16.2137 10.7444 16.1543 10.7432C16.0949 10.742 15.8033 10.8678 15.5063 11.0228C14.8909 11.344 14.7054 11.348 14.548 11.0435C14.4642 10.8814 14.4644 10.8115 14.5506 10.3146C14.6031 10.0123 14.6319 9.70872 14.6146 9.64001C14.5974 9.57135 14.3935 9.3303 14.1616 9.10445C13.8072 8.75934 13.7399 8.66212 13.7399 8.49582C13.7399 8.20702 13.9303 8.08661 14.5273 7.99789C14.8026 7.95697 15.0758 7.90935 15.1344 7.8921C15.1938 7.87461 15.3586 7.62636 15.5071 7.33073C15.8558 6.63637 16.0575 6.49158 16.3706 6.71083ZM20.8986 15.7307C20.6515 15.8183 20.6405 15.8263 18.1305 17.7676C16.9046 18.7157 15.8723 19.4914 15.8364 19.4914C15.8005 19.4914 15.1996 19.1308 14.5009 18.6899C13.8023 18.2491 13.0959 17.8209 12.9312 17.7383C11.9294 17.2361 10.5185 17.1063 8.94751 17.3717C8.29323 17.4823 7.99898 17.5669 6.76679 17.9985C6.20985 18.1936 5.73049 18.3533 5.70156 18.3533C5.67262 18.3533 5.63309 18.306 5.61368 18.2484C5.47871 17.8475 5.3223 17.6213 5.08322 17.4812L4.82467 17.3297L3.06238 17.3473L1.30004 17.3648L1.08013 17.5327C0.624548 17.8803 0.650667 17.5956 0.650667 22.2171V26.3506L0.788448 26.5722C0.864288 26.6941 1.02603 26.8558 1.14788 26.9316C1.36246 27.0651 1.42039 27.07 2.96743 27.0879C3.98744 27.0997 4.65262 27.083 4.80676 27.0415C5.13342 26.9535 5.37927 26.7335 5.5122 26.4102C5.58061 26.2439 5.66082 26.1413 5.72247 26.1411C5.84305 26.1408 6.80249 26.5025 7.14599 26.6778C7.28173 26.7471 7.68196 26.9953 8.0354 27.2295C9.42747 28.1519 10.6099 28.5107 12.4822 28.5791C14.2927 28.6453 16.2339 28.2703 17.7805 27.5557C18.0356 27.4379 20.3782 26.1615 22.986 24.7194C28.0516 21.9182 28.1148 21.8779 28.4168 21.2586C28.538 21.01 28.5632 20.8673 28.5646 20.4191C28.5662 19.9283 28.5485 19.8427 28.3705 19.4807C28.2627 19.2616 28.0752 18.9952 27.9539 18.8886C27.4752 18.4683 26.7211 18.2681 26.1402 18.407L25.8707 18.4716L25.7209 18.2788C25.4678 17.9531 25.2848 17.8033 24.9507 17.6486C24.6725 17.5197 24.568 17.5035 24.1652 17.5268C23.783 17.549 23.6404 17.5878 23.3602 17.7458L23.0198 17.938L23.06 17.4948C23.0906 17.157 23.0765 16.9805 23.0007 16.7524C22.7805 16.0891 22.1696 15.6538 21.4709 15.6623C21.2549 15.6648 20.9974 15.6957 20.8986 15.7307ZM11.6136 18.1418C11.8668 18.1902 12.223 18.2981 12.4053 18.3816C12.6941 18.5138 16.6518 20.9714 17.5825 21.5965C18.1405 21.9713 18.3133 22.5182 18.0473 23.0677C17.9621 23.2436 17.837 23.3767 17.6584 23.4814C17.1859 23.7583 17.0861 23.7354 14.7521 22.8137C12.7424 22.0202 12.6428 21.9874 12.4917 22.0722C12.4048 22.121 12.3087 22.2322 12.278 22.3191C12.164 22.6436 12.2621 22.6992 14.5259 23.5934L16.6453 24.4305L17.0946 24.4281C17.8667 24.424 18.4438 24.0557 18.8165 23.3292L18.9816 23.0073L22.6023 21.0897C26.1029 19.2355 26.234 19.172 26.556 19.1723C27.2515 19.1729 27.7742 19.6934 27.7791 20.39C27.7818 20.7859 27.6109 21.1532 27.3239 21.3678C27.1306 21.5125 18.3557 26.3787 17.6637 26.7249C16.0815 27.5167 13.9241 27.9175 12.0925 27.76C10.4761 27.621 9.62642 27.323 8.30551 26.4317C7.74348 26.0524 6.93428 25.6687 6.22183 25.4435C5.9253 25.3499 5.66274 25.246 5.63836 25.2128C5.61398 25.1796 5.6005 23.8216 5.60841 22.195L5.62278 19.2376L6.79093 18.8274C8.01958 18.396 8.68477 18.2069 9.27825 18.1205C9.86897 18.0345 11.112 18.0458 11.6136 18.1418Z" fill="#A8A7A1"/>
</svg>
