<svg width="28" height="27" viewBox="0 0 28 27" fill="none" xmlns="http://www.w3.org/2000/svg">
<path d="M7.98972 2.24262L7.98969 2.24263C5.23761 3.65743 2.9519 6.3498 1.94336 9.37714C1.44777 10.8648 1.31897 11.6882 1.32082 13.3992L1.32082 13.3992C1.32373 16.1623 1.90999 18.1436 3.36962 20.3509C6.60972 25.2506 12.6097 27.2757 18.1623 25.343C19.3744 24.921 19.8705 24.673 20.9426 23.9522C21.4721 23.5962 21.7305 23.4102 21.862 23.2859C21.7737 23.1745 21.6347 23.0149 21.4351 22.7988C21.0236 22.3532 20.3834 21.6983 19.4748 20.7921C18.766 20.0852 18.1077 19.4437 17.6186 18.98C17.3736 18.7477 17.1738 18.5627 17.0324 18.437C17.028 18.433 17.0236 18.4292 17.0193 18.4253C16.9825 18.4447 16.9444 18.4662 16.9076 18.4889L16.6448 18.0636L16.9076 18.4889C15.327 19.4657 12.9614 19.5353 11.2828 18.6673L11.2828 18.6673C10.0277 18.0182 8.86533 16.6889 8.40383 15.3688C8.40383 15.3688 8.40383 15.3688 8.40383 15.3688L8.87582 15.2038C8.6055 14.4306 8.5171 13.1449 8.67797 12.3265L7.98972 2.24262ZM7.98972 2.24262C9.25029 1.59445 9.6496 1.44238 10.9973 1.0958M7.98972 2.24262L10.9973 1.0958M26.9585 14.4714C27.12 14.7274 26.8745 16.2202 26.4731 17.4239C25.7477 19.5991 24.35 21.8689 23.7359 21.8689C23.6514 21.8689 22.4396 20.7321 21.0433 19.3426C19.176 17.4846 18.5043 16.7545 18.5043 16.5829C18.5043 16.4547 18.6124 16.1362 18.7447 15.8753C18.8769 15.6144 19.0392 15.1987 19.1053 14.9515M26.9585 14.4714L19.5883 15.0806C19.6138 14.9853 19.6455 14.8876 19.6762 14.8057C19.7906 14.7956 19.9578 14.7871 20.1952 14.7808C20.7674 14.7658 21.6923 14.7653 23.1387 14.7755C24.8233 14.7874 25.7395 14.798 26.2478 14.8241C26.358 14.8298 26.4428 14.8359 26.5079 14.8421C26.5078 14.8462 26.5076 14.8504 26.5075 14.8546C26.5019 15.02 26.4772 15.2451 26.4335 15.5112C26.3463 16.0417 26.1908 16.69 25.9988 17.2658C25.6484 18.3165 25.134 19.3929 24.637 20.1999C24.3877 20.6048 24.1521 20.9266 23.9539 21.1404C23.8957 21.2033 23.8446 21.2525 23.8012 21.2899C23.661 21.1676 23.4642 20.9879 23.2236 20.7622C22.7401 20.3085 22.0917 19.6804 21.3959 18.9882C20.4623 18.0592 19.8346 17.4191 19.4415 16.9918C19.2439 16.777 19.1144 16.6255 19.0369 16.5233C19.0332 16.5183 19.0296 16.5135 19.0262 16.509C19.0324 16.4881 19.0398 16.465 19.0483 16.4397C19.0846 16.333 19.1356 16.21 19.1907 16.1015L19.1907 16.1013C19.3364 15.8139 19.5121 15.3659 19.5883 15.0808L19.1053 14.9515M26.9585 14.4714C26.8617 14.3178 26.5006 14.2993 23.1422 14.2755C20.2517 14.2551 19.4099 14.2772 19.3292 14.3757M26.9585 14.4714L19.3292 14.3757M19.1053 14.9515C19.1714 14.7044 19.2721 14.4453 19.3292 14.3757M19.1053 14.9515L19.3292 14.3757M10.9973 1.0958C11.6541 0.926903 12.1051 0.84536 12.396 0.831916C12.4518 0.829337 12.4968 0.829567 12.5326 0.831245L10.9973 1.0958ZM15.7814 7.81375L15.7813 7.81374C15.6324 7.76779 15.4851 7.71611 15.3691 7.67068C15.368 7.65681 15.3668 7.64219 15.3656 7.62683C15.3507 7.43172 15.3375 7.15255 15.3265 6.81216C15.3045 6.13341 15.2918 5.23369 15.2892 4.32609C15.2866 3.41857 15.2941 2.50782 15.3121 1.80713C15.3211 1.45604 15.3327 1.16234 15.3466 0.949727C15.3496 0.903586 15.3527 0.86249 15.3557 0.826362C15.3629 0.826235 15.3704 0.826168 15.3785 0.826172C15.5871 0.826279 15.9335 0.877421 16.5009 1.00294L16.5009 1.00294C20.8955 1.97491 24.2176 4.84653 25.8646 9.10626L25.8646 9.10629C26.0047 9.46845 26.1716 10.0594 26.3045 10.6359C26.4409 11.2272 26.5236 11.7278 26.5236 11.93V11.9421C26.5236 11.9525 26.5236 11.9621 26.5236 11.9711C26.5088 11.9739 26.492 11.9769 26.4731 11.9798C26.2683 12.0118 25.9319 12.0304 25.3711 12.0394C24.8473 12.0478 24.1539 12.0478 23.2298 12.0478L23.0698 12.0478C21.6732 12.0478 20.7657 12.0404 20.1992 12.0215C19.9615 12.0135 19.793 12.0037 19.6777 11.9928C19.6728 11.981 19.6677 11.9685 19.6625 11.9556C19.6102 11.826 19.5492 11.6594 19.4933 11.4895C18.9467 9.82683 17.4335 8.3238 15.7814 7.81375ZM15.2483 0.837273C15.2481 0.837161 15.25 0.836397 15.2546 0.835319C15.2507 0.836846 15.2485 0.837385 15.2483 0.837273ZM15.3743 0.664524C15.3756 0.658414 15.3756 0.659856 15.3739 0.666788C15.374 0.665811 15.3742 0.665061 15.3743 0.664524ZM26.5003 14.6591C26.5004 14.659 26.5009 14.6608 26.5016 14.6648C26.5006 14.6613 26.5003 14.6593 26.5003 14.6591ZM12.5136 0.664519C12.5137 0.665056 12.5138 0.665808 12.514 0.666785C12.5122 0.65985 12.5123 0.658406 12.5136 0.664519ZM18.976 16.4356C18.9756 16.4349 18.9752 16.4342 18.9749 16.4336C18.9695 16.4239 18.9714 16.4252 18.976 16.4356ZM23.6783 21.3771C23.6783 21.3771 23.6788 21.3768 23.6798 21.3765L23.6783 21.3771Z" stroke="#2C2819"/>
<path d="M7.98972 2.24262L7.98969 2.24263C5.23761 3.65743 2.9519 6.3498 1.94336 9.37714C1.44777 10.8648 1.31897 11.6882 1.32082 13.3992L1.32082 13.3992C1.32373 16.1623 1.90999 18.1436 3.36962 20.3509C6.60972 25.2506 12.6097 27.2757 18.1623 25.343C19.3744 24.921 19.8705 24.673 20.9426 23.9522C21.4721 23.5962 21.7305 23.4102 21.862 23.2859C21.7737 23.1745 21.6347 23.0149 21.4351 22.7988C21.0236 22.3532 20.3834 21.6983 19.4748 20.7921C18.766 20.0852 18.1077 19.4437 17.6186 18.98C17.3736 18.7477 17.1738 18.5627 17.0324 18.437C17.028 18.433 17.0236 18.4292 17.0193 18.4253C16.9825 18.4447 16.9444 18.4662 16.9076 18.4889L16.6448 18.0636L16.9076 18.4889C15.327 19.4657 12.9614 19.5353 11.2828 18.6673L11.2828 18.6673C10.0277 18.0182 8.86533 16.6889 8.40383 15.3688C8.40383 15.3688 8.40383 15.3688 8.40383 15.3688L8.87582 15.2038C8.6055 14.4306 8.5171 13.1449 8.67797 12.3265L7.98972 2.24262ZM7.98972 2.24262C9.25029 1.59445 9.6496 1.44238 10.9973 1.0958M7.98972 2.24262L10.9973 1.0958M26.9585 14.4714C27.12 14.7274 26.8745 16.2202 26.4731 17.4239C25.7477 19.5991 24.35 21.8689 23.7359 21.8689C23.6514 21.8689 22.4396 20.7321 21.0433 19.3426C19.176 17.4846 18.5043 16.7545 18.5043 16.5829C18.5043 16.4547 18.6124 16.1362 18.7447 15.8753C18.8769 15.6144 19.0392 15.1987 19.1053 14.9515M26.9585 14.4714L19.5883 15.0806C19.6138 14.9853 19.6455 14.8876 19.6762 14.8057C19.7906 14.7956 19.9578 14.7871 20.1952 14.7808C20.7674 14.7658 21.6923 14.7653 23.1387 14.7755C24.8233 14.7874 25.7395 14.798 26.2478 14.8241C26.358 14.8298 26.4428 14.8359 26.5079 14.8421C26.5078 14.8462 26.5076 14.8504 26.5075 14.8546C26.5019 15.02 26.4772 15.2451 26.4335 15.5112C26.3463 16.0417 26.1908 16.69 25.9988 17.2658C25.6484 18.3165 25.134 19.3929 24.637 20.1999C24.3877 20.6048 24.1521 20.9266 23.9539 21.1404C23.8957 21.2033 23.8446 21.2525 23.8012 21.2899C23.661 21.1676 23.4642 20.9879 23.2236 20.7622C22.7401 20.3085 22.0917 19.6804 21.3959 18.9882C20.4623 18.0592 19.8346 17.4191 19.4415 16.9918C19.2439 16.777 19.1144 16.6255 19.0369 16.5233C19.0332 16.5183 19.0296 16.5135 19.0262 16.509C19.0324 16.4881 19.0398 16.465 19.0483 16.4397C19.0846 16.333 19.1356 16.21 19.1907 16.1015L19.1907 16.1013C19.3364 15.8139 19.5121 15.3659 19.5883 15.0808L19.1053 14.9515M26.9585 14.4714C26.8617 14.3178 26.5006 14.2993 23.1422 14.2755C20.2517 14.2551 19.4099 14.2772 19.3292 14.3757M26.9585 14.4714L19.3292 14.3757M19.1053 14.9515C19.1714 14.7044 19.2721 14.4453 19.3292 14.3757M19.1053 14.9515L19.3292 14.3757M10.9973 1.0958C11.6541 0.926903 12.1051 0.84536 12.396 0.831916C12.4518 0.829337 12.4968 0.829567 12.5326 0.831245L10.9973 1.0958ZM15.7814 7.81375L15.7813 7.81374C15.6324 7.76779 15.4851 7.71611 15.3691 7.67068C15.368 7.65681 15.3668 7.64219 15.3656 7.62683C15.3507 7.43172 15.3375 7.15255 15.3265 6.81216C15.3045 6.13341 15.2918 5.23369 15.2892 4.32609C15.2866 3.41857 15.2941 2.50782 15.3121 1.80713C15.3211 1.45604 15.3327 1.16234 15.3466 0.949727C15.3496 0.903586 15.3527 0.86249 15.3557 0.826362C15.3629 0.826235 15.3704 0.826168 15.3785 0.826172C15.5871 0.826279 15.9335 0.877421 16.5009 1.00294L16.5009 1.00294C20.8955 1.97491 24.2176 4.84653 25.8646 9.10626L25.8646 9.10629C26.0047 9.46845 26.1716 10.0594 26.3045 10.6359C26.4409 11.2272 26.5236 11.7278 26.5236 11.93V11.9421C26.5236 11.9525 26.5236 11.9621 26.5236 11.9711C26.5088 11.9739 26.492 11.9769 26.4731 11.9798C26.2683 12.0118 25.9319 12.0304 25.3711 12.0394C24.8473 12.0478 24.1539 12.0478 23.2298 12.0478L23.0698 12.0478C21.6732 12.0478 20.7657 12.0404 20.1992 12.0215C19.9615 12.0135 19.793 12.0037 19.6777 11.9928C19.6728 11.981 19.6677 11.9685 19.6625 11.9556C19.6102 11.826 19.5492 11.6594 19.4933 11.4895C18.9467 9.82683 17.4335 8.3238 15.7814 7.81375ZM15.2483 0.837273C15.2481 0.837161 15.25 0.836397 15.2546 0.835319C15.2507 0.836846 15.2485 0.837385 15.2483 0.837273ZM15.3743 0.664524C15.3756 0.658414 15.3756 0.659856 15.3739 0.666788C15.374 0.665811 15.3742 0.665061 15.3743 0.664524ZM26.5003 14.6591C26.5004 14.659 26.5009 14.6608 26.5016 14.6648C26.5006 14.6613 26.5003 14.6593 26.5003 14.6591ZM12.5136 0.664519C12.5137 0.665056 12.5138 0.665808 12.514 0.666785C12.5122 0.65985 12.5123 0.658406 12.5136 0.664519ZM18.976 16.4356C18.9756 16.4349 18.9752 16.4342 18.9749 16.4336C18.9695 16.4239 18.9714 16.4252 18.976 16.4356ZM23.6783 21.3771C23.6783 21.3771 23.6788 21.3768 23.6798 21.3765L23.6783 21.3771Z" stroke="#12100A"/>
</svg>
