<svg width="347" height="78" viewBox="0 0 347 78" fill="none" xmlns="http://www.w3.org/2000/svg">
<rect width="79" height="78" rx="10" fill="#D9D9D9"/>
<rect x="91" y="16" width="88" height="16" rx="8" fill="#D9D9D9"/>
<rect x="91" y="37" width="102" height="10" rx="5" fill="#D9D9D9"/>
<rect x="91" y="52" width="117" height="10" rx="5" fill="#D9D9D9"/>
<rect x="308.5" y="0.5" width="38" height="13" rx="3.5" fill="#22C55E" fill-opacity="0.1"/>
<rect x="308.5" y="0.5" width="38" height="13" rx="3.5" stroke="#22C55E"/>
<path d="M318.16 9.09C317.816 9.09 317.513 9.02 317.251 8.88C316.991 8.74 316.787 8.543 316.639 8.289C316.493 8.035 316.42 7.737 316.42 7.395V4.686L317.152 4.68V7.377C317.152 7.539 317.179 7.684 317.233 7.812C317.289 7.94 317.364 8.049 317.458 8.139C317.552 8.227 317.66 8.294 317.782 8.34C317.904 8.386 318.03 8.409 318.16 8.409C318.294 8.409 318.421 8.386 318.541 8.34C318.663 8.292 318.771 8.224 318.865 8.136C318.959 8.046 319.033 7.937 319.087 7.809C319.141 7.681 319.168 7.537 319.168 7.377V4.68H319.9V7.395C319.9 7.737 319.826 8.035 319.678 8.289C319.532 8.543 319.328 8.74 319.066 8.88C318.806 9.02 318.504 9.09 318.16 9.09ZM322.295 9.09C321.979 9.09 321.714 9.015 321.5 8.865C321.286 8.715 321.125 8.511 321.017 8.253C320.909 7.993 320.855 7.702 320.855 7.38C320.855 7.054 320.909 6.762 321.017 6.504C321.125 6.246 321.283 6.043 321.491 5.895C321.701 5.745 321.96 5.67 322.268 5.67C322.574 5.67 322.839 5.745 323.063 5.895C323.289 6.043 323.464 6.246 323.588 6.504C323.712 6.76 323.774 7.052 323.774 7.38C323.774 7.704 323.713 7.995 323.591 8.253C323.469 8.511 323.297 8.715 323.075 8.865C322.853 9.015 322.593 9.09 322.295 9.09ZM320.732 10.44V5.76H321.371V8.034H321.461V10.44H320.732ZM322.184 8.442C322.372 8.442 322.527 8.395 322.649 8.301C322.771 8.207 322.861 8.08 322.919 7.92C322.979 7.758 323.009 7.578 323.009 7.38C323.009 7.184 322.979 7.006 322.919 6.846C322.859 6.684 322.766 6.556 322.64 6.462C322.514 6.366 322.354 6.318 322.16 6.318C321.976 6.318 321.826 6.363 321.71 6.453C321.594 6.541 321.508 6.665 321.452 6.825C321.398 6.983 321.371 7.168 321.371 7.38C321.371 7.59 321.398 7.775 321.452 7.935C321.508 8.095 321.595 8.22 321.713 8.31C321.833 8.398 321.99 8.442 322.184 8.442ZM327.878 9V7.44C327.878 7.338 327.871 7.225 327.857 7.101C327.843 6.977 327.81 6.858 327.758 6.744C327.708 6.628 327.632 6.533 327.53 6.459C327.43 6.385 327.294 6.348 327.122 6.348C327.03 6.348 326.939 6.363 326.849 6.393C326.759 6.423 326.677 6.475 326.603 6.549C326.531 6.621 326.473 6.721 326.429 6.849C326.385 6.975 326.363 7.137 326.363 7.335L325.934 7.152C325.934 6.876 325.987 6.626 326.093 6.402C326.201 6.178 326.359 6 326.567 5.868C326.775 5.734 327.031 5.667 327.335 5.667C327.575 5.667 327.773 5.707 327.929 5.787C328.085 5.867 328.209 5.969 328.301 6.093C328.393 6.217 328.461 6.349 328.505 6.489C328.549 6.629 328.577 6.762 328.589 6.888C328.603 7.012 328.61 7.113 328.61 7.191V9H327.878ZM325.631 9V5.76H326.276V6.765H326.363V9H325.631ZM330.813 9.09C330.485 9.09 330.197 9.019 329.949 8.877C329.701 8.735 329.507 8.538 329.367 8.286C329.229 8.034 329.16 7.744 329.16 7.416C329.16 7.062 329.228 6.755 329.364 6.495C329.5 6.233 329.689 6.03 329.931 5.886C330.173 5.742 330.453 5.67 330.771 5.67C331.107 5.67 331.392 5.749 331.626 5.907C331.862 6.063 332.037 6.284 332.151 6.57C332.265 6.856 332.308 7.193 332.28 7.581H331.563V7.317C331.561 6.965 331.499 6.708 331.377 6.546C331.255 6.384 331.063 6.303 330.801 6.303C330.505 6.303 330.285 6.395 330.141 6.579C329.997 6.761 329.925 7.028 329.925 7.38C329.925 7.708 329.997 7.962 330.141 8.142C330.285 8.322 330.495 8.412 330.771 8.412C330.949 8.412 331.102 8.373 331.23 8.295C331.36 8.215 331.46 8.1 331.53 7.95L332.244 8.166C332.12 8.458 331.928 8.685 331.668 8.847C331.41 9.009 331.125 9.09 330.813 9.09ZM329.697 7.581V7.035H331.926V7.581H329.697ZM332.472 9L333.657 7.362L332.496 5.76H333.348L334.077 6.795L334.794 5.76H335.646L334.485 7.362L335.676 9H334.824L334.077 7.929L333.324 9H332.472ZM338.053 9C337.839 9.04 337.629 9.057 337.423 9.051C337.219 9.047 337.036 9.01 336.874 8.94C336.712 8.868 336.589 8.755 336.505 8.601C336.431 8.461 336.392 8.318 336.388 8.172C336.384 8.026 336.382 7.861 336.382 7.677V4.86H337.102V7.635C337.102 7.765 337.103 7.879 337.105 7.977C337.109 8.075 337.13 8.155 337.168 8.217C337.24 8.337 337.355 8.404 337.513 8.418C337.671 8.432 337.851 8.424 338.053 8.394V9ZM335.794 6.327V5.76H338.053V6.327H335.794Z" fill="#22C55E"/>
</svg>
