<svg width="98" height="78" viewBox="0 0 98 78" fill="none" xmlns="http://www.w3.org/2000/svg">
<path d="M33.7003 56.112C27.0079 56.031 19.7192 47.7979 18.2889 35.9737C16.8587 24.1495 22.9025 14.5746 29.5949 14.6556C42.1258 14.8073 40.2036 23.3401 41.6338 35.1643C43.0641 46.9885 48.7345 56.294 33.7003 56.112Z" fill="#6E5B08"/>
<ellipse cx="21.4278" cy="13.0042" rx="21.4278" ry="13.0042" transform="matrix(0.145945 0.97686 -1.01487 0.0208306 44.9082 14.1172)" fill="#EBBD1A"/>
<ellipse cx="17.9837" cy="10.914" rx="17.9837" ry="10.914" transform="matrix(0.145945 0.97686 -1.01487 0.0208306 43.2891 17.5254)" fill="#6E5B08"/>
<ellipse cx="16.7533" cy="10.1673" rx="16.7533" ry="10.1673" transform="matrix(0.145945 0.97686 -1.01487 0.0208306 41.9492 18.7603)" fill="#EBBD1A"/>
<path d="M58.8612 60.2402C63.646 62.4856 71.6598 59.1416 76.7453 51.2293C81.8307 43.3169 80.8296 34.4314 76.0448 32.1861C67.0858 27.9819 65.5158 34.7084 60.4304 42.6208C55.345 50.5331 48.1124 55.1961 58.8612 60.2402Z" fill="#6E5B08"/>
<ellipse cx="16.9217" cy="10.2695" rx="16.9217" ry="10.2695" transform="matrix(-0.557021 0.815648 0.904379 0.460972 65.3457 26.5347)" fill="#EBBD1A"/>
<ellipse cx="14.2018" cy="8.61885" rx="14.2018" ry="8.61885" transform="matrix(-0.557021 0.815648 0.904379 0.460972 65.3242 29.5142)" fill="#6E5B08"/>
<ellipse cx="13.2302" cy="8.02919" rx="13.2302" ry="8.02919" transform="matrix(-0.557021 0.815648 0.904379 0.460972 65.8516 30.853)" fill="#EBBD1A"/>
</svg>
