<svg width="513" height="513" viewBox="0 0 513 513" fill="none" xmlns="http://www.w3.org/2000/svg">
<path fill-rule="evenodd" clip-rule="evenodd" d="M64.4395 64.2191C64.4395 52.4372 73.9908 42.8858 85.7728 42.8858H427.106C438.889 42.8858 448.439 52.4372 448.439 64.2191V149.552C448.439 161.334 438.889 170.886 427.106 170.886H85.7728C73.9908 170.886 64.4395 161.334 64.4395 149.552V64.2191ZM149.773 106.886C149.773 118.668 140.221 128.219 128.439 128.219C116.657 128.219 107.106 118.668 107.106 106.886C107.106 95.1038 116.657 85.5525 128.439 85.5525C140.221 85.5525 149.773 95.1038 149.773 106.886ZM213.773 128.219C225.555 128.219 235.106 118.668 235.106 106.886C235.106 95.1038 225.555 85.5525 213.773 85.5525C201.991 85.5525 192.439 95.1038 192.439 106.886C192.439 118.668 201.991 128.219 213.773 128.219ZM64.4395 213.552C64.4395 201.771 73.9908 192.219 85.7728 192.219H427.106C438.889 192.219 448.439 201.771 448.439 213.552V298.886C448.439 310.668 438.889 320.219 427.106 320.219H85.7728C73.9908 320.219 64.4395 310.668 64.4395 298.886V213.552ZM149.773 256.219C149.773 268.002 140.221 277.552 128.439 277.552C116.657 277.552 107.106 268.002 107.106 256.219C107.106 244.437 116.657 234.886 128.439 234.886C140.221 234.886 149.773 244.437 149.773 256.219ZM213.773 277.552C225.555 277.552 235.106 268.002 235.106 256.219C235.106 244.437 225.555 234.886 213.773 234.886C201.991 234.886 192.439 244.437 192.439 256.219C192.439 268.002 201.991 277.552 213.773 277.552ZM85.7728 341.552C73.9908 341.552 64.4395 351.103 64.4395 362.886V448.219C64.4395 460.002 73.9908 469.552 85.7728 469.552H427.106C438.889 469.552 448.439 460.002 448.439 448.219V362.886C448.439 351.103 438.889 341.552 427.106 341.552H85.7728ZM128.439 426.886C140.221 426.886 149.773 417.335 149.773 405.552C149.773 393.77 140.221 384.219 128.439 384.219C116.657 384.219 107.106 393.77 107.106 405.552C107.106 417.335 116.657 426.886 128.439 426.886ZM235.106 405.552C235.106 417.335 225.555 426.886 213.773 426.886C201.991 426.886 192.439 417.335 192.439 405.552C192.439 393.77 201.991 384.219 213.773 384.219C225.555 384.219 235.106 393.77 235.106 405.552Z" fill="#F5D64E"/>
</svg>
