<svg width="32" height="33" viewBox="0 0 32 33" fill="none" xmlns="http://www.w3.org/2000/svg">
<path fill-rule="evenodd" clip-rule="evenodd" d="M23.5321 2.57971C22.3358 3.77172 21.5284 4.64481 21.4252 4.85788C21.2746 5.16899 21.2579 5.38639 21.2579 7.04821C21.2579 8.45201 21.2292 8.95852 21.1379 9.16649C21.0719 9.31686 20.7025 9.78394 20.3171 10.2045C19.2543 11.3641 16.38 14.4967 14.5876 16.4487C12.6032 18.61 11.9173 19.4067 11.8164 19.668C11.6315 20.1465 12.1706 20.8664 12.7137 20.8664C12.8841 20.8664 13.1202 20.7733 13.3238 20.6259C13.627 20.4062 16.0772 18.2074 17.3075 17.0508C17.8278 16.5616 21.1691 13.5028 22.606 12.2003L23.4018 11.4788L25.452 11.4342C27.3421 11.3931 27.5287 11.3753 27.842 11.2064C28.2787 10.971 31.8399 7.39474 31.9608 7.07012C32.0774 6.75715 31.9543 6.35607 31.6558 6.07538L31.4392 5.87174L29.2619 5.84634C28.0241 5.8319 27.042 5.78543 26.9856 5.73861C26.9178 5.68246 26.8682 4.97792 26.8287 3.51278C26.7969 2.33377 26.7331 1.27123 26.6869 1.15169C26.5756 0.863525 26.1926 0.646973 25.7942 0.646973C25.4871 0.646973 25.3789 0.739489 23.5321 2.57971ZM10.3411 7.99554C5.19316 8.90176 1.21155 12.8315 0.226661 17.9779C0.0141023 19.0887 0.00968494 21.2955 0.217911 22.3531C1.196 27.322 4.77255 31.0805 9.60958 32.2227C10.7153 32.4837 12.9302 32.5854 14.0516 32.4265C19.2664 31.6875 23.3825 27.8264 24.5014 22.624C24.7782 21.3366 24.778 18.9734 24.5008 17.7332C24.2653 16.6794 23.8943 15.5997 23.4951 14.8066C23.1546 14.1302 23.3185 14.0776 22.0064 15.2837L21.0981 16.1184L21.2697 16.5172C21.5576 17.1863 21.8466 18.3967 21.9467 19.3527C22.347 23.1752 20.1875 26.9958 16.6078 28.7984C10.999 31.6229 4.14371 28.181 2.94983 21.9413C2.76887 20.9954 2.78493 19.2322 2.98321 18.2753C3.72343 14.7036 6.46418 11.8122 10.0013 10.8712C10.7598 10.6694 11.0102 10.6445 12.3376 10.6384C13.9908 10.631 14.741 10.7627 15.936 11.2706L16.5429 11.5284L17.3305 10.6965C17.7636 10.239 18.1971 9.75846 18.2936 9.62873L18.4693 9.39272L17.676 9.02453C16.7954 8.61572 16.1337 8.38625 15.0562 8.11567C14.1145 7.87932 11.395 7.81 10.3411 7.99554ZM11.1482 13.9424C8.72562 14.431 6.817 16.2597 6.20541 18.6782C6.05733 19.264 6.03669 19.5411 6.07424 20.4385C6.12343 21.6105 6.24474 22.1119 6.69909 23.0213C7.49648 24.6172 8.95134 25.8275 10.6398 26.2999C12.3598 26.781 14.1373 26.5399 15.7154 25.6116C16.3388 25.2448 17.4811 24.1024 17.8482 23.4782C18.2506 22.7943 18.6175 21.6732 18.7124 20.8379C18.8135 19.9482 18.664 18.5711 18.4665 18.5732C18.321 18.5747 15.9057 20.8901 15.9057 21.0281C15.9057 21.1134 15.7706 21.4535 15.6054 21.7837C14.415 24.1632 11.1967 24.4888 9.54331 22.3972C8.47907 21.0508 8.54041 19.0649 9.6857 17.7906C10.1263 17.3003 10.9049 16.8172 11.4515 16.6948C11.8962 16.5953 11.9532 16.548 12.9962 15.4124C13.5919 14.764 14.0792 14.1874 14.0792 14.1311C14.0792 13.8626 12.1574 13.7389 11.1482 13.9424Z" fill="#F5D64E"/>
</svg>
