<svg width="53" height="52" viewBox="0 0 53 52" fill="none" xmlns="http://www.w3.org/2000/svg">
<path fill-rule="evenodd" clip-rule="evenodd" d="M18.6032 19.8898C20.0979 22.0606 21.901 24.6646 22.6099 25.676L23.8987 27.5146L20.0679 31.9619C17.9608 34.4076 16.2367 36.5407 16.2367 36.7017C16.2367 36.8627 16.577 36.9946 16.9924 36.9946C17.5717 36.9946 18.489 36.1432 20.9134 33.3569C22.6539 31.356 24.243 29.5363 24.4445 29.313C24.7371 28.9886 25.2061 29.4883 26.7692 31.7897C27.8463 33.3752 29.133 35.1952 29.6286 35.8336L30.5298 36.9946H33.4449C35.0483 36.9946 36.36 36.8778 36.36 36.7354C36.36 36.5927 35.825 35.7221 35.1709 34.8005C34.517 33.8789 32.7096 31.2585 31.1549 28.9774L28.3277 24.8305L29.9416 22.9405C30.8295 21.9012 32.4973 19.9703 33.6483 18.6496C34.7991 17.3288 35.7408 16.1793 35.7408 16.0954C35.7408 16.0112 35.2882 15.9524 34.7347 15.9645C33.8393 15.9843 33.3873 16.3917 30.6326 19.6622C28.9299 21.6835 27.4671 23.3408 27.3819 23.3445C27.2968 23.3482 26.1126 21.6891 24.7504 19.6576L22.2737 15.9639L19.0797 15.953L15.8853 15.9425L18.6032 19.8898ZM27.4435 26.4137C30.8153 31.2365 33.5737 35.2417 33.5737 35.3144C33.5737 35.3872 33.0514 35.4414 32.4127 35.4349C31.4118 35.4246 31.1329 35.2513 30.388 34.1748C29.9128 33.4882 27.0931 29.4455 24.1219 25.1909L18.7202 17.4552L20.0168 17.5502L21.3134 17.6452L27.4435 26.4137Z" fill="#88E273"/>
<rect x="1.62254" y="1.60508" width="49.7285" height="49.7285" stroke="#88E273" stroke-width="1.31978"/>
</svg>
