<svg width="52" height="52" viewBox="0 0 52 52" fill="none" xmlns="http://www.w3.org/2000/svg">
<path fill-rule="evenodd" clip-rule="evenodd" d="M18.0992 19.0698C19.5939 21.2407 21.397 23.8446 22.1059 24.856L23.3948 26.6947L19.5639 31.1419C17.4568 33.5877 15.7327 35.7208 15.7327 35.8817C15.7327 36.0427 16.073 36.1746 16.4884 36.1746C17.0677 36.1746 17.985 35.3232 20.4094 32.5369C22.1499 30.5361 23.739 28.7163 23.9406 28.4931C24.2331 28.1686 24.7021 28.6683 26.2653 30.9698C27.3423 32.5552 28.629 34.3753 29.1246 35.0137L30.0258 36.1746H32.9409C34.5443 36.1746 35.856 36.0579 35.856 35.9155C35.856 35.7728 35.3211 34.9022 34.6669 33.9806C34.013 33.0589 32.2057 30.4385 30.6509 28.1575L27.8237 24.0106L29.4376 22.1205C30.3255 21.0812 31.9933 19.1503 33.1443 17.8296C34.2951 16.5089 35.2368 15.3594 35.2368 15.2755C35.2368 15.1913 34.7842 15.1325 34.2307 15.1445C33.3353 15.1644 32.8833 15.5718 30.1286 18.8423C28.4259 20.8636 26.9631 22.5208 26.8779 22.5245C26.7928 22.5282 25.6086 20.8692 24.2464 18.8376L21.7697 15.1439L18.5757 15.1331L15.3813 15.1226L18.0992 19.0698ZM26.9395 25.5938C30.3113 30.4166 33.0697 34.4217 33.0697 34.4945C33.0697 34.5672 32.5474 34.6214 31.9088 34.6149C30.9079 34.6047 30.6289 34.4313 29.884 33.3549C29.4088 32.6682 26.5891 28.6256 23.618 24.3709L18.2163 16.6352L19.5128 16.7303L20.8094 16.8253L26.9395 25.5938Z" fill="#F5D64E"/>
<rect x="1.11839" y="0.785134" width="49.7285" height="49.7285" stroke="#F5D64E" stroke-width="1.31978"/>
</svg>
